<?xml version="1.0" encoding="utf-8"?>
<!-- Generator: Adobe Illustrator 16.0.0, SVG Export Plug-In . SVG Version: 6.00 Build 0)  -->
<!DOCTYPE svg PUBLIC "-//W3C//DTD SVG 1.1//EN" "http://www.w3.org/Graphics/SVG/1.1/DTD/svg11.dtd" [
	<!ENTITY ns_flows "http://ns.adobe.com/Flows/1.0/">
	<!ENTITY ns_extend "http://ns.adobe.com/Extensibility/1.0/">
	<!ENTITY ns_ai "http://ns.adobe.com/AdobeIllustrator/10.0/">
	<!ENTITY ns_graphs "http://ns.adobe.com/Graphs/1.0/">
]>
<svg version="1.1" id="Camada_1" xmlns:x="&ns_extend;" xmlns:i="&ns_ai;" xmlns:graph="&ns_graphs;"
	 xmlns="http://www.w3.org/2000/svg" xmlns:xlink="http://www.w3.org/1999/xlink" xmlns:a="http://ns.adobe.com/AdobeSVGViewerExtensions/3.0/"
	 x="0px" y="0px" width="106.288px" height="12.158px" viewBox="0 0 106.288 12.158" enable-background="new 0 0 106.288 12.158"
	 xml:space="preserve">
<g>
	<path fill="#FFFFFF" d="M23.105,9.822l-0.273-0.719h-2.328L20.23,9.837c-0.107,0.287-0.198,0.48-0.273,0.58s-0.199,0.15-0.371,0.15
		c-0.146,0-0.275-0.053-0.387-0.16s-0.168-0.228-0.168-0.363c0-0.078,0.013-0.159,0.039-0.242s0.069-0.199,0.129-0.348l1.465-3.719
		c0.042-0.107,0.092-0.235,0.15-0.385c0.059-0.149,0.121-0.274,0.188-0.373c0.066-0.099,0.154-0.179,0.262-0.24
		c0.108-0.061,0.242-0.092,0.4-0.092c0.162,0,0.296,0.031,0.404,0.092c0.108,0.062,0.195,0.14,0.262,0.236
		c0.066,0.097,0.123,0.2,0.168,0.311c0.045,0.111,0.104,0.259,0.174,0.443l1.496,3.695c0.117,0.281,0.176,0.486,0.176,0.613
		c0,0.133-0.056,0.254-0.166,0.365c-0.111,0.111-0.244,0.166-0.4,0.166c-0.091,0-0.169-0.016-0.234-0.049s-0.12-0.077-0.164-0.133
		s-0.092-0.142-0.143-0.258S23.142,9.91,23.105,9.822z M20.809,8.232h1.711l-0.863-2.363L20.809,8.232z"/>
	<path fill="#FFFFFF" d="M28.043,9.958V9.853c-0.143,0.164-0.285,0.297-0.424,0.4s-0.291,0.181-0.453,0.234s-0.34,0.08-0.533,0.08
		c-0.255,0-0.492-0.054-0.709-0.162s-0.406-0.262-0.564-0.463s-0.279-0.436-0.361-0.707s-0.123-0.564-0.123-0.879
		c0-0.667,0.163-1.186,0.488-1.559s0.754-0.559,1.285-0.559c0.307,0,0.566,0.053,0.777,0.158s0.417,0.268,0.617,0.486V5.31
		c0-0.219,0.043-0.384,0.131-0.496c0.087-0.112,0.211-0.168,0.373-0.168S28.833,4.698,28.92,4.8
		c0.087,0.103,0.131,0.255,0.131,0.455v4.703c0,0.203-0.047,0.355-0.141,0.457s-0.215,0.152-0.363,0.152
		c-0.146,0-0.266-0.053-0.361-0.158S28.043,10.154,28.043,9.958z M25.945,8.392c0,0.289,0.045,0.535,0.135,0.738
		s0.213,0.356,0.369,0.459s0.327,0.154,0.512,0.154c0.188,0,0.359-0.049,0.514-0.146s0.279-0.248,0.371-0.449
		s0.139-0.454,0.139-0.756c0-0.284-0.046-0.528-0.139-0.732s-0.217-0.361-0.375-0.469s-0.33-0.162-0.518-0.162
		c-0.195,0-0.37,0.055-0.523,0.166s-0.273,0.27-0.357,0.477S25.945,8.119,25.945,8.392z"/>
	<path fill="#FFFFFF" d="M33.668,8.478v1.418c0,0.224-0.051,0.392-0.152,0.504s-0.236,0.168-0.402,0.168
		c-0.162,0-0.292-0.056-0.393-0.168s-0.15-0.28-0.15-0.504V8.197c0-0.268-0.009-0.477-0.027-0.625s-0.068-0.27-0.148-0.365
		s-0.208-0.143-0.383-0.143c-0.349,0-0.579,0.12-0.689,0.359s-0.166,0.583-0.166,1.031v1.441c0,0.221-0.05,0.389-0.15,0.502
		s-0.232,0.17-0.396,0.17c-0.162,0-0.293-0.057-0.396-0.17s-0.154-0.281-0.154-0.502V6.845c0-0.201,0.046-0.353,0.139-0.457
		s0.214-0.156,0.365-0.156c0.146,0,0.268,0.049,0.365,0.146s0.146,0.232,0.146,0.404v0.102c0.185-0.221,0.383-0.384,0.594-0.488
		s0.445-0.156,0.703-0.156c0.268,0,0.499,0.053,0.691,0.16s0.352,0.268,0.477,0.484c0.18-0.219,0.373-0.381,0.578-0.486
		s0.434-0.158,0.684-0.158c0.292,0,0.543,0.057,0.754,0.172s0.368,0.279,0.473,0.492c0.091,0.193,0.137,0.496,0.137,0.91v2.082
		c0,0.224-0.051,0.392-0.152,0.504s-0.236,0.168-0.402,0.168c-0.162,0-0.294-0.057-0.396-0.17c-0.103-0.113-0.154-0.281-0.154-0.502
		V8.103c0-0.229-0.01-0.413-0.029-0.551s-0.072-0.254-0.158-0.348s-0.216-0.141-0.391-0.141c-0.141,0-0.274,0.042-0.4,0.125
		s-0.225,0.195-0.295,0.336C33.707,7.705,33.668,8.022,33.668,8.478z"/>
	<path fill="#FFFFFF" d="M37.738,5.736c-0.148,0-0.275-0.045-0.381-0.137c-0.105-0.091-0.158-0.22-0.158-0.387
		c0-0.151,0.054-0.275,0.162-0.373s0.234-0.146,0.377-0.146c0.138,0,0.26,0.044,0.367,0.133c0.107,0.089,0.16,0.218,0.16,0.387
		c0,0.164-0.052,0.292-0.156,0.385S37.881,5.736,37.738,5.736z M38.265,6.837v3.082c0,0.213-0.051,0.375-0.152,0.484
		s-0.23,0.164-0.387,0.164s-0.283-0.056-0.381-0.168s-0.146-0.272-0.146-0.48V6.869c0-0.211,0.049-0.37,0.146-0.477
		s0.225-0.16,0.381-0.16s0.285,0.053,0.387,0.16S38.265,6.647,38.265,6.837z"/>
	<path fill="#FFFFFF" d="M40.335,6.822v0.129c0.188-0.248,0.393-0.429,0.615-0.545s0.479-0.174,0.768-0.174
		c0.281,0,0.533,0.061,0.754,0.184s0.387,0.295,0.496,0.52c0.07,0.13,0.116,0.271,0.137,0.422s0.031,0.344,0.031,0.578v1.984
		c0,0.213-0.049,0.375-0.146,0.484s-0.225,0.164-0.381,0.164c-0.159,0-0.288-0.056-0.387-0.168s-0.148-0.272-0.148-0.48V8.142
		c0-0.352-0.049-0.621-0.146-0.807s-0.292-0.279-0.584-0.279c-0.19,0-0.363,0.057-0.52,0.17s-0.271,0.269-0.344,0.467
		c-0.052,0.159-0.078,0.456-0.078,0.891v1.336c0,0.216-0.05,0.378-0.15,0.486s-0.23,0.162-0.389,0.162
		c-0.154,0-0.28-0.056-0.379-0.168s-0.148-0.272-0.148-0.48V6.837c0-0.203,0.044-0.355,0.133-0.455s0.209-0.15,0.363-0.15
		c0.094,0,0.178,0.022,0.254,0.066s0.136,0.111,0.182,0.199S40.335,6.694,40.335,6.822z"/>
	<path fill="#FFFFFF" d="M44.738,5.736c-0.148,0-0.275-0.045-0.381-0.137c-0.105-0.091-0.158-0.22-0.158-0.387
		c0-0.151,0.054-0.275,0.162-0.373s0.234-0.146,0.377-0.146c0.138,0,0.26,0.044,0.367,0.133c0.107,0.089,0.16,0.218,0.16,0.387
		c0,0.164-0.052,0.292-0.156,0.385S44.881,5.736,44.738,5.736z M45.265,6.837v3.082c0,0.213-0.051,0.375-0.152,0.484
		s-0.23,0.164-0.387,0.164s-0.283-0.056-0.381-0.168s-0.146-0.272-0.146-0.48V6.869c0-0.211,0.049-0.37,0.146-0.477
		s0.225-0.16,0.381-0.16s0.285,0.053,0.387,0.16S45.265,6.647,45.265,6.837z"/>
	<path fill="#FFFFFF" d="M49.8,9.173c0,0.294-0.072,0.546-0.215,0.756s-0.355,0.369-0.635,0.477s-0.621,0.162-1.021,0.162
		c-0.383,0-0.711-0.059-0.984-0.176s-0.475-0.264-0.605-0.439s-0.195-0.352-0.195-0.529c0-0.117,0.042-0.217,0.125-0.301
		s0.189-0.125,0.316-0.125c0.112,0,0.198,0.027,0.258,0.082s0.117,0.131,0.172,0.23c0.109,0.19,0.24,0.332,0.393,0.426
		s0.36,0.141,0.623,0.141c0.213,0,0.389-0.047,0.525-0.143s0.205-0.204,0.205-0.326c0-0.188-0.071-0.324-0.213-0.41
		s-0.375-0.168-0.701-0.246c-0.367-0.091-0.666-0.187-0.896-0.287s-0.415-0.232-0.553-0.396s-0.207-0.366-0.207-0.605
		c0-0.213,0.064-0.416,0.191-0.605s0.316-0.342,0.564-0.455s0.549-0.17,0.9-0.17c0.276,0,0.524,0.029,0.744,0.086
		s0.404,0.134,0.551,0.23s0.259,0.203,0.336,0.32s0.115,0.232,0.115,0.344c0,0.123-0.041,0.223-0.123,0.301s-0.199,0.117-0.35,0.117
		c-0.109,0-0.203-0.031-0.279-0.094s-0.165-0.156-0.264-0.281c-0.081-0.104-0.176-0.188-0.285-0.25s-0.258-0.094-0.445-0.094
		c-0.193,0-0.353,0.041-0.48,0.123s-0.191,0.184-0.191,0.307c0,0.112,0.047,0.204,0.141,0.275s0.22,0.131,0.379,0.178
		s0.377,0.104,0.656,0.172c0.331,0.081,0.601,0.177,0.811,0.289S49.53,8.5,49.638,8.652S49.8,8.978,49.8,9.173z"/>
	<path fill="#FFFFFF" d="M50.761,6.326h0.117V5.685c0-0.172,0.004-0.307,0.014-0.404s0.035-0.182,0.076-0.252
		c0.042-0.073,0.102-0.132,0.18-0.178c0.078-0.045,0.166-0.068,0.262-0.068c0.135,0,0.258,0.051,0.367,0.152
		c0.073,0.068,0.119,0.15,0.139,0.248s0.029,0.236,0.029,0.416v0.727h0.391c0.151,0,0.266,0.036,0.346,0.107S52.8,6.597,52.8,6.708
		c0,0.143-0.057,0.244-0.17,0.301s-0.275,0.086-0.486,0.086h-0.199v1.961c0,0.167,0.006,0.295,0.018,0.385s0.043,0.163,0.094,0.219
		s0.133,0.084,0.248,0.084c0.063,0,0.147-0.011,0.254-0.033s0.19-0.033,0.25-0.033c0.086,0,0.164,0.035,0.232,0.104
		s0.104,0.154,0.104,0.256c0,0.172-0.094,0.303-0.281,0.395s-0.457,0.137-0.809,0.137c-0.333,0-0.586-0.056-0.758-0.168
		s-0.285-0.267-0.338-0.465s-0.08-0.462-0.08-0.793V7.095h-0.141c-0.154,0-0.271-0.037-0.352-0.109s-0.121-0.166-0.121-0.277
		s0.042-0.204,0.127-0.275S50.6,6.326,50.761,6.326z"/>
	<path fill="#FFFFFF" d="M54.593,9.029v0.891c0,0.216-0.051,0.378-0.152,0.486s-0.23,0.162-0.387,0.162
		c-0.154,0-0.28-0.055-0.379-0.164s-0.148-0.271-0.148-0.484V6.951c0-0.479,0.173-0.719,0.52-0.719c0.177,0,0.305,0.056,0.383,0.168
		s0.121,0.277,0.129,0.496c0.127-0.219,0.258-0.384,0.393-0.496c0.133-0.112,0.313-0.168,0.537-0.168
		c0.223,0,0.441,0.056,0.652,0.168s0.316,0.26,0.316,0.445c0,0.13-0.045,0.238-0.135,0.322s-0.188,0.127-0.291,0.127
		c-0.039,0-0.135-0.024-0.283-0.072c-0.15-0.048-0.283-0.072-0.396-0.072c-0.156,0-0.285,0.041-0.383,0.123
		c-0.1,0.082-0.176,0.204-0.231,0.365s-0.092,0.354-0.113,0.576S54.593,8.708,54.593,9.029z"/>
	<path fill="#FFFFFF" d="M59.534,9.966c-0.258,0.201-0.507,0.351-0.748,0.451s-0.511,0.15-0.811,0.15
		c-0.273,0-0.514-0.054-0.721-0.162s-0.366-0.254-0.479-0.439s-0.168-0.385-0.168-0.602c0-0.292,0.093-0.541,0.277-0.746
		s0.438-0.344,0.762-0.414c0.067-0.016,0.235-0.051,0.504-0.105s0.498-0.105,0.689-0.15s0.399-0.101,0.623-0.166
		c-0.013-0.281-0.069-0.488-0.17-0.619s-0.308-0.197-0.623-0.197c-0.271,0-0.475,0.038-0.611,0.113s-0.254,0.189-0.352,0.34
		s-0.167,0.25-0.207,0.299s-0.127,0.072-0.26,0.072c-0.12,0-0.224-0.039-0.311-0.115S56.8,7.5,56.8,7.38
		c0-0.188,0.066-0.37,0.199-0.547s0.34-0.323,0.621-0.438s0.632-0.172,1.051-0.172c0.469,0,0.837,0.055,1.105,0.166
		s0.458,0.286,0.568,0.525s0.166,0.557,0.166,0.953c0,0.25-0.001,0.462-0.002,0.637s-0.003,0.369-0.006,0.582
		c0,0.201,0.033,0.41,0.1,0.627s0.1,0.357,0.1,0.42c0,0.109-0.052,0.209-0.154,0.299s-0.22,0.135-0.35,0.135
		c-0.109,0-0.218-0.051-0.324-0.154S59.654,10.162,59.534,9.966z M59.464,8.423c-0.156,0.057-0.384,0.118-0.682,0.182
		s-0.505,0.111-0.619,0.141s-0.224,0.088-0.328,0.176s-0.156,0.209-0.156,0.365c0,0.162,0.062,0.299,0.184,0.412
		s0.282,0.17,0.48,0.17c0.211,0,0.405-0.046,0.584-0.139s0.31-0.211,0.393-0.357c0.097-0.162,0.145-0.427,0.145-0.797V8.423z"/>
	<path fill="#FFFFFF" d="M63.601,10.568l-0.016,0.078c0.276,0.023,0.481,0.092,0.615,0.207s0.201,0.264,0.201,0.449
		c0,0.154-0.05,0.289-0.15,0.404s-0.248,0.206-0.443,0.27s-0.433,0.096-0.711,0.096c-0.479,0-0.719-0.091-0.719-0.273
		c0-0.049,0.019-0.092,0.055-0.129s0.079-0.055,0.129-0.055c0.011,0,0.067,0.005,0.172,0.016s0.199,0.016,0.285,0.016
		c0.469,0,0.703-0.112,0.703-0.336c0-0.081-0.036-0.149-0.107-0.205s-0.161-0.084-0.268-0.084c-0.042,0-0.102,0.006-0.18,0.018
		s-0.136,0.018-0.172,0.018c-0.065,0-0.116-0.024-0.154-0.072s-0.057-0.1-0.057-0.154c0-0.125,0.185-0.215,0.555-0.27
		c-0.63-0.034-1.113-0.242-1.449-0.623s-0.504-0.881-0.504-1.498c0-0.438,0.085-0.824,0.254-1.16s0.414-0.596,0.734-0.779
		s0.703-0.275,1.148-0.275c0.276,0,0.529,0.041,0.76,0.121s0.426,0.185,0.586,0.313s0.282,0.264,0.367,0.408
		s0.127,0.279,0.127,0.404c0,0.127-0.048,0.236-0.143,0.324s-0.21,0.133-0.346,0.133c-0.138,0-0.255-0.066-0.352-0.199
		c-0.161-0.234-0.31-0.407-0.445-0.518s-0.325-0.166-0.57-0.166c-0.315,0-0.569,0.123-0.762,0.369s-0.289,0.583-0.289,1.01
		c0,0.201,0.024,0.385,0.074,0.553s0.121,0.311,0.215,0.43s0.207,0.208,0.34,0.27s0.278,0.092,0.438,0.092
		c0.224,0,0.4-0.043,0.529-0.129s0.251-0.216,0.367-0.391s0.205-0.295,0.268-0.363s0.155-0.102,0.277-0.102
		c0.128,0,0.235,0.048,0.322,0.145s0.131,0.203,0.131,0.32c0,0.174-0.069,0.362-0.209,0.563s-0.347,0.373-0.623,0.518
		S63.98,10.552,63.601,10.568z"/>
	<path fill="#FFFFFF" d="M69.042,9.966c-0.258,0.201-0.507,0.351-0.748,0.451s-0.511,0.15-0.811,0.15
		c-0.273,0-0.514-0.054-0.721-0.162s-0.366-0.254-0.479-0.439s-0.168-0.385-0.168-0.602c0-0.292,0.093-0.541,0.277-0.746
		s0.438-0.344,0.762-0.414c0.067-0.016,0.235-0.051,0.504-0.105s0.498-0.105,0.689-0.15s0.399-0.101,0.623-0.166
		c-0.013-0.281-0.069-0.488-0.17-0.619s-0.308-0.197-0.623-0.197c-0.271,0-0.475,0.038-0.611,0.113s-0.254,0.189-0.352,0.34
		s-0.167,0.25-0.207,0.299s-0.127,0.072-0.26,0.072c-0.12,0-0.224-0.039-0.311-0.115S66.308,7.5,66.308,7.38
		c0-0.188,0.066-0.37,0.199-0.547s0.34-0.323,0.621-0.438s0.632-0.172,1.051-0.172c0.469,0,0.837,0.055,1.105,0.166
		s0.458,0.286,0.568,0.525s0.166,0.557,0.166,0.953c0,0.25-0.001,0.462-0.002,0.637s-0.003,0.369-0.006,0.582
		c0,0.201,0.033,0.41,0.1,0.627s0.1,0.357,0.1,0.42c0,0.109-0.052,0.209-0.154,0.299s-0.22,0.135-0.35,0.135
		c-0.109,0-0.218-0.051-0.324-0.154S69.162,10.162,69.042,9.966z M67.394,5.349c-0.133,0-0.223,0.089-0.27,0.266
		c-0.047,0.154-0.117,0.23-0.211,0.23c-0.058,0-0.108-0.027-0.154-0.08S66.69,5.637,66.69,5.541c0-0.13,0.028-0.256,0.086-0.377
		s0.138-0.217,0.24-0.289c0.103-0.071,0.213-0.107,0.33-0.107s0.226,0.017,0.326,0.051c0.101,0.034,0.234,0.089,0.402,0.166
		c0.168,0.077,0.283,0.126,0.346,0.148c0.063,0.022,0.132,0.033,0.207,0.033s0.135-0.019,0.178-0.057
		c0.043-0.038,0.076-0.106,0.1-0.205c0.042-0.151,0.112-0.227,0.211-0.227c0.06,0,0.112,0.027,0.156,0.082s0.066,0.129,0.066,0.223
		c0,0.146-0.056,0.311-0.166,0.494s-0.282,0.275-0.514,0.275c-0.089,0-0.18-0.015-0.273-0.045s-0.223-0.082-0.387-0.154
		s-0.286-0.125-0.367-0.156S67.472,5.349,67.394,5.349z M68.972,8.423c-0.156,0.057-0.384,0.118-0.682,0.182
		s-0.505,0.111-0.619,0.141s-0.224,0.088-0.328,0.176s-0.156,0.209-0.156,0.365c0,0.162,0.062,0.299,0.184,0.412
		s0.282,0.17,0.48,0.17c0.211,0,0.405-0.046,0.584-0.139s0.31-0.211,0.393-0.357c0.097-0.162,0.145-0.427,0.145-0.797V8.423z"/>
	<path fill="#FFFFFF" d="M75.093,8.4c0,0.318-0.05,0.611-0.148,0.879s-0.242,0.499-0.43,0.691s-0.411,0.34-0.672,0.443
		s-0.554,0.154-0.879,0.154c-0.323,0-0.613-0.052-0.871-0.156s-0.481-0.253-0.67-0.447s-0.332-0.423-0.43-0.688
		S70.847,8.72,70.847,8.4c0-0.323,0.05-0.619,0.148-0.887s0.241-0.498,0.426-0.688s0.409-0.336,0.672-0.439s0.554-0.154,0.871-0.154
		c0.323,0,0.616,0.052,0.879,0.156s0.488,0.252,0.676,0.445s0.33,0.422,0.428,0.688S75.093,8.08,75.093,8.4z M74.022,8.4
		c0-0.435-0.096-0.773-0.287-1.016s-0.448-0.363-0.771-0.363c-0.208,0-0.392,0.054-0.551,0.162s-0.281,0.268-0.367,0.479
		S71.917,8.119,71.917,8.4c0,0.279,0.042,0.522,0.127,0.73s0.206,0.368,0.363,0.479s0.343,0.166,0.557,0.166
		c0.323,0,0.58-0.122,0.771-0.365S74.022,8.83,74.022,8.4z"/>
	<path fill="#FFFFFF" d="M80.229,8.24h-1.063v1.621c0,0.232-0.055,0.408-0.164,0.527s-0.247,0.18-0.414,0.18
		c-0.175,0-0.315-0.059-0.422-0.178s-0.16-0.292-0.16-0.521V5.455c0-0.255,0.059-0.438,0.176-0.547s0.304-0.164,0.559-0.164h1.488
		c0.44,0,0.778,0.034,1.016,0.102c0.234,0.065,0.437,0.173,0.607,0.324c0.171,0.151,0.3,0.336,0.389,0.555s0.133,0.465,0.133,0.738
		c0,0.583-0.18,1.025-0.539,1.326S80.94,8.24,80.229,8.24z M79.948,5.615h-0.781v1.75h0.781c0.273,0,0.502-0.029,0.686-0.086
		s0.323-0.151,0.42-0.281s0.145-0.301,0.145-0.512c0-0.252-0.074-0.458-0.223-0.617C80.809,5.699,80.467,5.615,79.948,5.615z"/>
	<path fill="#FFFFFF" d="M86.038,9.966V9.83c-0.128,0.162-0.262,0.297-0.402,0.406s-0.294,0.191-0.461,0.244s-0.356,0.08-0.57,0.08
		c-0.258,0-0.489-0.053-0.693-0.16s-0.362-0.254-0.475-0.441c-0.133-0.227-0.199-0.552-0.199-0.977V6.869
		c0-0.213,0.048-0.373,0.145-0.479s0.224-0.158,0.383-0.158c0.161,0,0.292,0.053,0.391,0.16s0.148,0.266,0.148,0.477v1.707
		c0,0.248,0.021,0.455,0.063,0.623s0.116,0.299,0.225,0.395s0.255,0.143,0.439,0.143c0.18,0,0.349-0.053,0.508-0.16
		s0.274-0.246,0.348-0.418c0.06-0.151,0.09-0.482,0.09-0.992V6.869c0-0.211,0.05-0.37,0.148-0.477s0.228-0.16,0.387-0.16
		s0.286,0.053,0.383,0.158s0.145,0.265,0.145,0.479v3.09c0,0.203-0.046,0.355-0.139,0.457s-0.212,0.152-0.357,0.152
		s-0.267-0.053-0.361-0.158S86.038,10.156,86.038,9.966z M85.253,4.701h0.527c0.133,0,0.199,0.02,0.199,0.059
		c0,0.021-0.073,0.105-0.219,0.254s-0.293,0.291-0.441,0.426c-0.148,0.136-0.251,0.217-0.309,0.246
		c-0.148,0.076-0.308,0.113-0.477,0.113c-0.112,0-0.168-0.033-0.168-0.098c0-0.044,0.034-0.121,0.102-0.23l0.176-0.328
		c0.102-0.19,0.19-0.311,0.266-0.363C84.984,4.727,85.1,4.701,85.253,4.701z"/>
	<path fill="#FFFFFF" d="M89.085,5.255v1.629c0.2-0.208,0.405-0.368,0.613-0.479s0.466-0.166,0.773-0.166
		c0.354,0,0.665,0.084,0.932,0.252s0.474,0.412,0.621,0.73s0.221,0.697,0.221,1.135c0,0.323-0.041,0.619-0.123,0.889
		s-0.201,0.503-0.357,0.701s-0.346,0.351-0.568,0.459s-0.468,0.162-0.736,0.162c-0.164,0-0.318-0.02-0.463-0.059
		s-0.268-0.09-0.369-0.154s-0.188-0.129-0.26-0.197s-0.166-0.169-0.283-0.305v0.105c0,0.201-0.048,0.352-0.145,0.455
		s-0.219,0.154-0.367,0.154c-0.151,0-0.271-0.051-0.361-0.154s-0.135-0.254-0.135-0.455V5.302c0-0.216,0.044-0.379,0.131-0.49
		c0.087-0.11,0.209-0.166,0.365-0.166c0.164,0,0.29,0.053,0.379,0.158S89.085,5.06,89.085,5.255z M89.136,8.423
		c0,0.424,0.097,0.75,0.291,0.979s0.448,0.342,0.764,0.342c0.269,0,0.499-0.117,0.693-0.35s0.291-0.567,0.291-1.002
		c0-0.281-0.04-0.523-0.121-0.727s-0.195-0.36-0.344-0.471s-0.321-0.166-0.52-0.166c-0.203,0-0.384,0.055-0.543,0.166
		s-0.284,0.271-0.375,0.48S89.136,8.134,89.136,8.423z"/>
	<path fill="#FFFFFF" d="M92.995,9.919V5.294c0-0.213,0.048-0.375,0.143-0.484s0.224-0.164,0.385-0.164s0.292,0.054,0.391,0.162
		c0.099,0.108,0.148,0.271,0.148,0.486v4.625c0,0.216-0.05,0.378-0.15,0.486s-0.229,0.162-0.389,0.162
		c-0.156,0-0.283-0.056-0.381-0.168S92.995,10.128,92.995,9.919z"/>
	<path fill="#FFFFFF" d="M95.702,5.736c-0.148,0-0.275-0.045-0.381-0.137c-0.105-0.091-0.158-0.22-0.158-0.387
		c0-0.151,0.054-0.275,0.162-0.373s0.233-0.146,0.377-0.146c0.138,0,0.261,0.044,0.367,0.133c0.106,0.089,0.16,0.218,0.16,0.387
		c0,0.164-0.052,0.292-0.156,0.385S95.846,5.736,95.702,5.736z M96.229,6.837v3.082c0,0.213-0.051,0.375-0.152,0.484
		s-0.23,0.164-0.387,0.164s-0.283-0.056-0.381-0.168s-0.146-0.272-0.146-0.48V6.869c0-0.211,0.049-0.37,0.146-0.477
		s0.225-0.16,0.381-0.16s0.285,0.053,0.387,0.16S96.229,6.647,96.229,6.837z"/>
	<path fill="#FFFFFF" d="M101.155,9.248c0,0.133-0.04,0.275-0.119,0.426s-0.2,0.295-0.363,0.432s-0.368,0.247-0.615,0.33
		s-0.526,0.125-0.836,0.125c-0.659,0-1.173-0.192-1.543-0.576s-0.555-0.899-0.555-1.545c0-0.438,0.085-0.824,0.254-1.16
		s0.414-0.596,0.734-0.779s0.703-0.275,1.148-0.275c0.276,0,0.529,0.041,0.76,0.121s0.426,0.185,0.586,0.313
		s0.282,0.264,0.367,0.408s0.127,0.279,0.127,0.404c0,0.127-0.048,0.236-0.143,0.324s-0.21,0.133-0.346,0.133
		c-0.089,0-0.162-0.023-0.221-0.068s-0.124-0.119-0.197-0.221c-0.13-0.198-0.267-0.346-0.408-0.445s-0.322-0.148-0.541-0.148
		c-0.315,0-0.569,0.123-0.762,0.369s-0.289,0.583-0.289,1.01c0,0.201,0.024,0.385,0.074,0.553s0.121,0.311,0.215,0.43
		s0.207,0.208,0.34,0.27s0.278,0.092,0.438,0.092c0.214,0,0.396-0.049,0.549-0.148s0.287-0.25,0.404-0.453
		c0.065-0.12,0.136-0.213,0.211-0.281s0.168-0.102,0.277-0.102c0.13,0,0.238,0.049,0.324,0.148S101.155,9.136,101.155,9.248z"/>
	<path fill="#FFFFFF" d="M104.78,9.966c-0.258,0.201-0.507,0.351-0.748,0.451s-0.511,0.15-0.811,0.15
		c-0.273,0-0.514-0.054-0.721-0.162s-0.366-0.254-0.479-0.439s-0.168-0.385-0.168-0.602c0-0.292,0.093-0.541,0.277-0.746
		s0.438-0.344,0.762-0.414c0.067-0.016,0.235-0.051,0.504-0.105s0.498-0.105,0.689-0.15s0.399-0.101,0.623-0.166
		c-0.013-0.281-0.069-0.488-0.17-0.619s-0.308-0.197-0.623-0.197c-0.271,0-0.475,0.038-0.611,0.113s-0.254,0.189-0.352,0.34
		s-0.167,0.25-0.207,0.299s-0.127,0.072-0.26,0.072c-0.12,0-0.224-0.039-0.311-0.115s-0.131-0.175-0.131-0.295
		c0-0.188,0.066-0.37,0.199-0.547s0.34-0.323,0.621-0.438s0.632-0.172,1.051-0.172c0.469,0,0.837,0.055,1.105,0.166
		s0.458,0.286,0.568,0.525s0.166,0.557,0.166,0.953c0,0.25-0.001,0.462-0.002,0.637s-0.003,0.369-0.006,0.582
		c0,0.201,0.033,0.41,0.1,0.627s0.1,0.357,0.1,0.42c0,0.109-0.052,0.209-0.154,0.299s-0.22,0.135-0.35,0.135
		c-0.109,0-0.218-0.051-0.324-0.154S104.9,10.162,104.78,9.966z M104.71,8.423c-0.156,0.057-0.384,0.118-0.682,0.182
		s-0.505,0.111-0.619,0.141s-0.224,0.088-0.328,0.176s-0.156,0.209-0.156,0.365c0,0.162,0.062,0.299,0.184,0.412
		s0.282,0.17,0.48,0.17c0.211,0,0.405-0.046,0.584-0.139s0.31-0.211,0.393-0.357c0.097-0.162,0.145-0.427,0.145-0.797V8.423z"/>
</g>
<g>
	<path fill="#FFFFFF" d="M20.733,3.456h-0.875c-0.126,0-0.216-0.028-0.271-0.085s-0.081-0.147-0.081-0.271V0.948
		c0-0.126,0.028-0.217,0.083-0.272s0.145-0.083,0.269-0.083h0.928c0.137,0,0.255,0.008,0.355,0.025s0.19,0.049,0.27,0.098
		c0.068,0.041,0.127,0.091,0.18,0.153S21.683,1,21.71,1.074s0.041,0.154,0.041,0.237c0,0.287-0.143,0.496-0.43,0.629
		c0.376,0.12,0.564,0.353,0.564,0.699c0,0.16-0.041,0.304-0.123,0.433s-0.193,0.223-0.332,0.284
		c-0.087,0.037-0.188,0.062-0.301,0.077S20.884,3.456,20.733,3.456z M20.087,1.028v0.74h0.531c0.145,0,0.256-0.014,0.335-0.041
		s0.139-0.08,0.181-0.156c0.033-0.055,0.049-0.116,0.049-0.184c0-0.145-0.051-0.241-0.154-0.288s-0.26-0.071-0.471-0.071H20.087z
		 M20.69,2.185h-0.604v0.836h0.623c0.392,0,0.588-0.141,0.588-0.424c0-0.145-0.051-0.25-0.152-0.314S20.892,2.185,20.69,2.185z"/>
	<path fill="#FFFFFF" d="M23.698,3.204c-0.129,0.1-0.253,0.175-0.374,0.226s-0.255,0.075-0.405,0.075
		c-0.137,0-0.257-0.027-0.36-0.081s-0.183-0.127-0.239-0.22s-0.084-0.193-0.084-0.301c0-0.146,0.046-0.27,0.139-0.373
		s0.219-0.172,0.381-0.207c0.034-0.008,0.118-0.025,0.252-0.053s0.249-0.052,0.345-0.075s0.2-0.05,0.312-0.083
		c-0.006-0.141-0.035-0.244-0.085-0.31s-0.154-0.099-0.312-0.099c-0.135,0-0.237,0.019-0.306,0.057s-0.127,0.094-0.176,0.17
		s-0.083,0.125-0.104,0.149s-0.063,0.036-0.13,0.036c-0.06,0-0.112-0.019-0.155-0.058s-0.065-0.087-0.065-0.147
		c0-0.094,0.033-0.185,0.1-0.273s0.17-0.162,0.311-0.219s0.316-0.086,0.525-0.086c0.234,0,0.418,0.028,0.553,0.083
		s0.229,0.143,0.284,0.263s0.083,0.279,0.083,0.477c0,0.125,0,0.231-0.001,0.318s-0.001,0.184-0.003,0.291
		c0,0.1,0.017,0.205,0.05,0.313s0.05,0.179,0.05,0.21c0,0.055-0.026,0.104-0.077,0.149s-0.11,0.067-0.175,0.067
		c-0.055,0-0.109-0.026-0.162-0.077S23.758,3.302,23.698,3.204z M23.663,2.433c-0.078,0.029-0.192,0.059-0.341,0.091
		s-0.252,0.055-0.31,0.07s-0.112,0.044-0.164,0.088s-0.078,0.104-0.078,0.183c0,0.081,0.031,0.149,0.092,0.206
		s0.141,0.085,0.24,0.085c0.105,0,0.203-0.023,0.292-0.069s0.155-0.106,0.196-0.179c0.048-0.081,0.072-0.213,0.072-0.398V2.433z"/>
	<path fill="#FFFFFF" d="M26.64,2.845c0,0.066-0.02,0.137-0.06,0.213s-0.1,0.147-0.182,0.216s-0.184,0.124-0.308,0.165
		s-0.263,0.063-0.418,0.063c-0.33,0-0.586-0.096-0.771-0.288s-0.277-0.45-0.277-0.772c0-0.219,0.042-0.412,0.127-0.58
		s0.207-0.298,0.367-0.39s0.352-0.138,0.574-0.138c0.138,0,0.265,0.02,0.38,0.061s0.213,0.092,0.293,0.156s0.141,0.132,0.184,0.204
		s0.063,0.14,0.063,0.202c0,0.064-0.024,0.118-0.071,0.162s-0.105,0.066-0.173,0.066c-0.044,0-0.081-0.011-0.11-0.034
		s-0.062-0.06-0.099-0.11c-0.065-0.099-0.133-0.173-0.204-0.223s-0.161-0.074-0.271-0.074c-0.158,0-0.285,0.062-0.381,0.185
		s-0.145,0.292-0.145,0.505c0,0.1,0.012,0.192,0.037,0.276s0.061,0.156,0.107,0.215s0.104,0.104,0.17,0.135s0.139,0.046,0.219,0.046
		c0.107,0,0.198-0.025,0.274-0.074s0.144-0.125,0.202-0.227c0.033-0.06,0.068-0.107,0.105-0.141s0.084-0.051,0.139-0.051
		c0.065,0,0.119,0.025,0.162,0.074S26.64,2.789,26.64,2.845z"/>
	<path fill="#FFFFFF" d="M27.526,0.868v0.791c0.068-0.078,0.134-0.14,0.198-0.186s0.136-0.08,0.214-0.103s0.162-0.034,0.252-0.034
		c0.135,0,0.255,0.029,0.36,0.086s0.187,0.141,0.247,0.25c0.038,0.064,0.063,0.135,0.076,0.214s0.02,0.169,0.02,0.272v1.021
		c0,0.107-0.024,0.188-0.073,0.242s-0.114,0.082-0.194,0.082c-0.176,0-0.264-0.108-0.264-0.324v-0.9c0-0.17-0.025-0.302-0.076-0.394
		s-0.147-0.138-0.289-0.138c-0.095,0-0.181,0.027-0.257,0.081s-0.133,0.128-0.171,0.222c-0.029,0.08-0.043,0.221-0.043,0.424v0.705
		c0,0.105-0.024,0.186-0.071,0.241s-0.114,0.083-0.198,0.083c-0.176,0-0.264-0.108-0.264-0.324V0.868
		c0-0.108,0.023-0.189,0.069-0.243s0.111-0.081,0.194-0.081c0.084,0,0.151,0.027,0.198,0.082S27.526,0.761,27.526,0.868z"/>
	<path fill="#FFFFFF" d="M30.769,3.204c-0.129,0.1-0.253,0.175-0.374,0.226s-0.255,0.075-0.405,0.075
		c-0.137,0-0.257-0.027-0.36-0.081s-0.183-0.127-0.239-0.22s-0.084-0.193-0.084-0.301c0-0.146,0.046-0.27,0.139-0.373
		s0.219-0.172,0.381-0.207c0.034-0.008,0.118-0.025,0.252-0.053s0.249-0.052,0.345-0.075s0.2-0.05,0.312-0.083
		c-0.006-0.141-0.035-0.244-0.085-0.31s-0.154-0.099-0.312-0.099c-0.135,0-0.237,0.019-0.306,0.057s-0.127,0.094-0.176,0.17
		s-0.083,0.125-0.104,0.149s-0.063,0.036-0.13,0.036c-0.06,0-0.112-0.019-0.155-0.058s-0.065-0.087-0.065-0.147
		c0-0.094,0.033-0.185,0.1-0.273s0.17-0.162,0.311-0.219s0.316-0.086,0.525-0.086c0.234,0,0.418,0.028,0.553,0.083
		s0.229,0.143,0.284,0.263s0.083,0.279,0.083,0.477c0,0.125,0,0.231-0.001,0.318s-0.001,0.184-0.003,0.291
		c0,0.1,0.017,0.205,0.05,0.313s0.05,0.179,0.05,0.21c0,0.055-0.026,0.104-0.077,0.149s-0.11,0.067-0.175,0.067
		c-0.055,0-0.109-0.026-0.162-0.077S30.829,3.302,30.769,3.204z M30.733,2.433c-0.078,0.029-0.192,0.059-0.341,0.091
		s-0.252,0.055-0.31,0.07s-0.112,0.044-0.164,0.088s-0.078,0.104-0.078,0.183c0,0.081,0.031,0.149,0.092,0.206
		s0.141,0.085,0.24,0.085c0.105,0,0.203-0.023,0.292-0.069s0.155-0.106,0.196-0.179c0.048-0.081,0.072-0.213,0.072-0.398V2.433z"/>
	<path fill="#FFFFFF" d="M32.327,2.735v0.445c0,0.108-0.025,0.189-0.076,0.243s-0.115,0.081-0.193,0.081
		c-0.077,0-0.14-0.027-0.189-0.082s-0.074-0.135-0.074-0.242V1.696c0-0.24,0.086-0.359,0.26-0.359c0.088,0,0.152,0.028,0.191,0.084
		s0.061,0.139,0.064,0.248c0.064-0.109,0.129-0.192,0.196-0.248s0.157-0.084,0.269-0.084s0.221,0.028,0.326,0.084
		s0.158,0.13,0.158,0.223c0,0.065-0.022,0.119-0.067,0.161s-0.093,0.063-0.146,0.063c-0.02,0-0.067-0.012-0.142-0.036
		s-0.141-0.036-0.198-0.036c-0.078,0-0.142,0.021-0.191,0.062s-0.088,0.102-0.115,0.183s-0.046,0.177-0.057,0.288
		S32.327,2.575,32.327,2.735z"/>
	<path fill="#FFFFFF" d="M34.938,2.552h-1.043c0.001,0.121,0.026,0.228,0.073,0.32s0.111,0.162,0.189,0.209s0.166,0.07,0.261,0.07
		c0.064,0,0.122-0.007,0.175-0.022s0.104-0.039,0.153-0.07s0.095-0.066,0.137-0.103s0.096-0.086,0.162-0.148
		c0.027-0.023,0.066-0.035,0.117-0.035c0.055,0,0.099,0.015,0.133,0.045s0.051,0.072,0.051,0.127c0,0.048-0.019,0.104-0.057,0.169
		s-0.095,0.126-0.171,0.186s-0.172,0.108-0.287,0.147s-0.248,0.059-0.397,0.059c-0.342,0-0.609-0.098-0.799-0.293
		s-0.285-0.46-0.285-0.795c0-0.158,0.023-0.304,0.07-0.438s0.115-0.25,0.205-0.347s0.201-0.17,0.332-0.222s0.277-0.077,0.438-0.077
		c0.208,0,0.387,0.044,0.536,0.132s0.261,0.202,0.335,0.341s0.111,0.281,0.111,0.426c0,0.134-0.039,0.221-0.115,0.261
		S35.078,2.552,34.938,2.552z M33.896,2.249h0.967C34.849,2.067,34.8,1.93,34.715,1.84s-0.198-0.136-0.337-0.136
		c-0.133,0-0.242,0.046-0.327,0.138S33.914,2.069,33.896,2.249z"/>
	<path fill="#FFFFFF" d="M35.827,3.181V0.868c0-0.107,0.024-0.188,0.071-0.242s0.112-0.082,0.192-0.082s0.146,0.027,0.195,0.081
		S36.36,0.76,36.36,0.868v2.313c0,0.108-0.025,0.189-0.075,0.243s-0.115,0.081-0.194,0.081c-0.078,0-0.142-0.028-0.19-0.084
		S35.827,3.285,35.827,3.181z"/>
	<path fill="#FFFFFF" d="M38.259,3.204c-0.129,0.1-0.253,0.175-0.374,0.226s-0.255,0.075-0.405,0.075
		c-0.137,0-0.257-0.027-0.36-0.081s-0.183-0.127-0.239-0.22s-0.084-0.193-0.084-0.301c0-0.146,0.046-0.27,0.139-0.373
		s0.219-0.172,0.381-0.207c0.034-0.008,0.118-0.025,0.252-0.053s0.249-0.052,0.345-0.075s0.2-0.05,0.312-0.083
		c-0.006-0.141-0.035-0.244-0.085-0.31s-0.154-0.099-0.312-0.099c-0.135,0-0.237,0.019-0.306,0.057s-0.127,0.094-0.176,0.17
		s-0.083,0.125-0.104,0.149s-0.063,0.036-0.13,0.036c-0.06,0-0.112-0.019-0.155-0.058s-0.065-0.087-0.065-0.147
		c0-0.094,0.033-0.185,0.1-0.273s0.17-0.162,0.311-0.219s0.316-0.086,0.525-0.086c0.234,0,0.418,0.028,0.553,0.083
		s0.229,0.143,0.284,0.263s0.083,0.279,0.083,0.477c0,0.125,0,0.231-0.001,0.318s-0.001,0.184-0.003,0.291
		c0,0.1,0.017,0.205,0.05,0.313s0.05,0.179,0.05,0.21c0,0.055-0.026,0.104-0.077,0.149s-0.11,0.067-0.175,0.067
		c-0.055,0-0.109-0.026-0.162-0.077S38.319,3.302,38.259,3.204z M38.224,2.433c-0.078,0.029-0.192,0.059-0.341,0.091
		s-0.252,0.055-0.31,0.07s-0.112,0.044-0.164,0.088s-0.078,0.104-0.078,0.183c0,0.081,0.031,0.149,0.092,0.206
		s0.141,0.085,0.24,0.085c0.105,0,0.203-0.023,0.292-0.069s0.155-0.106,0.196-0.179c0.048-0.081,0.072-0.213,0.072-0.398V2.433z"/>
	<path fill="#FFFFFF" d="M40.749,3.2V3.147c-0.072,0.082-0.142,0.149-0.212,0.2s-0.145,0.09-0.227,0.117s-0.17,0.04-0.267,0.04
		c-0.127,0-0.246-0.027-0.354-0.081s-0.203-0.131-0.282-0.231s-0.14-0.218-0.181-0.354s-0.062-0.282-0.062-0.439
		c0-0.333,0.082-0.593,0.244-0.779s0.377-0.279,0.643-0.279c0.154,0,0.283,0.026,0.389,0.079s0.208,0.134,0.309,0.243V0.876
		c0-0.109,0.022-0.192,0.065-0.248s0.106-0.084,0.187-0.084s0.143,0.026,0.187,0.077s0.065,0.127,0.065,0.228V3.2
		c0,0.102-0.023,0.178-0.07,0.229s-0.107,0.076-0.182,0.076c-0.073,0-0.133-0.026-0.181-0.079S40.749,3.298,40.749,3.2z M39.7,2.417
		c0,0.145,0.022,0.268,0.067,0.369s0.106,0.178,0.185,0.229s0.164,0.077,0.256,0.077c0.094,0,0.179-0.024,0.257-0.073
		s0.139-0.124,0.186-0.225s0.069-0.227,0.069-0.378c0-0.142-0.023-0.264-0.069-0.366s-0.109-0.18-0.188-0.234
		s-0.165-0.081-0.259-0.081c-0.098,0-0.185,0.028-0.262,0.083s-0.136,0.135-0.179,0.238S39.7,2.28,39.7,2.417z"/>
	<path fill="#FFFFFF" d="M43.784,2.421c0,0.159-0.025,0.305-0.074,0.439s-0.121,0.25-0.215,0.346s-0.206,0.17-0.336,0.222
		s-0.277,0.077-0.439,0.077c-0.162,0-0.307-0.026-0.436-0.078S42.043,3.3,41.949,3.203s-0.166-0.211-0.215-0.344
		s-0.073-0.278-0.073-0.438c0-0.162,0.025-0.309,0.074-0.443s0.121-0.249,0.213-0.344s0.205-0.168,0.336-0.22
		s0.277-0.077,0.436-0.077c0.162,0,0.308,0.026,0.439,0.078s0.244,0.126,0.338,0.223s0.165,0.211,0.214,0.344
		S43.784,2.261,43.784,2.421z M43.249,2.421c0-0.217-0.048-0.387-0.144-0.508s-0.224-0.182-0.386-0.182
		c-0.104,0-0.196,0.027-0.275,0.081s-0.141,0.134-0.184,0.239s-0.064,0.229-0.064,0.369c0,0.139,0.021,0.261,0.063,0.365
		s0.103,0.184,0.182,0.239s0.171,0.083,0.278,0.083c0.162,0,0.29-0.061,0.386-0.183S43.249,2.636,43.249,2.421z"/>
	<path fill="#FFFFFF" d="M46.692,2.552h-1.043c0.001,0.121,0.026,0.228,0.073,0.32s0.111,0.162,0.189,0.209s0.166,0.07,0.261,0.07
		c0.064,0,0.122-0.007,0.175-0.022s0.104-0.039,0.153-0.07s0.095-0.066,0.137-0.103S46.733,2.87,46.8,2.808
		c0.027-0.023,0.066-0.035,0.117-0.035c0.055,0,0.099,0.015,0.133,0.045s0.051,0.072,0.051,0.127c0,0.048-0.019,0.104-0.057,0.169
		s-0.095,0.126-0.171,0.186s-0.172,0.108-0.287,0.147s-0.248,0.059-0.397,0.059c-0.342,0-0.609-0.098-0.799-0.293
		s-0.285-0.46-0.285-0.795c0-0.158,0.023-0.304,0.07-0.438s0.115-0.25,0.205-0.347s0.201-0.17,0.332-0.222s0.277-0.077,0.438-0.077
		c0.208,0,0.387,0.044,0.536,0.132s0.261,0.202,0.335,0.341s0.111,0.281,0.111,0.426c0,0.134-0.039,0.221-0.115,0.261
		S46.832,2.552,46.692,2.552z M45.649,2.249h0.967c-0.013-0.182-0.062-0.319-0.147-0.409s-0.198-0.136-0.337-0.136
		c-0.133,0-0.242,0.046-0.327,0.138S45.667,2.069,45.649,2.249z"/>
	<path fill="#FFFFFF" d="M49.354,2.46v0.709c0,0.112-0.025,0.196-0.076,0.252s-0.118,0.084-0.201,0.084
		c-0.081,0-0.146-0.028-0.196-0.084s-0.075-0.14-0.075-0.252v-0.85c0-0.134-0.004-0.238-0.014-0.313s-0.034-0.135-0.074-0.183
		s-0.104-0.071-0.191-0.071c-0.174,0-0.29,0.06-0.345,0.18s-0.083,0.292-0.083,0.516v0.721c0,0.111-0.025,0.194-0.075,0.251
		s-0.116,0.085-0.198,0.085c-0.081,0-0.147-0.028-0.198-0.085S47.55,3.28,47.55,3.169V1.644c0-0.1,0.023-0.176,0.069-0.229
		s0.107-0.078,0.183-0.078c0.073,0,0.134,0.024,0.183,0.073s0.073,0.116,0.073,0.202v0.051c0.092-0.111,0.191-0.192,0.297-0.244
		s0.223-0.078,0.352-0.078c0.134,0,0.25,0.027,0.346,0.08s0.176,0.134,0.238,0.242c0.09-0.109,0.186-0.19,0.289-0.243
		s0.217-0.079,0.342-0.079c0.146,0,0.271,0.029,0.377,0.086s0.184,0.139,0.236,0.246c0.045,0.096,0.068,0.248,0.068,0.455v1.041
		c0,0.112-0.025,0.196-0.076,0.252s-0.118,0.084-0.201,0.084c-0.081,0-0.147-0.028-0.198-0.085S50.05,3.28,50.05,3.169V2.272
		c0-0.115-0.005-0.207-0.015-0.275s-0.036-0.127-0.079-0.174s-0.108-0.07-0.195-0.07c-0.07,0-0.137,0.021-0.2,0.063
		s-0.112,0.098-0.147,0.168C49.374,2.073,49.354,2.232,49.354,2.46z"/>
</g>
<path fill-rule="evenodd" clip-rule="evenodd" fill="#FFFFFF" d="M5.179,4.886l0.535-0.453C5.79,4.363,5.82,4.356,5.895,4.286
	c0.196-0.184,0.47-0.464,0.741-0.535V3.113H6.43v0.357c-0.17,0.09-0.272,0.154-0.423,0.268C5.859,3.849,5.76,3.96,5.607,4.063
	l0.004-2.695C5.627,1.21,5.691,0.986,5.76,0.859c0.232-0.431,0.695-0.812,1.262-0.812h8.032c0.759,0,1.415,0.711,1.415,1.35v6.024
	c0,0.709-0.679,1.375-1.513,1.384c-0.963,0.011-1.934-0.001-2.898-0.001l0.667,0.65c0.132,0.132,0.199,0.193,0.344,0.314
	c0.12,0.101,0.234,0.231,0.347,0.344l0.675,0.642c0.355,0.374,0.331,0.509,0.034,0.509c-0.208,0-0.508-0.327-0.65-0.469
	c-0.191-0.191-0.358-0.392-0.568-0.552c-0.189-0.144-1.242-1.278-1.432-1.405c0,0.039-0.239-0.061-0.239,0.029
	c0.005,0.509,0.035,1.901-0.045,2.063c-0.037,0.282-0.312,0.236-0.319-0.016c-0.067-0.139-0.022-1.548-0.014-2.067
	c0.001-0.094-0.207-0.006-0.207-0.042c-0.14,0.093-1.359,1.32-1.716,1.634c-0.285,0.25-0.637,0.765-0.947,0.765
	c-0.315,0-0.361-0.128,0.055-0.488c0.107-0.093,0.183-0.17,0.286-0.274c0.102-0.101,0.179-0.178,0.28-0.28
	c0.049-0.049,0.08-0.085,0.133-0.13l1.274-1.228c-0.666,0-2.974,0.073-3.428-0.093C5.388,8.27,5.607,7.079,5.607,6.17
	c0.205-0.055,0.62-0.489,0.823-0.625v0.145h0.206V4.907L5.65,5.752C5.401,5.961,5.392,6.005,5.014,6.005
	c-0.295,0-0.44-0.211-0.663-0.39l-0.95-0.828c0,0.407,0.027,6.032-0.007,6.245c-0.099,0.615-0.972,0.708-1.246,0.235v-2.96h-0.14
	v2.879c-0.104,0.146-0.207,0.379-0.648,0.379c-0.442,0-0.662-0.376-0.659-0.789l0.001-2.6C0.459,8.062,0.321,8.035,0.165,7.662
	C-0.059,7.126,0.011,5.9,0.011,5.249c0-0.625,0.02-1.594,0.614-1.789c0.22-0.072,1.348-0.053,1.658-0.055
	c0.245-0.001,0.346,0.035,0.591,0.034C3.602,3.434,3.406,3.38,3.843,3.72c0.14,0.109,0.194,0.183,0.334,0.291l0.665,0.586
	C4.94,4.695,5.07,4.813,5.179,4.886L5.179,4.886z M6.852,3.741C7.099,3.776,7.187,3.96,7.187,4.195c0,0.057-0.006,0.107-0.019,0.152
	h0.565v0.216H7.041C6.985,4.622,6.918,4.671,6.852,4.724v0.965h0.88v0.216h-0.88v1.233h0.186v0.005h0.369h7.332h0.365V7.138h0.122
	V5.905h-0.792l-0.001-0.216h0.793V4.563h-0.8l-0.001-0.216h0.801V3.113h-0.809l0-0.035l-0.001-0.181h0.81V1.664h-1.233v1.041h-0.216
	V1.664h-1.233V1.96h-0.216V1.664h-0.97L11.105,1.52l-0.281,0.145H9.75V1.96H9.535V1.664H8.301v1.041H8.107H8.085V1.664H6.852v1.233
	h0.883l0,0.183v0.033H6.852V3.741L6.852,3.741z M10.984,7.98V7.354H9.75V7.98H10.984L10.984,7.98z M9.535,7.98V7.354H8.301V7.98
	H9.535L9.535,7.98z M8.085,7.98V7.354H6.852v0.591C6.927,7.968,7.017,7.98,7.121,7.98H8.085L8.085,7.98z M6.636,7.823V7.354H6.441
	C6.462,7.54,6.514,7.708,6.636,7.823L6.636,7.823z M6.43,7.138h0.206V5.905H6.43v1.187V7.138L6.43,7.138z M6.43,2.897h0.206V1.664
	H6.428L6.43,1.858V2.897L6.43,2.897z M6.434,1.448h0.202V1.032C6.593,1.074,6.557,1.12,6.528,1.167
	C6.47,1.261,6.444,1.349,6.434,1.448L6.434,1.448z M6.852,0.897v0.551h1.233V0.87H7.022C6.96,0.87,6.903,0.88,6.852,0.897
	L6.852,0.897z M8.301,0.87v0.578h1.233V0.87H8.301L8.301,0.87z M9.75,0.87v0.578h1.233V0.87H9.75L9.75,0.87z M11.2,0.87v0.578h1.126
	V0.87H11.2L11.2,0.87z M12.542,0.87v0.578h1.233V0.87H12.542L12.542,0.87z M13.991,0.87v0.578h1.233V0.896
	c-0.054-0.017-0.112-0.026-0.17-0.026H13.991L13.991,0.87z M15.44,1.019v0.429h0.206C15.642,1.28,15.563,1.126,15.44,1.019
	L15.44,1.019z M15.646,1.664H15.44v1.233h0.206V1.664L15.646,1.664z M15.646,3.113H15.44v1.233h0.206V3.113L15.646,3.113z
	 M15.646,4.563H15.44v1.126h0.206V4.563L15.646,4.563z M15.646,5.905H15.44v1.233h0.206V5.905L15.646,5.905z M15.646,7.354H15.44
	v0.458c0.107-0.098,0.206-0.234,0.206-0.424V7.354L15.646,7.354z M15.225,7.939V7.354h-1.233V7.98h0.964
	C15.056,7.98,15.146,7.966,15.225,7.939L15.225,7.939z M13.775,7.98V7.354h-1.233V7.98H13.775L13.775,7.98z M12.326,7.98V7.354H11.2
	V7.98H12.326L12.326,7.98z M3.072,2.286c0-0.262-0.143-0.54-0.272-0.683C2.75,1.548,2.606,1.446,2.536,1.407
	C2.292,1.273,2.204,1.298,1.92,1.298c-0.331,0-0.703,0.319-0.812,0.636C0.826,2.751,1.5,3.306,1.953,3.306H2.15
	C2.6,3.306,3.072,2.842,3.072,2.286L3.072,2.286z M12.647,5.689L9.501,5.684l0.004,0.172L9.614,5.86l2.918,0l0.106-0.003
	L12.647,5.689L12.647,5.689z M12.649,5.49l-0.006-1.734l-0.565-0.009l0.001,1.754L12.649,5.49L12.649,5.49z M10.356,3.734l0,1.773
	l0.494,0.004l0.017-1.778L10.356,3.734L10.356,3.734z M9.502,3.732v1.776L9.994,5.51l0.012-1.77L9.502,3.732L9.502,3.732z
	 M11.219,3.732L11.218,5.51h0.497l0-1.778H11.219L11.219,3.732z M10.952,2.631c-0.545,0.182-0.26,0.969,0.263,0.785
	C11.713,3.241,11.457,2.463,10.952,2.631L10.952,2.631z M9.251,2.335L9.237,3.08h-1.13L8.105,6.033h5.956L14.042,3.08h-1.135
	l-0.004-0.745h-1.053c-0.213-0.018-0.612-0.311-0.766-0.32l-0.761,0.32H9.251L9.251,2.335z M7.405,6.628l0.001,0.14h7.332
	l0.003-0.14l0-0.035l-7.335,0L7.405,6.628L7.405,6.628z M7.753,6.372l6.637,0.011l-0.002-0.166L7.76,6.208L7.753,6.372L7.753,6.372z
	 M9.045,3.74H8.542v0.503h0.503V3.74L9.045,3.74z M9.045,4.512H8.542v0.503h0.503V4.512L9.045,4.512z M13.688,3.74h-0.504v0.503
	h0.504V3.74L13.688,3.74z M13.688,4.512h-0.504v0.503h0.504V4.512z"/>
</svg>
