<?xml version="1.0" encoding="utf-8"?>
<!-- Generator: Adobe Illustrator 16.0.0, SVG Export Plug-In . SVG Version: 6.00 Build 0)  -->
<!DOCTYPE svg PUBLIC "-//W3C//DTD SVG 1.1//EN" "http://www.w3.org/Graphics/SVG/1.1/DTD/svg11.dtd" [
	<!ENTITY ns_flows "http://ns.adobe.com/Flows/1.0/">
	<!ENTITY ns_extend "http://ns.adobe.com/Extensibility/1.0/">
	<!ENTITY ns_ai "http://ns.adobe.com/AdobeIllustrator/10.0/">
	<!ENTITY ns_graphs "http://ns.adobe.com/Graphs/1.0/">
]>
<svg version="1.1" id="Camada_1" xmlns:x="&ns_extend;" xmlns:i="&ns_ai;" xmlns:graph="&ns_graphs;"
	 xmlns="http://www.w3.org/2000/svg" xmlns:xlink="http://www.w3.org/1999/xlink" xmlns:a="http://ns.adobe.com/AdobeSVGViewerExtensions/3.0/"
	 x="0px" y="0px" width="44.304px" height="12.862px" viewBox="0 0 44.304 12.862" enable-background="new 0 0 44.304 12.862"
	 xml:space="preserve">
<g>
	<path fill="#FFFFFF" d="M16.782,6.343h-2.285v1.465h1.91c0.177,0,0.309,0.04,0.396,0.119s0.131,0.186,0.131,0.318
		s-0.044,0.238-0.133,0.316s-0.22,0.117-0.395,0.117h-1.91v1.887c0,0.24-0.054,0.417-0.162,0.533s-0.247,0.174-0.416,0.174
		c-0.172,0-0.312-0.059-0.42-0.176s-0.162-0.294-0.162-0.531V6.159c0-0.167,0.025-0.303,0.074-0.408s0.127-0.182,0.232-0.23
		c0.105-0.048,0.24-0.072,0.404-0.072h2.734c0.185,0,0.322,0.041,0.412,0.123s0.135,0.189,0.135,0.322
		c0,0.136-0.045,0.244-0.135,0.326S16.967,6.343,16.782,6.343z"/>
	<path fill="#FFFFFF" d="M20.19,5.405h0.527c0.133,0,0.199,0.02,0.199,0.059c0,0.021-0.073,0.105-0.219,0.254
		s-0.293,0.291-0.441,0.426c-0.148,0.136-0.251,0.217-0.309,0.246c-0.148,0.076-0.307,0.113-0.477,0.113
		c-0.112,0-0.168-0.033-0.168-0.098c0-0.044,0.034-0.121,0.102-0.23l0.176-0.328c0.102-0.19,0.19-0.311,0.266-0.363
		C19.922,5.432,20.037,5.405,20.19,5.405z M20.374,7.542v3.082c0,0.213-0.051,0.375-0.152,0.484s-0.23,0.164-0.387,0.164
		s-0.283-0.056-0.381-0.168s-0.146-0.272-0.146-0.48V7.573c0-0.211,0.049-0.37,0.146-0.477s0.225-0.16,0.381-0.16
		s0.285,0.053,0.387,0.16S20.374,7.352,20.374,7.542z"/>
	<path fill="#FFFFFF" d="M26.099,9.878c0,0.294-0.071,0.546-0.215,0.756s-0.354,0.369-0.635,0.477s-0.62,0.162-1.021,0.162
		c-0.383,0-0.711-0.059-0.984-0.176s-0.475-0.264-0.605-0.439s-0.195-0.352-0.195-0.529c0-0.117,0.042-0.217,0.125-0.301
		s0.189-0.125,0.316-0.125c0.111,0,0.197,0.027,0.258,0.082c0.06,0.055,0.117,0.131,0.172,0.23c0.109,0.19,0.24,0.332,0.393,0.426
		s0.36,0.141,0.623,0.141c0.214,0,0.389-0.047,0.525-0.143s0.205-0.204,0.205-0.326c0-0.188-0.071-0.324-0.213-0.41
		s-0.376-0.168-0.701-0.246c-0.367-0.091-0.666-0.187-0.896-0.287s-0.414-0.232-0.553-0.396c-0.138-0.164-0.207-0.366-0.207-0.605
		c0-0.213,0.064-0.416,0.191-0.605c0.127-0.19,0.316-0.342,0.564-0.455c0.249-0.113,0.549-0.17,0.9-0.17
		c0.276,0,0.524,0.029,0.744,0.086s0.403,0.134,0.551,0.23s0.259,0.203,0.336,0.32s0.115,0.232,0.115,0.344
		c0,0.123-0.041,0.223-0.123,0.301s-0.198,0.117-0.35,0.117c-0.109,0-0.202-0.031-0.279-0.094s-0.165-0.156-0.264-0.281
		c-0.081-0.104-0.176-0.188-0.285-0.25s-0.258-0.094-0.445-0.094c-0.192,0-0.353,0.041-0.48,0.123s-0.191,0.184-0.191,0.307
		c0,0.112,0.047,0.204,0.141,0.275s0.22,0.131,0.379,0.178s0.378,0.104,0.656,0.172C24.98,8.751,25.25,8.848,25.46,8.96
		s0.368,0.244,0.477,0.396S26.099,9.683,26.099,9.878z"/>
	<path fill="#FFFFFF" d="M28.729,6.44c-0.148,0-0.275-0.045-0.381-0.137c-0.105-0.091-0.158-0.22-0.158-0.387
		c0-0.151,0.054-0.275,0.162-0.373s0.233-0.146,0.377-0.146c0.138,0,0.261,0.044,0.367,0.133c0.106,0.089,0.16,0.218,0.16,0.387
		c0,0.164-0.052,0.292-0.156,0.385S28.873,6.44,28.729,6.44z M29.257,7.542v3.082c0,0.213-0.051,0.375-0.152,0.484
		s-0.23,0.164-0.387,0.164s-0.283-0.056-0.381-0.168s-0.146-0.272-0.146-0.48V7.573c0-0.211,0.049-0.37,0.146-0.477
		s0.225-0.16,0.381-0.16s0.285,0.053,0.387,0.16S29.257,7.352,29.257,7.542z"/>
	<path fill="#FFFFFF" d="M35.372,9.952c0,0.133-0.04,0.275-0.119,0.426s-0.2,0.295-0.363,0.432s-0.368,0.247-0.615,0.33
		s-0.526,0.125-0.836,0.125c-0.659,0-1.173-0.192-1.543-0.576s-0.555-0.899-0.555-1.545c0-0.438,0.085-0.824,0.254-1.16
		s0.414-0.596,0.734-0.779s0.703-0.275,1.148-0.275c0.276,0,0.529,0.041,0.76,0.121s0.426,0.185,0.586,0.313
		s0.282,0.264,0.367,0.408s0.127,0.279,0.127,0.404c0,0.127-0.048,0.236-0.143,0.324s-0.21,0.133-0.346,0.133
		c-0.089,0-0.162-0.023-0.221-0.068s-0.124-0.119-0.197-0.221c-0.13-0.198-0.267-0.346-0.408-0.445s-0.322-0.148-0.541-0.148
		c-0.315,0-0.569,0.123-0.762,0.369s-0.289,0.583-0.289,1.01c0,0.201,0.024,0.385,0.074,0.553s0.121,0.311,0.215,0.43
		s0.207,0.208,0.34,0.27s0.278,0.092,0.438,0.092c0.214,0,0.396-0.049,0.549-0.148s0.287-0.25,0.404-0.453
		c0.065-0.12,0.136-0.213,0.211-0.281s0.168-0.102,0.277-0.102c0.13,0,0.238,0.049,0.324,0.148S35.372,9.84,35.372,9.952z"/>
	<path fill="#FFFFFF" d="M40.186,10.671c-0.258,0.201-0.507,0.351-0.748,0.451s-0.511,0.15-0.811,0.15
		c-0.273,0-0.514-0.054-0.721-0.162s-0.366-0.254-0.479-0.439s-0.168-0.385-0.168-0.602c0-0.292,0.093-0.541,0.277-0.746
		s0.438-0.344,0.762-0.414c0.067-0.016,0.235-0.051,0.504-0.105s0.498-0.105,0.689-0.15s0.399-0.101,0.623-0.166
		C40.103,8.206,40.046,8,39.945,7.868s-0.308-0.197-0.623-0.197c-0.271,0-0.475,0.038-0.611,0.113s-0.254,0.189-0.352,0.34
		s-0.167,0.25-0.207,0.299s-0.127,0.072-0.26,0.072c-0.12,0-0.224-0.039-0.311-0.115s-0.131-0.175-0.131-0.295
		c0-0.188,0.066-0.37,0.199-0.547s0.34-0.323,0.621-0.438s0.632-0.172,1.051-0.172c0.469,0,0.837,0.055,1.105,0.166
		s0.458,0.286,0.568,0.525s0.166,0.557,0.166,0.953c0,0.25-0.001,0.462-0.002,0.637s-0.003,0.369-0.006,0.582
		c0,0.201,0.033,0.41,0.1,0.627s0.1,0.357,0.1,0.42c0,0.109-0.052,0.209-0.154,0.299s-0.22,0.135-0.35,0.135
		c-0.109,0-0.218-0.051-0.324-0.154S40.306,10.866,40.186,10.671z M40.115,9.128c-0.156,0.057-0.384,0.118-0.682,0.182
		S38.929,9.42,38.814,9.45s-0.224,0.088-0.328,0.176S38.33,9.835,38.33,9.991c0,0.162,0.062,0.299,0.184,0.412s0.282,0.17,0.48,0.17
		c0.211,0,0.405-0.046,0.584-0.139s0.31-0.211,0.393-0.357c0.097-0.162,0.145-0.427,0.145-0.797V9.128z"/>
</g>
<g>
	<path fill="#FFFFFF" d="M13.999,1.6v2.084h1.176c0.094,0,0.166,0.023,0.216,0.068s0.075,0.103,0.075,0.172
		c0,0.07-0.025,0.127-0.074,0.171s-0.122,0.065-0.217,0.065h-1.4c-0.126,0-0.217-0.028-0.272-0.084s-0.083-0.146-0.083-0.271V1.6
		c0-0.117,0.026-0.205,0.079-0.264s0.122-0.088,0.208-0.088c0.087,0,0.158,0.029,0.212,0.087S13.999,1.481,13.999,1.6z"/>
	<path fill="#FFFFFF" d="M16.079,1.793c-0.074,0-0.138-0.023-0.19-0.068s-0.079-0.11-0.079-0.193c0-0.076,0.027-0.138,0.081-0.187
		s0.117-0.073,0.188-0.073c0.069,0,0.13,0.022,0.184,0.066s0.08,0.109,0.08,0.193c0,0.082-0.026,0.146-0.078,0.192
		S16.15,1.793,16.079,1.793z M16.342,2.344v1.541c0,0.107-0.025,0.188-0.076,0.242s-0.115,0.082-0.193,0.082
		s-0.142-0.028-0.19-0.084s-0.073-0.136-0.073-0.24V2.36c0-0.105,0.024-0.185,0.073-0.238s0.112-0.08,0.19-0.08
		s0.143,0.027,0.193,0.08S16.342,2.249,16.342,2.344z"/>
	<path fill="#FFFFFF" d="M18.805,3.549c0,0.066-0.02,0.137-0.06,0.213s-0.1,0.147-0.182,0.216s-0.184,0.124-0.308,0.165
		s-0.263,0.063-0.418,0.063c-0.33,0-0.586-0.096-0.771-0.288s-0.277-0.45-0.277-0.772c0-0.219,0.042-0.412,0.127-0.58
		s0.207-0.298,0.367-0.39s0.352-0.138,0.574-0.138c0.138,0,0.265,0.02,0.38,0.061s0.213,0.092,0.293,0.156s0.141,0.132,0.184,0.204
		s0.063,0.14,0.063,0.202c0,0.064-0.024,0.118-0.071,0.162s-0.105,0.066-0.173,0.066c-0.044,0-0.081-0.011-0.11-0.034
		s-0.062-0.06-0.099-0.11c-0.065-0.099-0.133-0.173-0.204-0.223s-0.161-0.074-0.271-0.074c-0.158,0-0.285,0.062-0.381,0.185
		s-0.145,0.292-0.145,0.505c0,0.1,0.012,0.192,0.037,0.276s0.061,0.156,0.107,0.215s0.104,0.104,0.17,0.135s0.139,0.046,0.219,0.046
		c0.107,0,0.198-0.025,0.274-0.074s0.144-0.125,0.202-0.227c0.033-0.06,0.068-0.107,0.105-0.141s0.084-0.051,0.139-0.051
		c0.065,0,0.119,0.025,0.162,0.074S18.805,3.493,18.805,3.549z"/>
	<path fill="#FFFFFF" d="M20.758,3.256h-1.043c0.001,0.121,0.026,0.228,0.073,0.32s0.111,0.162,0.189,0.209s0.166,0.07,0.261,0.07
		c0.064,0,0.122-0.007,0.175-0.022s0.104-0.039,0.153-0.07s0.095-0.066,0.137-0.103s0.096-0.086,0.162-0.148
		c0.027-0.023,0.066-0.035,0.117-0.035c0.055,0,0.099,0.015,0.133,0.045s0.051,0.072,0.051,0.127c0,0.048-0.019,0.104-0.057,0.169
		s-0.095,0.126-0.171,0.186s-0.172,0.108-0.287,0.147s-0.248,0.059-0.397,0.059c-0.342,0-0.609-0.098-0.799-0.293
		s-0.285-0.46-0.285-0.795c0-0.158,0.023-0.304,0.07-0.438s0.115-0.25,0.205-0.347s0.201-0.17,0.332-0.222s0.277-0.077,0.438-0.077
		c0.208,0,0.387,0.044,0.536,0.132s0.261,0.202,0.335,0.341s0.111,0.281,0.111,0.426c0,0.134-0.039,0.221-0.115,0.261
		S20.897,3.256,20.758,3.256z M19.715,2.954h0.967c-0.013-0.182-0.062-0.319-0.147-0.409s-0.198-0.136-0.337-0.136
		c-0.133,0-0.242,0.046-0.327,0.138S19.733,2.774,19.715,2.954z"/>
	<path fill="#FFFFFF" d="M22.131,2.336v0.064c0.094-0.124,0.196-0.214,0.308-0.272s0.239-0.087,0.384-0.087
		c0.141,0,0.266,0.031,0.377,0.092c0.11,0.061,0.193,0.148,0.248,0.26c0.035,0.065,0.057,0.135,0.068,0.211
		c0.01,0.076,0.016,0.172,0.016,0.289v0.992c0,0.107-0.025,0.188-0.074,0.242s-0.111,0.082-0.189,0.082
		c-0.08,0-0.145-0.028-0.193-0.084c-0.05-0.056-0.074-0.136-0.074-0.24V2.997c0-0.176-0.025-0.31-0.074-0.403
		s-0.146-0.14-0.292-0.14c-0.095,0-0.182,0.028-0.26,0.085s-0.135,0.134-0.172,0.233C22.178,2.852,22.165,3,22.165,3.217v0.668
		c0,0.108-0.025,0.189-0.075,0.243s-0.115,0.081-0.194,0.081c-0.077,0-0.14-0.028-0.189-0.084s-0.074-0.136-0.074-0.24V2.344
		c0-0.102,0.022-0.177,0.066-0.228s0.105-0.075,0.182-0.075c0.047,0,0.089,0.011,0.127,0.033s0.068,0.055,0.091,0.1
		S22.131,2.272,22.131,2.336z"/>
	<path fill="#FFFFFF" d="M25.976,3.549c0,0.066-0.02,0.137-0.06,0.213s-0.101,0.147-0.182,0.216s-0.184,0.124-0.308,0.165
		s-0.263,0.063-0.418,0.063c-0.329,0-0.587-0.096-0.771-0.288s-0.277-0.45-0.277-0.772c0-0.219,0.042-0.412,0.127-0.58
		s0.207-0.298,0.367-0.39s0.352-0.138,0.574-0.138c0.138,0,0.265,0.02,0.38,0.061s0.213,0.092,0.293,0.156s0.142,0.132,0.184,0.204
		s0.063,0.14,0.063,0.202c0,0.064-0.023,0.118-0.071,0.162s-0.105,0.066-0.173,0.066c-0.044,0-0.081-0.011-0.11-0.034
		s-0.063-0.06-0.099-0.11c-0.065-0.099-0.133-0.173-0.204-0.223s-0.161-0.074-0.271-0.074c-0.157,0-0.284,0.062-0.381,0.185
		s-0.145,0.292-0.145,0.505c0,0.1,0.013,0.192,0.037,0.276s0.061,0.156,0.107,0.215s0.104,0.104,0.17,0.135s0.14,0.046,0.219,0.046
		c0.106,0,0.198-0.025,0.274-0.074s0.144-0.125,0.202-0.227c0.032-0.06,0.067-0.107,0.105-0.141s0.084-0.051,0.139-0.051
		c0.065,0,0.119,0.025,0.162,0.074S25.976,3.493,25.976,3.549z"/>
	<path fill="#FFFFFF" d="M26.71,1.793c-0.074,0-0.138-0.023-0.19-0.068s-0.079-0.11-0.079-0.193c0-0.076,0.027-0.138,0.081-0.187
		s0.117-0.073,0.188-0.073c0.069,0,0.13,0.022,0.184,0.066s0.08,0.109,0.08,0.193c0,0.082-0.026,0.146-0.078,0.192
		S26.781,1.793,26.71,1.793z M26.974,2.344v1.541c0,0.107-0.025,0.188-0.076,0.242s-0.115,0.082-0.193,0.082
		s-0.142-0.028-0.19-0.084s-0.073-0.136-0.073-0.24V2.36c0-0.105,0.024-0.185,0.073-0.238s0.112-0.08,0.19-0.08
		s0.143,0.027,0.193,0.08S26.974,2.249,26.974,2.344z"/>
	<path fill="#FFFFFF" d="M28.872,3.909c-0.129,0.1-0.254,0.175-0.374,0.226s-0.256,0.075-0.405,0.075
		c-0.137,0-0.257-0.027-0.36-0.081s-0.184-0.127-0.239-0.22s-0.084-0.193-0.084-0.301c0-0.146,0.046-0.27,0.139-0.373
		s0.22-0.172,0.381-0.207c0.034-0.008,0.118-0.025,0.252-0.053S28.43,2.923,28.525,2.9s0.199-0.05,0.312-0.083
		c-0.007-0.141-0.035-0.244-0.085-0.31s-0.154-0.099-0.312-0.099c-0.136,0-0.237,0.019-0.306,0.057s-0.127,0.094-0.176,0.17
		s-0.083,0.125-0.104,0.149s-0.063,0.036-0.13,0.036c-0.06,0-0.111-0.019-0.155-0.058s-0.065-0.087-0.065-0.147
		c0-0.094,0.033-0.185,0.1-0.273s0.17-0.162,0.311-0.219s0.315-0.086,0.525-0.086c0.234,0,0.419,0.028,0.553,0.083
		s0.229,0.143,0.284,0.263S29.36,2.662,29.36,2.86c0,0.125,0,0.231-0.001,0.318s-0.002,0.184-0.003,0.291
		c0,0.1,0.017,0.205,0.05,0.313s0.05,0.179,0.05,0.21c0,0.055-0.025,0.104-0.077,0.149s-0.109,0.067-0.175,0.067
		c-0.055,0-0.108-0.026-0.162-0.077S28.932,4.006,28.872,3.909z M28.837,3.137c-0.078,0.029-0.191,0.059-0.341,0.091
		s-0.252,0.055-0.31,0.07s-0.112,0.044-0.164,0.088s-0.078,0.104-0.078,0.183c0,0.081,0.03,0.149,0.092,0.206
		s0.142,0.085,0.24,0.085c0.105,0,0.203-0.023,0.292-0.069s0.154-0.106,0.196-0.179c0.048-0.081,0.072-0.213,0.072-0.398V3.137z"/>
	<path fill="#FFFFFF" d="M29.831,2.088h0.059v-0.32c0-0.086,0.002-0.153,0.007-0.202s0.018-0.091,0.038-0.126
		c0.021-0.037,0.051-0.066,0.09-0.089s0.083-0.034,0.131-0.034c0.067,0,0.129,0.025,0.184,0.076c0.036,0.034,0.06,0.075,0.069,0.124
		s0.015,0.118,0.015,0.208v0.363h0.195c0.075,0,0.133,0.018,0.173,0.054s0.06,0.082,0.06,0.138c0,0.072-0.028,0.122-0.085,0.15
		s-0.138,0.043-0.243,0.043h-0.1v0.98c0,0.083,0.003,0.147,0.009,0.192s0.021,0.082,0.047,0.109s0.066,0.042,0.124,0.042
		c0.031,0,0.073-0.005,0.127-0.017s0.095-0.017,0.125-0.017c0.043,0,0.082,0.017,0.116,0.052s0.052,0.077,0.052,0.128
		c0,0.086-0.047,0.152-0.141,0.197s-0.229,0.068-0.404,0.068c-0.167,0-0.293-0.028-0.379-0.084s-0.143-0.133-0.169-0.232
		s-0.04-0.231-0.04-0.396V2.473h-0.07c-0.077,0-0.136-0.018-0.176-0.055s-0.061-0.083-0.061-0.139s0.021-0.102,0.063-0.138
		S29.75,2.088,29.831,2.088z"/>
	<path fill="#FFFFFF" d="M32.603,3.909V3.84c-0.063,0.081-0.131,0.148-0.201,0.203s-0.147,0.095-0.23,0.122s-0.179,0.04-0.285,0.04
		c-0.129,0-0.244-0.027-0.347-0.08s-0.182-0.127-0.237-0.221c-0.066-0.113-0.1-0.276-0.1-0.488V2.36
		c0-0.107,0.024-0.187,0.072-0.239s0.112-0.079,0.191-0.079c0.081,0,0.146,0.027,0.195,0.08s0.074,0.133,0.074,0.238v0.854
		c0,0.124,0.011,0.228,0.031,0.312s0.059,0.15,0.112,0.197s0.127,0.071,0.22,0.071c0.09,0,0.175-0.027,0.254-0.08
		s0.138-0.123,0.174-0.209c0.03-0.076,0.045-0.241,0.045-0.496V2.36c0-0.105,0.024-0.185,0.074-0.238s0.114-0.08,0.193-0.08
		s0.144,0.026,0.191,0.079s0.072,0.132,0.072,0.239v1.545c0,0.102-0.023,0.178-0.069,0.229s-0.105,0.076-0.179,0.076
		s-0.133-0.026-0.181-0.079S32.603,4.004,32.603,3.909z"/>
	<path fill="#FFFFFF" d="M34.163,3.44v0.445c0,0.108-0.025,0.189-0.076,0.243s-0.115,0.081-0.193,0.081
		c-0.077,0-0.14-0.027-0.189-0.082S33.63,3.992,33.63,3.885V2.401c0-0.24,0.087-0.359,0.26-0.359c0.089,0,0.152,0.028,0.191,0.084
		s0.061,0.139,0.064,0.248c0.063-0.109,0.129-0.192,0.196-0.248s0.156-0.084,0.269-0.084s0.221,0.028,0.326,0.084
		s0.158,0.13,0.158,0.223c0,0.065-0.022,0.119-0.067,0.161s-0.094,0.063-0.146,0.063c-0.02,0-0.066-0.012-0.142-0.036
		S34.6,2.5,34.542,2.5c-0.078,0-0.142,0.021-0.191,0.062s-0.088,0.102-0.115,0.183s-0.046,0.177-0.057,0.288
		S34.163,3.28,34.163,3.44z"/>
	<path fill="#FFFFFF" d="M36.634,3.909c-0.129,0.1-0.254,0.175-0.374,0.226s-0.256,0.075-0.405,0.075
		c-0.137,0-0.257-0.027-0.36-0.081s-0.184-0.127-0.239-0.22s-0.084-0.193-0.084-0.301c0-0.146,0.046-0.27,0.139-0.373
		s0.22-0.172,0.381-0.207c0.034-0.008,0.118-0.025,0.252-0.053s0.249-0.052,0.345-0.075s0.199-0.05,0.312-0.083
		c-0.007-0.141-0.035-0.244-0.085-0.31s-0.154-0.099-0.312-0.099c-0.136,0-0.237,0.019-0.306,0.057s-0.127,0.094-0.176,0.17
		s-0.083,0.125-0.104,0.149s-0.063,0.036-0.13,0.036c-0.06,0-0.111-0.019-0.155-0.058s-0.065-0.087-0.065-0.147
		c0-0.094,0.033-0.185,0.1-0.273s0.17-0.162,0.311-0.219s0.315-0.086,0.525-0.086c0.234,0,0.419,0.028,0.553,0.083
		s0.229,0.143,0.284,0.263s0.083,0.279,0.083,0.477c0,0.125,0,0.231-0.001,0.318s-0.002,0.184-0.003,0.291
		c0,0.1,0.017,0.205,0.05,0.313s0.05,0.179,0.05,0.21c0,0.055-0.025,0.104-0.077,0.149s-0.109,0.067-0.175,0.067
		c-0.055,0-0.108-0.026-0.162-0.077S36.693,4.006,36.634,3.909z M36.599,3.137c-0.078,0.029-0.191,0.059-0.341,0.091
		s-0.252,0.055-0.31,0.07s-0.112,0.044-0.164,0.088s-0.078,0.104-0.078,0.183c0,0.081,0.03,0.149,0.092,0.206
		s0.142,0.085,0.24,0.085c0.105,0,0.203-0.023,0.292-0.069s0.154-0.106,0.196-0.179c0.048-0.081,0.072-0.213,0.072-0.398V3.137z"/>
	<path fill="#FFFFFF" d="M40.151,3.256h-1.043c0.001,0.121,0.025,0.228,0.073,0.32s0.11,0.162,0.189,0.209s0.166,0.07,0.261,0.07
		c0.063,0,0.122-0.007,0.175-0.022s0.104-0.039,0.153-0.07s0.095-0.066,0.137-0.103s0.096-0.086,0.162-0.148
		c0.027-0.023,0.066-0.035,0.117-0.035c0.055,0,0.099,0.015,0.133,0.045s0.051,0.072,0.051,0.127c0,0.048-0.019,0.104-0.057,0.169
		s-0.095,0.126-0.171,0.186s-0.172,0.108-0.287,0.147s-0.248,0.059-0.397,0.059c-0.343,0-0.608-0.098-0.799-0.293
		s-0.285-0.46-0.285-0.795c0-0.158,0.023-0.304,0.07-0.438s0.115-0.25,0.205-0.347s0.2-0.17,0.332-0.222s0.277-0.077,0.438-0.077
		c0.208,0,0.387,0.044,0.536,0.132s0.261,0.202,0.335,0.341s0.111,0.281,0.111,0.426c0,0.134-0.038,0.221-0.115,0.261
		S40.291,3.256,40.151,3.256z M39.108,2.954h0.967c-0.013-0.182-0.063-0.319-0.147-0.409s-0.197-0.136-0.337-0.136
		c-0.133,0-0.242,0.046-0.327,0.138S39.127,2.774,39.108,2.954z"/>
	<path fill="#FFFFFF" d="M42.813,3.165v0.709c0,0.112-0.025,0.196-0.076,0.252s-0.118,0.084-0.201,0.084
		c-0.081,0-0.146-0.028-0.196-0.084s-0.075-0.14-0.075-0.252v-0.85c0-0.134-0.005-0.238-0.014-0.313s-0.034-0.135-0.074-0.183
		s-0.104-0.071-0.191-0.071c-0.175,0-0.289,0.06-0.345,0.18s-0.083,0.292-0.083,0.516v0.721c0,0.111-0.025,0.194-0.075,0.251
		s-0.116,0.085-0.198,0.085c-0.081,0-0.146-0.028-0.198-0.085s-0.077-0.14-0.077-0.251V2.348c0-0.1,0.023-0.176,0.069-0.229
		s0.107-0.078,0.183-0.078c0.073,0,0.134,0.024,0.183,0.073s0.073,0.116,0.073,0.202v0.051c0.093-0.111,0.191-0.192,0.297-0.244
		s0.223-0.078,0.352-0.078c0.134,0,0.249,0.027,0.346,0.08s0.176,0.134,0.238,0.242c0.09-0.109,0.187-0.19,0.289-0.243
		s0.217-0.079,0.342-0.079c0.146,0,0.271,0.029,0.377,0.086s0.185,0.139,0.236,0.246c0.046,0.096,0.068,0.248,0.068,0.455v1.041
		c0,0.112-0.025,0.196-0.076,0.252s-0.118,0.084-0.201,0.084c-0.081,0-0.146-0.028-0.198-0.085s-0.077-0.14-0.077-0.251V2.977
		c0-0.115-0.005-0.207-0.015-0.275s-0.036-0.127-0.079-0.174s-0.108-0.07-0.195-0.07c-0.07,0-0.137,0.021-0.2,0.063
		s-0.112,0.098-0.147,0.168C42.833,2.778,42.813,2.937,42.813,3.165z"/>
</g>
<path fill-rule="evenodd" clip-rule="evenodd" fill="#FFFFFF" d="M3.488,9.537L4.32,9.193c1.023-0.448,0.416-0.496,1.551,0.008
	c0.176,0.08,0.719,0.255,0.823,0.335c-0.224,0.648-0.823,1.599-1.591,1.623C4.32,11.176,3.697,10.193,3.488,9.537L3.488,9.537
	L3.488,9.537z M1.562,6.06c0.168,0.2,0.4,0.4,0.583,0.583c0.439,0.44,0.336,0.28,0.392,0.76c0.088,0.711,0.232,1.255,0.44,1.871
	c-0.919,0.352-2.47,0.424-2.574-0.679C0.315,7.714,1.17,6.475,1.562,6.06L1.562,6.06L1.562,6.06z M7.198,9.29
	c0.128-0.68,0.296-0.848,0.416-1.895c0.072-0.567,0.056-0.439,0.392-0.735c0.112-0.104,0.192-0.184,0.296-0.288
	C8.405,6.26,8.477,6.148,8.597,6.076c0.448,0.399,2.215,3.046,0.224,3.397C8.246,9.569,7.709,9.401,7.198,9.29L7.198,9.29
	L7.198,9.29z M2.913,7.354L2.913,7.354c0.024,0.368,0.264,1.599,0.448,1.807c0.288-0.08,1.103-0.4,1.303-0.567
	c-0.08-0.088-0.735-0.496-0.887-0.608L2.913,7.354L2.913,7.354z M6.814,9.169c0.192-0.224,0.424-1.471,0.432-1.838
	C7.118,7.395,6.95,7.555,6.822,7.659L5.511,8.57C5.503,8.562,5.495,8.586,5.487,8.594C5.687,8.762,6.511,9.082,6.814,9.169
	L6.814,9.169z M2.809,6.012L2.809,6.012c0,0.176,0.016,0.376,0.024,0.56c0.016,0.312,0.008,0.248,0.192,0.392
	c0.6,0.464,1.367,1.08,2.039,1.423c0.439-0.16,1.687-1.151,2.103-1.471C7.35,6.779,7.318,6.763,7.342,6.507L7.366,5.54
	c0-0.552,0.032-0.735-0.232-0.943C6.822,4.349,5.279,3.15,5.063,3.166C4.839,3.174,3.281,4.381,3.009,4.605
	c-0.176,0.144-0.16,0.088-0.176,0.391L2.809,6.012L2.809,6.012z M7.717,6.411c0.144-0.08,0.544-0.495,0.632-0.671
	c-0.208-0.12-0.4-0.456-0.632-0.6l0.008,0.4v0.432L7.717,6.411L7.717,6.411z M2.449,5.116C2.305,5.228,1.897,5.628,1.81,5.788
	c0.144,0.168,0.456,0.52,0.647,0.639L2.449,5.116L2.449,5.116z M2.913,4.189c0.04-0.696,0.256-1.223,0.4-1.823
	c0.263,0.056,1.231,0.448,1.351,0.592L3.329,3.877C3.201,3.973,3.041,4.133,2.913,4.189L2.913,4.189z M5.455,2.966
	c0.008,0,0.016-0.016,0.024-0.016c0.144-0.136,0.463-0.256,0.631-0.328C6.358,2.51,6.566,2.43,6.814,2.35
	C6.99,2.55,7.23,3.829,7.262,4.205L6.367,3.549C6.071,3.35,5.767,3.125,5.455,2.966L5.455,2.966z M7.214,2.238
	c0.927-0.264,2.438-0.456,2.542,0.72c0.072,0.815-0.792,2.174-1.16,2.518L8.021,4.908C7.669,4.573,7.709,4.772,7.63,4.141
	C7.55,3.549,7.214,2.262,7.214,2.238L7.214,2.238L7.214,2.238z M1.522,5.476c-0.28-0.503-1.263-1.527-1.135-2.55
	c0.168-1.367,2.334-0.808,2.566-0.664C2.905,2.526,2.769,2.87,2.705,3.174C2.361,4.708,2.769,4.293,2.113,4.917
	C1.97,5.052,1.69,5.404,1.522,5.476L1.522,5.476L1.522,5.476z M3.48,2.015L3.48,2.015c0.16,0.104,0.607,0.231,0.815,0.328
	c1.08,0.496,0.52,0.464,1.543,0.008c0.28-0.128,0.56-0.24,0.855-0.344C6.526,1.415,5.895,0.384,5.104,0.368S3.688,1.351,3.48,2.015
	L3.48,2.015z M3.104,1.887C2.841,1.871,2.481,1.75,2.209,1.71C1.322,1.583,0.243,1.719,0.027,2.75
	c-0.16,0.783,0.416,1.823,0.839,2.415C0.962,5.3,1.274,5.684,1.314,5.796C0.882,6.268-0.189,7.787,0.043,8.818
	c0.08,0.344,0.24,0.488,0.424,0.664c0.719,0.711,2.11,0.208,2.638,0.152c0.272,0.328,0.688,1.895,1.999,1.887
	c0.823,0,1.311-0.671,1.639-1.255c0.104-0.184,0.192-0.439,0.328-0.616c0.271,0.008,0.615,0.128,0.911,0.176
	c0.863,0.128,1.887-0.056,2.118-1.04c0.28-1.223-1.167-2.798-1.255-3.03C9.269,5.204,10.324,3.837,10.1,2.75
	C9.988,2.207,9.564,1.831,9.005,1.719C8.181,1.551,7.502,1.854,7.07,1.878c-0.2-0.28-0.288-0.703-0.728-1.215
	C6.071,0.36,5.711,0,5.063,0C3.785,0,3.369,1.551,3.104,1.887L3.104,1.887L3.104,1.887z M4.872,4.957
	c1.143-0.296,1.527,1.359,0.432,1.615C4.192,6.835,3.712,5.252,4.872,4.957z"/>
</svg>
