<?xml version="1.0" encoding="utf-8"?>
<!-- Generator: Adobe Illustrator 16.0.0, SVG Export Plug-In . SVG Version: 6.00 Build 0)  -->
<!DOCTYPE svg PUBLIC "-//W3C//DTD SVG 1.1//EN" "http://www.w3.org/Graphics/SVG/1.1/DTD/svg11.dtd" [
	<!ENTITY ns_flows "http://ns.adobe.com/Flows/1.0/">
	<!ENTITY ns_extend "http://ns.adobe.com/Extensibility/1.0/">
	<!ENTITY ns_ai "http://ns.adobe.com/AdobeIllustrator/10.0/">
	<!ENTITY ns_graphs "http://ns.adobe.com/Graphs/1.0/">
]>
<svg version="1.1" id="Camada_1" xmlns:x="&ns_extend;" xmlns:i="&ns_ai;" xmlns:graph="&ns_graphs;"
	 xmlns="http://www.w3.org/2000/svg" xmlns:xlink="http://www.w3.org/1999/xlink" xmlns:a="http://ns.adobe.com/AdobeSVGViewerExtensions/3.0/"
	 x="0px" y="0px" width="77.215px" height="13.053px" viewBox="0 0 77.215 13.053" enable-background="new 0 0 77.215 13.053"
	 xml:space="preserve">
<g>
	<path fill="#FFFFFF" d="M16.075,6.244v4.168h2.352c0.188,0,0.332,0.045,0.432,0.137s0.15,0.206,0.15,0.344
		c0,0.141-0.049,0.254-0.148,0.342s-0.244,0.131-0.434,0.131h-2.801c-0.252,0-0.434-0.056-0.545-0.168s-0.166-0.293-0.166-0.543
		v-4.41c0-0.234,0.053-0.41,0.158-0.527s0.244-0.176,0.416-0.176c0.174,0,0.316,0.058,0.424,0.174
		C16.021,5.831,16.075,6.007,16.075,6.244z"/>
	<path fill="#FFFFFF" d="M22.673,9.557h-2.086c0.002,0.242,0.051,0.456,0.146,0.641s0.221,0.324,0.379,0.418
		s0.332,0.141,0.521,0.141c0.127,0,0.244-0.015,0.35-0.045s0.208-0.077,0.307-0.141s0.19-0.132,0.273-0.205s0.191-0.172,0.324-0.297
		c0.055-0.047,0.133-0.07,0.234-0.07c0.109,0,0.198,0.03,0.266,0.09s0.102,0.145,0.102,0.254c0,0.096-0.038,0.209-0.113,0.338
		s-0.189,0.252-0.342,0.371s-0.344,0.217-0.574,0.295s-0.496,0.117-0.795,0.117c-0.685,0-1.217-0.195-1.598-0.586
		s-0.57-0.92-0.57-1.59c0-0.315,0.047-0.607,0.141-0.877s0.23-0.5,0.41-0.693s0.401-0.34,0.664-0.443s0.555-0.154,0.875-0.154
		c0.417,0,0.774,0.088,1.072,0.264s0.521,0.403,0.67,0.682s0.223,0.563,0.223,0.852c0,0.268-0.077,0.442-0.23,0.521
		S22.952,9.557,22.673,9.557z M20.587,8.951h1.934c-0.026-0.365-0.125-0.637-0.295-0.818s-0.395-0.271-0.674-0.271
		c-0.266,0-0.484,0.092-0.654,0.275S20.624,8.592,20.587,8.951z"/>
	<path fill="#FFFFFF" d="M24.509,7.221h0.117V6.58c0-0.172,0.004-0.307,0.014-0.404s0.035-0.182,0.076-0.252
		c0.042-0.073,0.102-0.132,0.18-0.178c0.078-0.045,0.166-0.068,0.262-0.068c0.135,0,0.258,0.051,0.367,0.152
		c0.073,0.068,0.119,0.15,0.139,0.248s0.029,0.236,0.029,0.416v0.727h0.391c0.151,0,0.266,0.036,0.346,0.107
		s0.119,0.164,0.119,0.275c0,0.143-0.057,0.244-0.17,0.301S26.103,7.99,25.892,7.99h-0.199v1.961c0,0.167,0.006,0.295,0.018,0.385
		s0.043,0.163,0.094,0.219s0.133,0.084,0.248,0.084c0.063,0,0.147-0.011,0.254-0.033s0.19-0.033,0.25-0.033
		c0.086,0,0.164,0.035,0.232,0.104s0.104,0.154,0.104,0.256c0,0.172-0.094,0.303-0.281,0.395s-0.457,0.137-0.809,0.137
		c-0.333,0-0.586-0.056-0.758-0.168s-0.285-0.267-0.338-0.465s-0.08-0.462-0.08-0.793V7.99h-0.141c-0.154,0-0.271-0.037-0.352-0.109
		s-0.121-0.166-0.121-0.277S24.055,7.4,24.14,7.328S24.347,7.221,24.509,7.221z"/>
	<path fill="#FFFFFF" d="M28.341,9.924v0.891c0,0.216-0.051,0.378-0.152,0.486s-0.23,0.162-0.387,0.162
		c-0.154,0-0.28-0.055-0.379-0.164s-0.148-0.271-0.148-0.484V7.846c0-0.479,0.173-0.719,0.52-0.719c0.177,0,0.305,0.056,0.383,0.168
		s0.121,0.277,0.129,0.496c0.127-0.219,0.258-0.384,0.393-0.496s0.313-0.168,0.537-0.168s0.441,0.056,0.652,0.168
		s0.316,0.26,0.316,0.445c0,0.13-0.045,0.238-0.135,0.322s-0.187,0.127-0.291,0.127c-0.039,0-0.133-0.024-0.283-0.072
		s-0.282-0.072-0.396-0.072c-0.156,0-0.284,0.041-0.383,0.123s-0.176,0.204-0.23,0.365s-0.092,0.354-0.113,0.576
		S28.341,9.604,28.341,9.924z"/>
	<path fill="#FFFFFF" d="M33.282,10.861c-0.258,0.201-0.507,0.351-0.748,0.451s-0.511,0.15-0.811,0.15
		c-0.273,0-0.514-0.054-0.721-0.162s-0.367-0.254-0.479-0.439s-0.168-0.385-0.168-0.602c0-0.292,0.092-0.541,0.277-0.746
		S31.073,9.17,31.396,9.1c0.068-0.016,0.236-0.051,0.504-0.105s0.498-0.105,0.689-0.15s0.399-0.101,0.623-0.166
		c-0.013-0.281-0.07-0.488-0.17-0.619s-0.308-0.197-0.623-0.197c-0.271,0-0.475,0.038-0.611,0.113s-0.254,0.189-0.352,0.34
		s-0.167,0.25-0.207,0.299s-0.127,0.072-0.26,0.072c-0.12,0-0.223-0.039-0.311-0.115s-0.131-0.175-0.131-0.295
		c0-0.188,0.066-0.37,0.199-0.547s0.34-0.323,0.621-0.438S32,7.119,32.419,7.119c0.469,0,0.837,0.055,1.105,0.166
		s0.458,0.286,0.568,0.525s0.166,0.557,0.166,0.953c0,0.25,0,0.462-0.002,0.637s-0.003,0.369-0.006,0.582
		c0,0.201,0.033,0.41,0.1,0.627s0.1,0.357,0.1,0.42c0,0.109-0.051,0.209-0.154,0.299s-0.219,0.135-0.35,0.135
		c-0.109,0-0.217-0.051-0.324-0.154S33.402,11.057,33.282,10.861z M33.212,9.318C33.056,9.375,32.829,9.436,32.53,9.5
		s-0.504,0.111-0.619,0.141s-0.224,0.088-0.328,0.176s-0.156,0.209-0.156,0.365c0,0.162,0.061,0.299,0.184,0.412
		s0.283,0.17,0.48,0.17c0.211,0,0.406-0.046,0.584-0.139s0.309-0.211,0.393-0.357c0.096-0.162,0.145-0.427,0.145-0.797V9.318z"/>
	<path fill="#FFFFFF" d="M38.774,10.068c0,0.294-0.072,0.546-0.215,0.756s-0.355,0.369-0.635,0.477s-0.621,0.162-1.021,0.162
		c-0.383,0-0.711-0.059-0.984-0.176s-0.475-0.264-0.605-0.439s-0.195-0.352-0.195-0.529c0-0.117,0.042-0.217,0.125-0.301
		s0.189-0.125,0.316-0.125c0.112,0,0.198,0.027,0.258,0.082s0.117,0.131,0.172,0.23c0.109,0.19,0.24,0.332,0.393,0.426
		s0.36,0.141,0.623,0.141c0.213,0,0.389-0.047,0.525-0.143s0.205-0.204,0.205-0.326c0-0.188-0.071-0.324-0.213-0.41
		s-0.375-0.168-0.701-0.246c-0.367-0.091-0.666-0.187-0.896-0.287s-0.415-0.232-0.553-0.396s-0.207-0.366-0.207-0.605
		c0-0.213,0.064-0.416,0.191-0.605s0.316-0.342,0.564-0.455s0.549-0.17,0.9-0.17c0.276,0,0.524,0.029,0.744,0.086
		s0.404,0.134,0.551,0.23s0.259,0.203,0.336,0.32s0.115,0.232,0.115,0.344c0,0.123-0.041,0.223-0.123,0.301s-0.199,0.117-0.35,0.117
		c-0.109,0-0.203-0.031-0.279-0.094S37.65,8.275,37.551,8.15c-0.081-0.104-0.176-0.188-0.285-0.25s-0.258-0.094-0.445-0.094
		c-0.193,0-0.353,0.041-0.48,0.123s-0.191,0.184-0.191,0.307c0,0.112,0.047,0.204,0.141,0.275s0.22,0.131,0.379,0.178
		s0.377,0.104,0.656,0.172c0.331,0.081,0.601,0.177,0.811,0.289s0.369,0.244,0.477,0.396C38.72,9.699,38.774,9.873,38.774,10.068z"
		/>
	<path fill="#FFFFFF" d="M45.524,6.533h-2.613v1.406h2.406c0.177,0,0.31,0.04,0.396,0.119s0.131,0.184,0.131,0.314
		s-0.043,0.236-0.129,0.318s-0.219,0.123-0.398,0.123h-2.406v1.629h2.703c0.183,0,0.319,0.042,0.412,0.127s0.139,0.197,0.139,0.338
		c0,0.135-0.046,0.246-0.139,0.33s-0.229,0.127-0.412,0.127h-3.152c-0.253,0-0.435-0.056-0.545-0.168s-0.166-0.293-0.166-0.543V6.35
		c0-0.167,0.024-0.303,0.074-0.408s0.127-0.182,0.232-0.23c0.105-0.048,0.24-0.072,0.404-0.072h3.063
		c0.185,0,0.322,0.041,0.412,0.123s0.135,0.189,0.135,0.322c0,0.136-0.045,0.244-0.135,0.326S45.709,6.533,45.524,6.533z"/>
	<path fill="#FFFFFF" d="M50.446,10.068c0,0.294-0.071,0.546-0.215,0.756s-0.354,0.369-0.635,0.477s-0.62,0.162-1.021,0.162
		c-0.383,0-0.711-0.059-0.984-0.176s-0.476-0.264-0.605-0.439s-0.195-0.352-0.195-0.529c0-0.117,0.042-0.217,0.125-0.301
		s0.188-0.125,0.316-0.125c0.112,0,0.198,0.027,0.258,0.082s0.117,0.131,0.172,0.23c0.109,0.19,0.24,0.332,0.393,0.426
		s0.36,0.141,0.623,0.141c0.214,0,0.389-0.047,0.525-0.143s0.205-0.204,0.205-0.326c0-0.188-0.071-0.324-0.213-0.41
		s-0.376-0.168-0.701-0.246c-0.367-0.091-0.666-0.187-0.896-0.287s-0.415-0.232-0.553-0.396s-0.207-0.366-0.207-0.605
		c0-0.213,0.063-0.416,0.191-0.605s0.315-0.342,0.564-0.455s0.549-0.17,0.9-0.17c0.276,0,0.524,0.029,0.744,0.086
		s0.403,0.134,0.551,0.23s0.259,0.203,0.336,0.32s0.115,0.232,0.115,0.344c0,0.123-0.041,0.223-0.123,0.301s-0.198,0.117-0.35,0.117
		c-0.109,0-0.202-0.031-0.279-0.094s-0.165-0.156-0.264-0.281c-0.081-0.104-0.176-0.188-0.285-0.25s-0.258-0.094-0.445-0.094
		c-0.192,0-0.353,0.041-0.48,0.123s-0.191,0.184-0.191,0.307c0,0.112,0.047,0.204,0.141,0.275s0.22,0.131,0.379,0.178
		s0.378,0.104,0.656,0.172c0.331,0.081,0.601,0.177,0.811,0.289s0.368,0.244,0.477,0.396S50.446,9.873,50.446,10.068z"/>
	<path fill="#FFFFFF" d="M52.332,7.725v0.129c0.2-0.248,0.409-0.429,0.625-0.545s0.461-0.174,0.734-0.174
		c0.328,0,0.63,0.084,0.906,0.254s0.494,0.417,0.654,0.742s0.24,0.711,0.24,1.156c0,0.328-0.046,0.629-0.139,0.904
		s-0.22,0.505-0.381,0.691s-0.353,0.33-0.572,0.43s-0.456,0.15-0.709,0.15c-0.305,0-0.561-0.061-0.768-0.184
		s-0.404-0.302-0.592-0.539v1.602c0,0.469-0.171,0.703-0.512,0.703c-0.2,0-0.333-0.061-0.398-0.182s-0.098-0.297-0.098-0.529V7.732
		c0-0.203,0.044-0.355,0.133-0.455s0.21-0.15,0.363-0.15c0.151,0,0.274,0.051,0.369,0.154S52.332,7.532,52.332,7.725z M54.422,9.275
		c0-0.281-0.043-0.523-0.129-0.725s-0.205-0.357-0.357-0.465s-0.321-0.162-0.506-0.162c-0.294,0-0.542,0.116-0.744,0.348
		s-0.303,0.573-0.303,1.023c0,0.424,0.101,0.754,0.301,0.99s0.449,0.354,0.746,0.354c0.177,0,0.341-0.051,0.492-0.154
		s0.272-0.257,0.363-0.463S54.422,9.567,54.422,9.275z"/>
	<path fill="#FFFFFF" d="M59.043,10.861c-0.258,0.201-0.507,0.351-0.748,0.451s-0.511,0.15-0.811,0.15
		c-0.273,0-0.514-0.054-0.721-0.162s-0.366-0.254-0.479-0.439s-0.168-0.385-0.168-0.602c0-0.292,0.093-0.541,0.277-0.746
		S56.833,9.17,57.156,9.1c0.067-0.016,0.235-0.051,0.504-0.105s0.498-0.105,0.689-0.15s0.399-0.101,0.623-0.166
		c-0.013-0.281-0.069-0.488-0.17-0.619s-0.308-0.197-0.623-0.197c-0.271,0-0.475,0.038-0.611,0.113s-0.254,0.189-0.352,0.34
		s-0.167,0.25-0.207,0.299s-0.127,0.072-0.26,0.072c-0.12,0-0.224-0.039-0.311-0.115s-0.131-0.175-0.131-0.295
		c0-0.188,0.066-0.37,0.199-0.547s0.34-0.323,0.621-0.438s0.632-0.172,1.051-0.172c0.469,0,0.837,0.055,1.105,0.166
		s0.458,0.286,0.568,0.525s0.166,0.557,0.166,0.953c0,0.25-0.001,0.462-0.002,0.637s-0.003,0.369-0.006,0.582
		c0,0.201,0.033,0.41,0.1,0.627s0.1,0.357,0.1,0.42c0,0.109-0.052,0.209-0.154,0.299s-0.22,0.135-0.35,0.135
		c-0.109,0-0.218-0.051-0.324-0.154S59.163,11.057,59.043,10.861z M58.973,9.318c-0.156,0.057-0.384,0.118-0.682,0.182
		s-0.505,0.111-0.619,0.141s-0.224,0.088-0.328,0.176s-0.156,0.209-0.156,0.365c0,0.162,0.062,0.299,0.184,0.412
		s0.282,0.17,0.48,0.17c0.211,0,0.405-0.046,0.584-0.139s0.31-0.211,0.393-0.357c0.097-0.162,0.145-0.427,0.145-0.797V9.318z"/>
	<path fill="#FFFFFF" d="M62.07,7.717v0.129c0.188-0.248,0.393-0.429,0.615-0.545s0.479-0.174,0.768-0.174
		c0.281,0,0.532,0.061,0.754,0.184s0.387,0.295,0.496,0.52c0.07,0.13,0.116,0.271,0.137,0.422s0.031,0.344,0.031,0.578v1.984
		c0,0.213-0.049,0.375-0.146,0.484s-0.225,0.164-0.381,0.164c-0.159,0-0.288-0.056-0.387-0.168s-0.148-0.272-0.148-0.48V9.037
		c0-0.352-0.049-0.621-0.146-0.807s-0.292-0.279-0.584-0.279c-0.19,0-0.363,0.057-0.52,0.17s-0.271,0.269-0.344,0.467
		c-0.052,0.159-0.078,0.456-0.078,0.891v1.336c0,0.216-0.05,0.378-0.15,0.486s-0.229,0.162-0.389,0.162
		c-0.153,0-0.28-0.056-0.379-0.168s-0.148-0.272-0.148-0.48V7.732c0-0.203,0.044-0.355,0.133-0.455s0.21-0.15,0.363-0.15
		c0.094,0,0.179,0.022,0.254,0.066s0.136,0.111,0.182,0.199S62.07,7.589,62.07,7.717z"/>
	<path fill="#FFFFFF" d="M66.977,6.189v1.582c0.136-0.156,0.268-0.28,0.396-0.371s0.271-0.16,0.428-0.205s0.324-0.068,0.504-0.068
		c0.271,0,0.511,0.057,0.721,0.172s0.374,0.281,0.494,0.5c0.075,0.127,0.126,0.27,0.152,0.428s0.039,0.339,0.039,0.545v2.043
		c0,0.213-0.049,0.375-0.146,0.484s-0.228,0.164-0.389,0.164c-0.352,0-0.527-0.216-0.527-0.648V9.014
		c0-0.341-0.051-0.604-0.152-0.787s-0.294-0.275-0.578-0.275c-0.19,0-0.361,0.054-0.514,0.162s-0.267,0.256-0.342,0.443
		c-0.058,0.159-0.086,0.441-0.086,0.848v1.41c0,0.211-0.048,0.372-0.143,0.482s-0.228,0.166-0.396,0.166
		c-0.352,0-0.527-0.216-0.527-0.648V6.189c0-0.216,0.046-0.378,0.139-0.486c0.093-0.108,0.222-0.162,0.389-0.162
		c0.169,0,0.302,0.055,0.396,0.164S66.977,5.976,66.977,6.189z"/>
	<path fill="#FFFFFF" d="M74.758,9.295c0,0.318-0.05,0.611-0.148,0.879s-0.242,0.499-0.43,0.691s-0.411,0.34-0.672,0.443
		s-0.554,0.154-0.879,0.154c-0.323,0-0.613-0.052-0.871-0.156s-0.481-0.253-0.67-0.447s-0.332-0.423-0.43-0.688
		s-0.146-0.557-0.146-0.877c0-0.323,0.05-0.619,0.148-0.887s0.241-0.498,0.426-0.688s0.409-0.336,0.672-0.439
		s0.554-0.154,0.871-0.154c0.323,0,0.616,0.052,0.879,0.156s0.488,0.252,0.676,0.445s0.33,0.422,0.428,0.688
		S74.758,8.975,74.758,9.295z M73.688,9.295c0-0.435-0.096-0.773-0.287-1.016s-0.448-0.363-0.771-0.363
		c-0.208,0-0.392,0.054-0.551,0.162s-0.281,0.268-0.367,0.479s-0.129,0.457-0.129,0.738c0,0.279,0.042,0.522,0.127,0.73
		s0.206,0.368,0.363,0.479s0.343,0.166,0.557,0.166c0.323,0,0.58-0.122,0.771-0.365S73.688,9.725,73.688,9.295z"/>
	<path fill="#FFFFFF" d="M75.598,10.814V6.189c0-0.213,0.048-0.375,0.143-0.484s0.224-0.164,0.385-0.164s0.292,0.054,0.391,0.162
		c0.099,0.108,0.148,0.271,0.148,0.486v4.625c0,0.216-0.05,0.378-0.15,0.486s-0.229,0.162-0.389,0.162
		c-0.156,0-0.283-0.056-0.381-0.168S75.598,11.023,75.598,10.814z"/>
</g>
<g>
	<path fill="#FFFFFF" d="M15.576,1.791v2.084h1.176c0.094,0,0.166,0.023,0.216,0.068s0.075,0.103,0.075,0.172
		c0,0.07-0.025,0.127-0.074,0.171s-0.122,0.065-0.217,0.065h-1.4c-0.126,0-0.217-0.028-0.272-0.084s-0.083-0.146-0.083-0.271V1.791
		c0-0.117,0.026-0.205,0.079-0.264s0.122-0.088,0.208-0.088c0.087,0,0.158,0.029,0.212,0.087S15.576,1.672,15.576,1.791z"/>
	<path fill="#FFFFFF" d="M17.656,1.984c-0.074,0-0.138-0.023-0.19-0.068s-0.079-0.11-0.079-0.193c0-0.076,0.027-0.138,0.081-0.187
		s0.117-0.073,0.188-0.073c0.069,0,0.13,0.022,0.184,0.066s0.08,0.109,0.08,0.193c0,0.082-0.026,0.146-0.078,0.192
		S17.728,1.984,17.656,1.984z M17.92,2.535v1.541c0,0.107-0.025,0.188-0.076,0.242S17.729,4.4,17.65,4.4s-0.142-0.028-0.19-0.084
		s-0.073-0.136-0.073-0.24V2.55c0-0.105,0.024-0.185,0.073-0.238s0.112-0.08,0.19-0.08s0.143,0.027,0.193,0.08
		S17.92,2.439,17.92,2.535z"/>
	<path fill="#FFFFFF" d="M20.383,3.74c0,0.066-0.02,0.137-0.06,0.213s-0.1,0.147-0.182,0.216s-0.184,0.124-0.308,0.165
		s-0.263,0.063-0.418,0.063c-0.33,0-0.586-0.096-0.771-0.288s-0.277-0.45-0.277-0.772c0-0.219,0.042-0.412,0.127-0.58
		s0.207-0.298,0.367-0.39s0.352-0.138,0.574-0.138c0.138,0,0.265,0.02,0.38,0.061s0.213,0.092,0.293,0.156s0.141,0.132,0.184,0.204
		s0.063,0.14,0.063,0.202c0,0.064-0.024,0.118-0.071,0.162S20.179,3.08,20.111,3.08c-0.044,0-0.081-0.011-0.11-0.034
		s-0.062-0.06-0.099-0.11c-0.065-0.099-0.133-0.173-0.204-0.223s-0.161-0.074-0.271-0.074c-0.158,0-0.285,0.062-0.381,0.185
		s-0.145,0.292-0.145,0.505c0,0.1,0.012,0.192,0.037,0.276S19,3.76,19.047,3.819s0.104,0.104,0.17,0.135S19.356,4,19.436,4
		c0.107,0,0.198-0.025,0.274-0.074s0.144-0.125,0.202-0.227c0.033-0.06,0.068-0.107,0.105-0.141s0.084-0.051,0.139-0.051
		c0.065,0,0.119,0.025,0.162,0.074S20.383,3.684,20.383,3.74z"/>
	<path fill="#FFFFFF" d="M22.336,3.447h-1.043c0.001,0.121,0.026,0.228,0.073,0.32s0.111,0.162,0.189,0.209s0.166,0.07,0.261,0.07
		c0.064,0,0.122-0.007,0.175-0.022s0.104-0.039,0.153-0.07s0.095-0.066,0.137-0.103s0.096-0.086,0.162-0.148
		c0.027-0.023,0.066-0.035,0.117-0.035c0.055,0,0.099,0.015,0.133,0.045s0.051,0.072,0.051,0.127c0,0.048-0.019,0.104-0.057,0.169
		s-0.095,0.126-0.171,0.186s-0.172,0.108-0.287,0.147S21.982,4.4,21.832,4.4c-0.342,0-0.609-0.098-0.799-0.293
		s-0.285-0.46-0.285-0.795c0-0.158,0.023-0.304,0.07-0.438s0.115-0.25,0.205-0.347s0.201-0.17,0.332-0.222s0.277-0.077,0.438-0.077
		c0.208,0,0.387,0.044,0.536,0.132s0.261,0.202,0.335,0.341s0.111,0.281,0.111,0.426c0,0.134-0.039,0.221-0.115,0.261
		S22.475,3.447,22.336,3.447z M21.293,3.144h0.967c-0.013-0.182-0.062-0.319-0.147-0.409s-0.198-0.136-0.337-0.136
		c-0.133,0-0.242,0.046-0.327,0.138S21.311,2.964,21.293,3.144z"/>
	<path fill="#FFFFFF" d="M23.709,2.527v0.064c0.094-0.124,0.196-0.214,0.308-0.272s0.239-0.087,0.384-0.087
		c0.141,0,0.266,0.031,0.377,0.092s0.193,0.148,0.248,0.26c0.035,0.065,0.058,0.135,0.068,0.211s0.016,0.172,0.016,0.289v0.992
		c0,0.107-0.024,0.188-0.073,0.242S24.924,4.4,24.846,4.4c-0.08,0-0.144-0.028-0.193-0.084s-0.074-0.136-0.074-0.24V3.187
		c0-0.176-0.024-0.31-0.073-0.403s-0.146-0.14-0.292-0.14c-0.095,0-0.182,0.028-0.26,0.085s-0.135,0.134-0.172,0.233
		c-0.026,0.08-0.039,0.228-0.039,0.445v0.668c0,0.108-0.025,0.189-0.075,0.243S23.552,4.4,23.473,4.4
		c-0.077,0-0.14-0.028-0.189-0.084s-0.074-0.136-0.074-0.24V2.535c0-0.102,0.022-0.177,0.066-0.228s0.105-0.075,0.182-0.075
		c0.047,0,0.089,0.011,0.127,0.033s0.068,0.055,0.091,0.1S23.709,2.463,23.709,2.527z"/>
	<path fill="#FFFFFF" d="M27.553,3.74c0,0.066-0.02,0.137-0.06,0.213s-0.1,0.147-0.182,0.216s-0.184,0.124-0.308,0.165
		s-0.263,0.063-0.418,0.063c-0.33,0-0.586-0.096-0.771-0.288s-0.277-0.45-0.277-0.772c0-0.219,0.042-0.412,0.127-0.58
		s0.207-0.298,0.367-0.39s0.352-0.138,0.574-0.138c0.138,0,0.265,0.02,0.38,0.061s0.213,0.092,0.293,0.156s0.141,0.132,0.184,0.204
		s0.063,0.14,0.063,0.202c0,0.064-0.024,0.118-0.071,0.162S27.349,3.08,27.281,3.08c-0.044,0-0.081-0.011-0.11-0.034
		s-0.062-0.06-0.099-0.11c-0.065-0.099-0.133-0.173-0.204-0.223s-0.161-0.074-0.271-0.074c-0.158,0-0.285,0.062-0.381,0.185
		s-0.145,0.292-0.145,0.505c0,0.1,0.012,0.192,0.037,0.276s0.061,0.156,0.107,0.215s0.104,0.104,0.17,0.135S26.526,4,26.605,4
		c0.107,0,0.198-0.025,0.274-0.074s0.144-0.125,0.202-0.227c0.033-0.06,0.068-0.107,0.105-0.141s0.084-0.051,0.139-0.051
		c0.065,0,0.119,0.025,0.162,0.074S27.553,3.684,27.553,3.74z"/>
	<path fill="#FFFFFF" d="M28.287,1.984c-0.074,0-0.138-0.023-0.19-0.068s-0.079-0.11-0.079-0.193c0-0.076,0.027-0.138,0.081-0.187
		s0.117-0.073,0.188-0.073c0.069,0,0.13,0.022,0.184,0.066s0.08,0.109,0.08,0.193c0,0.082-0.026,0.146-0.078,0.192
		S28.359,1.984,28.287,1.984z M28.551,2.535v1.541c0,0.107-0.025,0.188-0.076,0.242S28.359,4.4,28.281,4.4s-0.142-0.028-0.19-0.084
		s-0.073-0.136-0.073-0.24V2.55c0-0.105,0.024-0.185,0.073-0.238s0.112-0.08,0.19-0.08s0.143,0.027,0.193,0.08
		S28.551,2.439,28.551,2.535z"/>
	<path fill="#FFFFFF" d="M30.449,4.099c-0.129,0.1-0.253,0.175-0.374,0.226S29.82,4.4,29.67,4.4c-0.137,0-0.257-0.027-0.36-0.081
		s-0.183-0.127-0.239-0.22s-0.084-0.193-0.084-0.301c0-0.146,0.046-0.27,0.139-0.373s0.219-0.172,0.381-0.207
		c0.034-0.008,0.118-0.025,0.252-0.053s0.249-0.052,0.345-0.075s0.2-0.05,0.312-0.083c-0.006-0.141-0.035-0.244-0.085-0.31
		s-0.154-0.099-0.312-0.099c-0.135,0-0.237,0.019-0.306,0.057s-0.127,0.094-0.176,0.17s-0.083,0.125-0.104,0.149
		s-0.063,0.036-0.13,0.036c-0.06,0-0.112-0.019-0.155-0.058s-0.065-0.087-0.065-0.147c0-0.094,0.033-0.185,0.1-0.273
		s0.17-0.162,0.311-0.219s0.316-0.086,0.525-0.086c0.234,0,0.418,0.028,0.553,0.083s0.229,0.143,0.284,0.263
		s0.083,0.279,0.083,0.477c0,0.125,0,0.231-0.001,0.318s-0.001,0.184-0.003,0.291c0,0.1,0.017,0.205,0.05,0.313
		s0.05,0.179,0.05,0.21c0,0.055-0.026,0.104-0.077,0.149S30.846,4.4,30.781,4.4c-0.055,0-0.109-0.026-0.162-0.077
		S30.509,4.197,30.449,4.099z M30.414,3.328c-0.078,0.029-0.192,0.059-0.341,0.091s-0.252,0.055-0.31,0.07S29.652,3.533,29.6,3.577
		s-0.078,0.104-0.078,0.183c0,0.081,0.031,0.149,0.092,0.206s0.141,0.085,0.24,0.085c0.105,0,0.203-0.023,0.292-0.069
		s0.155-0.106,0.196-0.179c0.048-0.081,0.072-0.213,0.072-0.398V3.328z"/>
	<path fill="#FFFFFF" d="M31.408,2.279h0.059v-0.32c0-0.086,0.002-0.153,0.007-0.202s0.017-0.091,0.038-0.126
		c0.021-0.037,0.051-0.066,0.09-0.089s0.083-0.034,0.131-0.034c0.068,0,0.129,0.025,0.184,0.076c0.037,0.034,0.06,0.075,0.069,0.124
		S32,1.826,32,1.916v0.363h0.195c0.076,0,0.133,0.018,0.173,0.054s0.06,0.082,0.06,0.138c0,0.072-0.028,0.122-0.085,0.15
		S32.205,2.664,32.1,2.664H32v0.98c0,0.083,0.003,0.147,0.009,0.192s0.021,0.082,0.047,0.109s0.067,0.042,0.124,0.042
		c0.031,0,0.074-0.005,0.127-0.017s0.095-0.017,0.125-0.017c0.043,0,0.082,0.017,0.116,0.052S32.6,4.083,32.6,4.134
		c0,0.086-0.047,0.152-0.141,0.197S32.23,4.4,32.055,4.4c-0.167,0-0.293-0.028-0.379-0.084s-0.142-0.133-0.169-0.232
		s-0.04-0.231-0.04-0.396V2.664h-0.07c-0.077,0-0.135-0.018-0.176-0.055S31.16,2.526,31.16,2.47s0.021-0.102,0.063-0.138
		S31.328,2.279,31.408,2.279z"/>
	<path fill="#FFFFFF" d="M34.18,4.099V4.031c-0.064,0.081-0.131,0.148-0.201,0.203s-0.147,0.095-0.23,0.122s-0.178,0.04-0.285,0.04
		c-0.129,0-0.245-0.027-0.347-0.08s-0.181-0.127-0.237-0.221c-0.066-0.113-0.1-0.276-0.1-0.488V2.55
		c0-0.107,0.024-0.187,0.072-0.239s0.112-0.079,0.191-0.079c0.081,0,0.146,0.027,0.195,0.08s0.074,0.133,0.074,0.238v0.854
		c0,0.124,0.01,0.228,0.031,0.312s0.058,0.15,0.112,0.197s0.127,0.071,0.22,0.071c0.09,0,0.174-0.027,0.254-0.08
		s0.137-0.123,0.174-0.209c0.03-0.076,0.045-0.241,0.045-0.496V2.55c0-0.105,0.025-0.185,0.074-0.238s0.114-0.08,0.193-0.08
		s0.143,0.026,0.191,0.079S34.68,2.443,34.68,2.55v1.545c0,0.102-0.023,0.178-0.069,0.229S34.504,4.4,34.432,4.4
		s-0.133-0.026-0.181-0.079S34.18,4.194,34.18,4.099z"/>
	<path fill="#FFFFFF" d="M35.74,3.63v0.445c0,0.108-0.025,0.189-0.076,0.243S35.549,4.4,35.471,4.4c-0.077,0-0.14-0.027-0.189-0.082
		s-0.074-0.135-0.074-0.242V2.591c0-0.24,0.086-0.359,0.26-0.359c0.088,0,0.152,0.028,0.191,0.084s0.061,0.139,0.064,0.248
		c0.064-0.109,0.129-0.192,0.196-0.248s0.157-0.084,0.269-0.084s0.221,0.028,0.326,0.084s0.158,0.13,0.158,0.223
		c0,0.065-0.022,0.119-0.067,0.161s-0.093,0.063-0.146,0.063c-0.02,0-0.067-0.012-0.142-0.036s-0.141-0.036-0.198-0.036
		c-0.078,0-0.142,0.021-0.191,0.062s-0.088,0.102-0.115,0.183s-0.046,0.177-0.057,0.288S35.74,3.47,35.74,3.63z"/>
	<path fill="#FFFFFF" d="M38.211,4.099c-0.129,0.1-0.253,0.175-0.374,0.226S37.582,4.4,37.432,4.4c-0.137,0-0.257-0.027-0.36-0.081
		s-0.183-0.127-0.239-0.22s-0.084-0.193-0.084-0.301c0-0.146,0.046-0.27,0.139-0.373s0.219-0.172,0.381-0.207
		c0.034-0.008,0.118-0.025,0.252-0.053s0.249-0.052,0.345-0.075s0.2-0.05,0.312-0.083c-0.006-0.141-0.035-0.244-0.085-0.31
		s-0.154-0.099-0.312-0.099c-0.135,0-0.237,0.019-0.306,0.057s-0.127,0.094-0.176,0.17s-0.083,0.125-0.104,0.149
		s-0.063,0.036-0.13,0.036c-0.06,0-0.112-0.019-0.155-0.058s-0.065-0.087-0.065-0.147c0-0.094,0.033-0.185,0.1-0.273
		s0.17-0.162,0.311-0.219s0.316-0.086,0.525-0.086c0.234,0,0.418,0.028,0.553,0.083s0.229,0.143,0.284,0.263
		c0.055,0.12,0.083,0.279,0.083,0.477c0,0.125-0.001,0.231-0.001,0.318s-0.002,0.184-0.003,0.291c0,0.1,0.017,0.205,0.05,0.313
		s0.05,0.179,0.05,0.21c0,0.055-0.026,0.104-0.077,0.149S38.608,4.4,38.543,4.4c-0.055,0-0.109-0.026-0.162-0.077
		S38.271,4.197,38.211,4.099z M38.176,3.328c-0.078,0.029-0.192,0.059-0.341,0.091s-0.252,0.055-0.31,0.07s-0.112,0.044-0.164,0.088
		s-0.078,0.104-0.078,0.183c0,0.081,0.031,0.149,0.092,0.206s0.141,0.085,0.24,0.085c0.105,0,0.203-0.023,0.292-0.069
		s0.155-0.106,0.196-0.179c0.048-0.081,0.072-0.213,0.072-0.398V3.328z"/>
	<path fill="#FFFFFF" d="M41.729,3.447h-1.043c0.001,0.121,0.025,0.228,0.073,0.32s0.11,0.162,0.189,0.209s0.166,0.07,0.261,0.07
		c0.063,0,0.122-0.007,0.175-0.022s0.104-0.039,0.153-0.07s0.095-0.066,0.137-0.103s0.096-0.086,0.162-0.148
		c0.027-0.023,0.066-0.035,0.117-0.035c0.055,0,0.099,0.015,0.133,0.045s0.051,0.072,0.051,0.127c0,0.048-0.019,0.104-0.057,0.169
		s-0.095,0.126-0.171,0.186s-0.172,0.108-0.287,0.147S41.374,4.4,41.225,4.4c-0.343,0-0.608-0.098-0.799-0.293
		s-0.285-0.46-0.285-0.795c0-0.158,0.023-0.304,0.07-0.438s0.115-0.25,0.205-0.347s0.2-0.17,0.332-0.222s0.277-0.077,0.438-0.077
		c0.208,0,0.387,0.044,0.536,0.132s0.261,0.202,0.335,0.341s0.111,0.281,0.111,0.426c0,0.134-0.038,0.221-0.115,0.261
		S41.868,3.447,41.729,3.447z M40.686,3.144h0.967c-0.013-0.182-0.063-0.319-0.147-0.409s-0.197-0.136-0.337-0.136
		c-0.133,0-0.242,0.046-0.327,0.138S40.704,2.964,40.686,3.144z"/>
	<path fill="#FFFFFF" d="M44.391,3.355v0.709c0,0.112-0.025,0.196-0.076,0.252S44.196,4.4,44.113,4.4
		c-0.081,0-0.146-0.028-0.196-0.084s-0.075-0.14-0.075-0.252v-0.85c0-0.134-0.005-0.238-0.014-0.313s-0.034-0.135-0.074-0.183
		s-0.104-0.071-0.191-0.071c-0.175,0-0.289,0.06-0.345,0.18s-0.083,0.292-0.083,0.516v0.721c0,0.111-0.025,0.194-0.075,0.251
		S42.943,4.4,42.861,4.4c-0.081,0-0.146-0.028-0.198-0.085s-0.077-0.14-0.077-0.251V2.539c0-0.1,0.023-0.176,0.069-0.229
		s0.107-0.078,0.183-0.078c0.073,0,0.134,0.024,0.183,0.073s0.073,0.116,0.073,0.202v0.051c0.093-0.111,0.191-0.192,0.297-0.244
		s0.223-0.078,0.352-0.078c0.134,0,0.249,0.027,0.346,0.08s0.176,0.134,0.238,0.242c0.09-0.109,0.187-0.19,0.289-0.243
		s0.217-0.079,0.342-0.079c0.146,0,0.271,0.029,0.377,0.086s0.185,0.139,0.236,0.246c0.046,0.096,0.068,0.248,0.068,0.455v1.041
		c0,0.112-0.025,0.196-0.076,0.252S45.444,4.4,45.361,4.4c-0.081,0-0.146-0.028-0.198-0.085s-0.077-0.14-0.077-0.251V3.167
		c0-0.115-0.005-0.207-0.015-0.275s-0.036-0.127-0.079-0.174s-0.108-0.07-0.195-0.07c-0.07,0-0.137,0.021-0.2,0.063
		s-0.112,0.098-0.147,0.168C44.41,2.968,44.391,3.127,44.391,3.355z"/>
</g>
<path fill-rule="evenodd" clip-rule="evenodd" fill="#FFFFFF" d="M2.034,1.584H2.43c0.01-0.136,0.055-0.201,0.135-0.201
	c0.075,0,0.116,0.025,0.211,0.07c0.121,0.04,0.23,0.09,0.386,0.09c0.3,0,0.476-0.156,0.456-0.572H3.227
	c-0.015,0.156-0.055,0.196-0.14,0.196c-0.065,0-0.14-0.045-0.235-0.081c-0.115-0.045-0.221-0.09-0.366-0.09
	C2.204,0.998,2.019,1.204,2.034,1.584L2.034,1.584z M3.924,2.121c0.075,0.136,0.1,0.361,0.1,0.768v1.569H3.191v-1.71
	c0-0.17-0.075-0.271-0.23-0.301c-0.05-0.005-0.105-0.009-0.16-0.005C2.706,2.446,2.585,2.472,2.45,2.552v1.905H1.628V1.785h0.677
	c0.005,0,0.045,0.07,0.08,0.171C2.435,1.93,2.71,1.765,3.112,1.75C3.433,1.735,3.724,1.785,3.924,2.121L3.924,2.121z M8.067,1.363
	H7.436v2.256v0.028c0,0.032,0,0.069,0.004,0.105c0.008,0.093,0.03,0.187,0.065,0.279C7.643,4.364,7.933,4.53,8.377,4.53
	c0.058,0,0.096,0,0.153-0.004V3.967c-0.027,0-0.218,0.004-0.329-0.028C8.113,3.906,8.067,3.817,8.067,3.671V3.59V1.363L8.067,1.363z
	 M9.299,1.363H8.667v2.256v0.028c0,0.032,0,0.069,0.004,0.105c0.008,0.093,0.031,0.187,0.065,0.279
	C8.874,4.364,9.165,4.53,9.609,4.53c0.058,0,0.096,0,0.153-0.004V3.967c-0.027,0-0.218,0.004-0.329-0.028
	C9.345,3.906,9.299,3.817,9.299,3.671V3.59V1.363L9.299,1.363z M2.491,7.242c0,0.085,0.008,0.24,0.085,0.309
	c0.061,0.08,0.171,0.096,0.266,0.096c0.093,0,0.208-0.016,0.269-0.096c0.077-0.069,0.085-0.224,0.085-0.309
	c0-0.107-0.008-0.256-0.085-0.326C3.05,6.836,2.919,6.82,2.842,6.82c-0.078,0-0.205,0.016-0.266,0.096
	C2.5,6.985,2.491,7.135,2.491,7.242L2.491,7.242z M1.561,9.433h0.004c0.008,0.304,0.049,0.517,0.123,0.64
	c0.159,0.314,0.444,0.474,0.861,0.474c0.249,0,0.559-0.053,0.804-0.123l0.057-0.656c-0.257,0.058-0.588,0.133-0.78,0.117
	c-0.167,0-0.273-0.027-0.326-0.085C2.258,9.769,2.234,9.636,2.234,9.396c0-0.218,0.02-0.341,0.057-0.373
	c0.044-0.069,0.155-0.107,0.33-0.107h0.041c0.102,0,0.277,0.027,0.522,0.07V7.881H2.511v0.384C2.063,8.271,1.773,8.468,1.639,8.857
	C1.594,8.964,1.565,9.134,1.565,9.396H1.561l0.004,0.005C1.565,9.407,1.561,9.417,1.561,9.433L1.561,9.433z M9.262,6.718
	C9.191,6.652,9.064,6.64,8.958,6.64c-0.106,0-0.226,0.014-0.299,0.078C8.577,6.792,8.563,6.916,8.563,6.994
	c0,0.087,0.013,0.198,0.096,0.271c0.073,0.064,0.207,0.078,0.299,0.078c0.087,0,0.232-0.011,0.303-0.078
	c0.076-0.071,0.092-0.179,0.092-0.271C9.354,6.907,9.337,6.789,9.262,6.718L9.262,6.718z M8.582,7.614h0.753v1.9v0.032
	c0,0.037-0.005,0.074-0.009,0.115c-0.014,0.11-0.027,0.216-0.078,0.326c-0.161,0.372-0.51,0.556-1.043,0.556
	c-0.124,0-0.211-0.004-0.317-0.009V9.905c0.073,0.004,0.138,0.009,0.207,0.009h0.059c0.125,0,0.202-0.023,0.271-0.041
	c0.105-0.028,0.156-0.128,0.156-0.299V9.482V7.614L8.582,7.614z M0.587,4.477L0.587,4.477c-0.097-0.019-0.16-0.114-0.141-0.21
	l0.597-3.008c0.02-0.096,0.114-0.16,0.21-0.141h0c0.097,0.02,0.16,0.114,0.141,0.211L0.797,4.336
	C0.778,4.433,0.684,4.496,0.587,4.477L0.587,4.477z M4.477,4.477L4.477,4.477c-0.097-0.019-0.161-0.114-0.141-0.21l0.598-3.008
	c0.019-0.096,0.114-0.16,0.21-0.141l0,0c0.096,0.02,0.16,0.114,0.141,0.211L4.687,4.336C4.667,4.433,4.573,4.496,4.477,4.477
	L4.477,4.477z M6.262,4.477L6.262,4.477c-0.097-0.019-0.16-0.114-0.141-0.21l0.598-3.008c0.02-0.096,0.114-0.16,0.211-0.141l0,0
	c0.096,0.02,0.16,0.114,0.141,0.211L6.472,4.336C6.454,4.433,6.358,4.496,6.262,4.477L6.262,4.477z M10.266,4.477L10.266,4.477
	c-0.097-0.019-0.16-0.114-0.141-0.21l0.598-3.008c0.02-0.096,0.114-0.16,0.21-0.141l0,0c0.097,0.02,0.16,0.114,0.141,0.211
	l-0.598,3.008C10.457,4.433,10.362,4.496,10.266,4.477L10.266,4.477z M9.774,10.271L9.774,10.271
	c-0.097-0.019-0.16-0.113-0.141-0.21l0.598-3.008c0.019-0.096,0.114-0.16,0.21-0.141l0,0c0.097,0.02,0.16,0.114,0.141,0.21
	l-0.598,3.008C9.965,10.227,9.871,10.291,9.774,10.271L9.774,10.271z M7.231,10.271c0.097,0.02,0.191-0.044,0.21-0.14L8.04,7.123
	c0.019-0.097-0.044-0.191-0.141-0.21l0,0c-0.096-0.02-0.191,0.044-0.21,0.141L7.09,10.061C7.071,10.158,7.134,10.252,7.231,10.271
	L7.231,10.271L7.231,10.271z M3.83,10.402L3.83,10.402c-0.097-0.019-0.16-0.114-0.141-0.21l0.598-3.008
	c0.02-0.097,0.114-0.16,0.21-0.141l0,0c0.097,0.019,0.16,0.113,0.141,0.21l-0.598,3.008C4.021,10.358,3.926,10.421,3.83,10.402
	L3.83,10.402z M0.803,10.402L0.803,10.402c-0.097-0.019-0.16-0.114-0.141-0.21l0.597-3.008c0.02-0.097,0.114-0.16,0.21-0.141h0
	c0.096,0.019,0.16,0.113,0.141,0.21l-0.598,3.008C0.994,10.358,0.899,10.421,0.803,10.402L0.803,10.402z M1.661,0h8.198
	c0.914,0,1.661,0.748,1.661,1.661v8.198c0,0.914-0.748,1.661-1.661,1.661H1.661C0.748,11.52,0,10.772,0,9.859V1.661
	C0,0.748,0.748,0,1.661,0z"/>
</svg>
