<?xml version="1.0" encoding="utf-8"?>
<!-- Generator: Adobe Illustrator 16.0.0, SVG Export Plug-In . SVG Version: 6.00 Build 0)  -->
<!DOCTYPE svg PUBLIC "-//W3C//DTD SVG 1.1//EN" "http://www.w3.org/Graphics/SVG/1.1/DTD/svg11.dtd" [
	<!ENTITY ns_flows "http://ns.adobe.com/Flows/1.0/">
	<!ENTITY ns_extend "http://ns.adobe.com/Extensibility/1.0/">
	<!ENTITY ns_ai "http://ns.adobe.com/AdobeIllustrator/10.0/">
	<!ENTITY ns_graphs "http://ns.adobe.com/Graphs/1.0/">
]>
<svg version="1.1" id="Camada_1" xmlns:x="&ns_extend;" xmlns:i="&ns_ai;" xmlns:graph="&ns_graphs;"
	 xmlns="http://www.w3.org/2000/svg" xmlns:xlink="http://www.w3.org/1999/xlink" xmlns:a="http://ns.adobe.com/AdobeSVGViewerExtensions/3.0/"
	 x="0px" y="0px" width="64.167px" height="13.313px" viewBox="0 0 64.167 13.313" enable-background="new 0 0 64.167 13.313"
	 xml:space="preserve">
<g>
	<path fill="#FFFFFF" d="M15.629,6.505v4.168h2.352c0.188,0,0.332,0.045,0.432,0.137s0.15,0.206,0.15,0.344
		c0,0.141-0.049,0.254-0.148,0.342s-0.244,0.131-0.434,0.131H15.18c-0.252,0-0.434-0.056-0.545-0.168s-0.166-0.293-0.166-0.543
		v-4.41c0-0.234,0.053-0.41,0.158-0.527s0.244-0.176,0.416-0.176c0.174,0,0.316,0.058,0.424,0.174
		C15.575,6.092,15.629,6.268,15.629,6.505z"/>
	<path fill="#FFFFFF" d="M22.227,9.817h-2.086c0.002,0.242,0.051,0.456,0.146,0.641s0.221,0.324,0.379,0.418
		s0.332,0.141,0.521,0.141c0.127,0,0.244-0.015,0.35-0.045s0.208-0.077,0.307-0.141s0.19-0.132,0.273-0.205s0.191-0.172,0.324-0.297
		c0.055-0.047,0.133-0.07,0.234-0.07c0.109,0,0.198,0.03,0.266,0.09s0.102,0.145,0.102,0.254c0,0.096-0.038,0.209-0.113,0.338
		s-0.189,0.252-0.342,0.371s-0.344,0.217-0.574,0.295s-0.496,0.117-0.795,0.117c-0.685,0-1.217-0.195-1.598-0.586
		s-0.57-0.92-0.57-1.59c0-0.315,0.047-0.607,0.141-0.877s0.23-0.5,0.41-0.693s0.401-0.34,0.664-0.443S20.82,7.38,21.141,7.38
		c0.417,0,0.774,0.088,1.072,0.264s0.521,0.403,0.67,0.682s0.223,0.563,0.223,0.852c0,0.268-0.077,0.442-0.23,0.521
		S22.505,9.817,22.227,9.817z M20.141,9.212h1.934c-0.026-0.365-0.125-0.637-0.295-0.818s-0.395-0.271-0.674-0.271
		c-0.266,0-0.484,0.092-0.654,0.275S20.177,8.853,20.141,9.212z"/>
	<path fill="#FFFFFF" d="M24.063,7.481h0.117V6.841c0-0.172,0.004-0.307,0.014-0.404s0.035-0.182,0.076-0.252
		c0.042-0.073,0.102-0.132,0.18-0.178c0.078-0.045,0.166-0.068,0.262-0.068c0.135,0,0.258,0.051,0.367,0.152
		c0.073,0.068,0.119,0.15,0.139,0.248s0.029,0.236,0.029,0.416v0.727h0.391c0.151,0,0.266,0.036,0.346,0.107
		s0.119,0.164,0.119,0.275c0,0.143-0.057,0.244-0.17,0.301s-0.275,0.086-0.486,0.086h-0.199v1.961c0,0.167,0.006,0.295,0.018,0.385
		s0.043,0.163,0.094,0.219s0.133,0.084,0.248,0.084c0.063,0,0.147-0.011,0.254-0.033s0.19-0.033,0.25-0.033
		c0.086,0,0.164,0.035,0.232,0.104s0.104,0.154,0.104,0.256c0,0.172-0.094,0.303-0.281,0.395s-0.457,0.137-0.809,0.137
		c-0.333,0-0.586-0.056-0.758-0.168s-0.285-0.267-0.338-0.465s-0.08-0.462-0.08-0.793V8.251h-0.141
		c-0.154,0-0.271-0.037-0.352-0.109s-0.121-0.166-0.121-0.277s0.042-0.204,0.127-0.275S23.901,7.481,24.063,7.481z"/>
	<path fill="#FFFFFF" d="M27.895,10.185v0.891c0,0.216-0.051,0.378-0.152,0.486s-0.23,0.162-0.387,0.162
		c-0.154,0-0.28-0.055-0.379-0.164s-0.148-0.271-0.148-0.484V8.106c0-0.479,0.173-0.719,0.52-0.719c0.177,0,0.305,0.056,0.383,0.168
		s0.121,0.277,0.129,0.496c0.127-0.219,0.258-0.384,0.393-0.496s0.313-0.168,0.537-0.168s0.441,0.056,0.652,0.168
		s0.316,0.26,0.316,0.445c0,0.13-0.045,0.238-0.135,0.322S29.436,8.45,29.332,8.45c-0.039,0-0.133-0.024-0.283-0.072
		s-0.282-0.072-0.396-0.072c-0.156,0-0.284,0.041-0.383,0.123s-0.176,0.204-0.23,0.365s-0.092,0.354-0.113,0.576
		S27.895,9.864,27.895,10.185z"/>
	<path fill="#FFFFFF" d="M32.836,11.122c-0.258,0.201-0.507,0.351-0.748,0.451s-0.511,0.15-0.811,0.15
		c-0.273,0-0.514-0.054-0.721-0.162s-0.367-0.254-0.479-0.439s-0.168-0.385-0.168-0.602c0-0.292,0.092-0.541,0.277-0.746
		s0.439-0.344,0.762-0.414c0.068-0.016,0.236-0.051,0.504-0.105c0.269-0.055,0.498-0.105,0.689-0.15s0.399-0.101,0.623-0.166
		c-0.013-0.281-0.069-0.488-0.17-0.619s-0.308-0.197-0.623-0.197c-0.271,0-0.475,0.038-0.611,0.113s-0.254,0.189-0.352,0.34
		s-0.167,0.25-0.207,0.299s-0.127,0.072-0.26,0.072c-0.12,0-0.223-0.039-0.311-0.115s-0.131-0.175-0.131-0.295
		c0-0.188,0.066-0.37,0.199-0.547s0.34-0.323,0.621-0.438s0.631-0.172,1.051-0.172c0.469,0,0.837,0.055,1.105,0.166
		s0.458,0.286,0.568,0.525s0.166,0.557,0.166,0.953c0,0.25-0.001,0.462-0.002,0.637s-0.003,0.369-0.006,0.582
		c0,0.201,0.033,0.41,0.1,0.627s0.1,0.357,0.1,0.42c0,0.109-0.052,0.209-0.154,0.299s-0.22,0.135-0.35,0.135
		c-0.109,0-0.218-0.051-0.324-0.154S32.956,11.317,32.836,11.122z M32.766,9.579c-0.156,0.057-0.384,0.118-0.682,0.182
		s-0.505,0.111-0.619,0.141c-0.115,0.03-0.224,0.088-0.328,0.176s-0.156,0.209-0.156,0.365c0,0.162,0.061,0.299,0.184,0.412
		s0.283,0.17,0.48,0.17c0.211,0,0.405-0.046,0.584-0.139s0.31-0.211,0.393-0.357c0.097-0.162,0.145-0.427,0.145-0.797V9.579z"/>
	<path fill="#FFFFFF" d="M38.328,10.329c0,0.294-0.071,0.546-0.215,0.756s-0.354,0.369-0.635,0.477s-0.62,0.162-1.021,0.162
		c-0.383,0-0.711-0.059-0.984-0.176s-0.476-0.264-0.605-0.439s-0.195-0.352-0.195-0.529c0-0.117,0.042-0.217,0.125-0.301
		s0.188-0.125,0.316-0.125c0.112,0,0.198,0.027,0.258,0.082s0.117,0.131,0.172,0.23c0.109,0.19,0.24,0.332,0.393,0.426
		s0.36,0.141,0.623,0.141c0.214,0,0.389-0.047,0.525-0.143s0.205-0.204,0.205-0.326c0-0.188-0.071-0.324-0.213-0.41
		S36.7,9.985,36.375,9.907c-0.367-0.091-0.666-0.187-0.896-0.287s-0.415-0.232-0.553-0.396s-0.207-0.366-0.207-0.605
		c0-0.213,0.063-0.416,0.191-0.605s0.315-0.342,0.564-0.455s0.549-0.17,0.9-0.17c0.276,0,0.524,0.029,0.744,0.086
		s0.403,0.134,0.551,0.23s0.259,0.203,0.336,0.32s0.115,0.232,0.115,0.344c0,0.123-0.041,0.223-0.123,0.301s-0.198,0.117-0.35,0.117
		c-0.109,0-0.202-0.031-0.279-0.094s-0.165-0.156-0.264-0.281c-0.081-0.104-0.176-0.188-0.285-0.25s-0.258-0.094-0.445-0.094
		c-0.192,0-0.353,0.041-0.48,0.123s-0.191,0.184-0.191,0.307c0,0.112,0.047,0.204,0.141,0.275s0.22,0.131,0.379,0.178
		s0.378,0.104,0.656,0.172c0.331,0.081,0.601,0.177,0.811,0.289s0.368,0.244,0.477,0.396S38.328,10.134,38.328,10.329z"/>
	<path fill="#FFFFFF" d="M41.352,11.017V6.505c0-0.234,0.054-0.41,0.16-0.527s0.245-0.176,0.414-0.176
		c0.175,0,0.315,0.058,0.424,0.174c0.108,0.116,0.162,0.292,0.162,0.529v4.512c0,0.237-0.054,0.414-0.162,0.531
		s-0.249,0.176-0.424,0.176c-0.167,0-0.304-0.059-0.412-0.178S41.352,11.251,41.352,11.017z"/>
	<path fill="#FFFFFF" d="M44.703,7.978v0.129c0.188-0.248,0.393-0.429,0.615-0.545s0.479-0.174,0.768-0.174
		c0.281,0,0.532,0.061,0.754,0.184s0.387,0.295,0.496,0.52c0.07,0.13,0.116,0.271,0.137,0.422s0.031,0.344,0.031,0.578v1.984
		c0,0.213-0.049,0.375-0.146,0.484s-0.225,0.164-0.381,0.164c-0.159,0-0.288-0.056-0.387-0.168s-0.148-0.272-0.148-0.48V9.298
		c0-0.352-0.049-0.621-0.146-0.807s-0.292-0.279-0.584-0.279c-0.19,0-0.363,0.057-0.52,0.17s-0.271,0.269-0.344,0.467
		c-0.052,0.159-0.078,0.456-0.078,0.891v1.336c0,0.216-0.05,0.378-0.15,0.486s-0.229,0.162-0.389,0.162
		c-0.153,0-0.28-0.056-0.379-0.168s-0.148-0.272-0.148-0.48V7.993c0-0.203,0.044-0.355,0.133-0.455s0.21-0.15,0.363-0.15
		c0.094,0,0.179,0.022,0.254,0.066s0.136,0.111,0.182,0.199S44.703,7.85,44.703,7.978z"/>
	<path fill="#FFFFFF" d="M52.487,8.169v3.098c0,0.354-0.038,0.659-0.113,0.914s-0.196,0.466-0.363,0.633s-0.385,0.291-0.654,0.371
		s-0.604,0.121-1.006,0.121c-0.367,0-0.695-0.051-0.984-0.154s-0.512-0.236-0.668-0.398s-0.234-0.33-0.234-0.502
		c0-0.13,0.044-0.236,0.133-0.318s0.195-0.123,0.32-0.123c0.156,0,0.293,0.069,0.41,0.207c0.058,0.07,0.116,0.141,0.178,0.213
		s0.129,0.133,0.203,0.184s0.163,0.088,0.268,0.113s0.224,0.037,0.359,0.037c0.276,0,0.49-0.039,0.643-0.115s0.259-0.184,0.32-0.322
		s0.097-0.286,0.107-0.443s0.019-0.411,0.023-0.76c-0.164,0.229-0.354,0.404-0.568,0.523s-0.471,0.18-0.768,0.18
		c-0.356,0-0.669-0.091-0.936-0.273s-0.472-0.438-0.615-0.766S48.327,9.88,48.327,9.45c0-0.32,0.044-0.609,0.131-0.867
		s0.212-0.475,0.373-0.652s0.348-0.311,0.559-0.4s0.442-0.135,0.695-0.135c0.302,0,0.563,0.058,0.785,0.174s0.427,0.297,0.617,0.545
		V7.97c0-0.185,0.046-0.328,0.137-0.43s0.208-0.152,0.352-0.152c0.206,0,0.343,0.067,0.41,0.201S52.487,7.917,52.487,8.169z
		 M49.397,9.521c0,0.432,0.095,0.759,0.283,0.98s0.433,0.332,0.732,0.332c0.177,0,0.345-0.047,0.502-0.143s0.286-0.238,0.385-0.43
		s0.148-0.424,0.148-0.697c0-0.435-0.096-0.773-0.287-1.016s-0.443-0.363-0.756-0.363c-0.305,0-0.549,0.116-0.732,0.348
		S49.397,9.093,49.397,9.521z"/>
	<path fill="#FFFFFF" d="M53.46,11.075V6.45c0-0.213,0.048-0.375,0.143-0.484s0.224-0.164,0.385-0.164s0.292,0.054,0.391,0.162
		c0.099,0.108,0.148,0.271,0.148,0.486v4.625c0,0.216-0.05,0.378-0.15,0.486s-0.229,0.162-0.389,0.162
		c-0.156,0-0.283-0.056-0.381-0.168S53.46,11.284,53.46,11.075z"/>
	<path fill="#FFFFFF" d="M58.604,9.817h-2.086c0.003,0.242,0.052,0.456,0.146,0.641s0.222,0.324,0.379,0.418
		s0.331,0.141,0.521,0.141c0.128,0,0.244-0.015,0.35-0.045s0.208-0.077,0.307-0.141s0.19-0.132,0.273-0.205s0.191-0.172,0.324-0.297
		c0.055-0.047,0.133-0.07,0.234-0.07c0.109,0,0.198,0.03,0.266,0.09s0.102,0.145,0.102,0.254c0,0.096-0.038,0.209-0.113,0.338
		s-0.189,0.252-0.342,0.371s-0.344,0.217-0.574,0.295s-0.495,0.117-0.795,0.117c-0.685,0-1.218-0.195-1.598-0.586
		s-0.57-0.92-0.57-1.59c0-0.315,0.047-0.607,0.141-0.877s0.23-0.5,0.41-0.693s0.401-0.34,0.664-0.443s0.555-0.154,0.875-0.154
		c0.417,0,0.774,0.088,1.072,0.264s0.521,0.403,0.67,0.682s0.223,0.563,0.223,0.852c0,0.268-0.077,0.442-0.23,0.521
		S58.883,9.817,58.604,9.817z M57.69,6.657L57.3,6.2l-0.391,0.457c-0.109,0.13-0.184,0.209-0.223,0.238s-0.112,0.043-0.219,0.043
		h-0.313c-0.106,0-0.16-0.018-0.16-0.055c0-0.029,0.04-0.094,0.121-0.195l0.434-0.52c0.036-0.044,0.078-0.096,0.125-0.154
		s0.088-0.1,0.123-0.125c0.035-0.024,0.087-0.044,0.154-0.059c0.067-0.014,0.146-0.021,0.234-0.021h0.219
		c0.172,0,0.29,0.021,0.354,0.063c0.063,0.042,0.158,0.141,0.283,0.297l0.449,0.527c0.075,0.099,0.113,0.158,0.113,0.176
		c0,0.044-0.059,0.066-0.176,0.066h-0.297c-0.078,0-0.14-0.011-0.186-0.033s-0.089-0.057-0.131-0.104S57.732,6.707,57.69,6.657z
		 M56.519,9.212h1.934c-0.026-0.365-0.124-0.637-0.295-0.818s-0.396-0.271-0.674-0.271c-0.266,0-0.483,0.092-0.654,0.275
		S56.555,8.853,56.519,9.212z"/>
	<path fill="#FFFFFF" d="M63.815,10.329c0,0.294-0.071,0.546-0.215,0.756s-0.354,0.369-0.635,0.477s-0.62,0.162-1.021,0.162
		c-0.383,0-0.711-0.059-0.984-0.176s-0.476-0.264-0.605-0.439s-0.195-0.352-0.195-0.529c0-0.117,0.042-0.217,0.125-0.301
		s0.188-0.125,0.316-0.125c0.112,0,0.198,0.027,0.258,0.082s0.117,0.131,0.172,0.23c0.109,0.19,0.24,0.332,0.393,0.426
		s0.36,0.141,0.623,0.141c0.214,0,0.389-0.047,0.525-0.143s0.205-0.204,0.205-0.326c0-0.188-0.071-0.324-0.213-0.41
		s-0.376-0.168-0.701-0.246c-0.367-0.091-0.666-0.187-0.896-0.287s-0.415-0.232-0.553-0.396s-0.207-0.366-0.207-0.605
		c0-0.213,0.063-0.416,0.191-0.605s0.315-0.342,0.564-0.455s0.549-0.17,0.9-0.17c0.276,0,0.524,0.029,0.744,0.086
		s0.403,0.134,0.551,0.23s0.259,0.203,0.336,0.32s0.115,0.232,0.115,0.344c0,0.123-0.041,0.223-0.123,0.301s-0.198,0.117-0.35,0.117
		c-0.109,0-0.202-0.031-0.279-0.094s-0.165-0.156-0.264-0.281c-0.081-0.104-0.176-0.188-0.285-0.25s-0.258-0.094-0.445-0.094
		c-0.192,0-0.353,0.041-0.48,0.123S61.19,8.375,61.19,8.497c0,0.112,0.047,0.204,0.141,0.275s0.22,0.131,0.379,0.178
		s0.378,0.104,0.656,0.172c0.331,0.081,0.601,0.177,0.811,0.289s0.368,0.244,0.477,0.396S63.815,10.134,63.815,10.329z"/>
</g>
<g>
	<path fill="#FFFFFF" d="M15.13,2.051v2.084h1.176c0.094,0,0.166,0.023,0.216,0.068s0.075,0.103,0.075,0.172
		c0,0.07-0.025,0.127-0.074,0.171s-0.122,0.065-0.217,0.065h-1.4c-0.126,0-0.217-0.028-0.272-0.084S14.55,4.381,14.55,4.256V2.051
		c0-0.117,0.026-0.205,0.079-0.264S14.751,1.7,14.837,1.7c0.087,0,0.158,0.029,0.212,0.087S15.13,1.933,15.13,2.051z"/>
	<path fill="#FFFFFF" d="M17.21,2.245c-0.074,0-0.138-0.023-0.19-0.068s-0.079-0.11-0.079-0.193c0-0.076,0.027-0.138,0.081-0.187
		s0.117-0.073,0.188-0.073c0.069,0,0.13,0.022,0.184,0.066s0.08,0.109,0.08,0.193c0,0.082-0.026,0.146-0.078,0.192
		S17.282,2.245,17.21,2.245z M17.474,2.795v1.541c0,0.107-0.025,0.188-0.076,0.242s-0.115,0.082-0.193,0.082
		s-0.142-0.028-0.19-0.084S16.94,4.44,16.94,4.336V2.811c0-0.105,0.024-0.185,0.073-0.238s0.112-0.08,0.19-0.08
		s0.143,0.027,0.193,0.08S17.474,2.7,17.474,2.795z"/>
	<path fill="#FFFFFF" d="M19.937,4c0,0.066-0.02,0.137-0.06,0.213s-0.1,0.147-0.182,0.216s-0.184,0.124-0.308,0.165
		s-0.263,0.063-0.418,0.063c-0.33,0-0.586-0.096-0.771-0.288s-0.277-0.45-0.277-0.772c0-0.219,0.042-0.412,0.127-0.58
		s0.207-0.298,0.367-0.39s0.352-0.138,0.574-0.138c0.138,0,0.265,0.02,0.38,0.061s0.213,0.092,0.293,0.156s0.141,0.132,0.184,0.204
		s0.063,0.14,0.063,0.202c0,0.064-0.024,0.118-0.071,0.162S19.733,3.34,19.665,3.34c-0.044,0-0.081-0.011-0.11-0.034
		s-0.062-0.06-0.099-0.11c-0.065-0.099-0.133-0.173-0.204-0.223s-0.161-0.074-0.271-0.074c-0.158,0-0.285,0.062-0.381,0.185
		s-0.145,0.292-0.145,0.505c0,0.1,0.012,0.192,0.037,0.276s0.061,0.156,0.107,0.215s0.104,0.104,0.17,0.135S18.91,4.26,18.989,4.26
		c0.107,0,0.198-0.025,0.274-0.074s0.144-0.125,0.202-0.227c0.033-0.06,0.068-0.107,0.105-0.141s0.084-0.051,0.139-0.051
		c0.065,0,0.119,0.025,0.162,0.074S19.937,3.944,19.937,4z"/>
	<path fill="#FFFFFF" d="M21.89,3.708h-1.043c0.001,0.121,0.026,0.228,0.073,0.32s0.111,0.162,0.189,0.209s0.166,0.07,0.261,0.07
		c0.064,0,0.122-0.007,0.175-0.022s0.104-0.039,0.153-0.07s0.095-0.066,0.137-0.103s0.096-0.086,0.162-0.148
		c0.027-0.023,0.066-0.035,0.117-0.035c0.055,0,0.099,0.015,0.133,0.045s0.051,0.072,0.051,0.127c0,0.048-0.019,0.104-0.057,0.169
		s-0.095,0.126-0.171,0.186s-0.172,0.108-0.287,0.147s-0.248,0.059-0.397,0.059c-0.342,0-0.609-0.098-0.799-0.293
		s-0.285-0.46-0.285-0.795c0-0.158,0.023-0.304,0.07-0.438s0.115-0.25,0.205-0.347s0.201-0.17,0.332-0.222s0.277-0.077,0.438-0.077
		c0.208,0,0.387,0.044,0.536,0.132s0.261,0.202,0.335,0.341s0.111,0.281,0.111,0.426c0,0.134-0.039,0.221-0.115,0.261
		S22.029,3.708,21.89,3.708z M20.847,3.405h0.967c-0.013-0.182-0.062-0.319-0.147-0.409S21.468,2.86,21.329,2.86
		c-0.133,0-0.242,0.046-0.327,0.138S20.865,3.225,20.847,3.405z"/>
	<path fill="#FFFFFF" d="M23.263,2.788v0.064c0.094-0.124,0.196-0.214,0.308-0.272s0.239-0.087,0.384-0.087
		c0.141,0,0.266,0.031,0.377,0.092s0.193,0.148,0.248,0.26c0.035,0.065,0.058,0.135,0.068,0.211s0.016,0.172,0.016,0.289v0.992
		c0,0.107-0.024,0.188-0.073,0.242s-0.112,0.082-0.19,0.082c-0.08,0-0.144-0.028-0.193-0.084s-0.074-0.136-0.074-0.24V3.448
		c0-0.176-0.024-0.31-0.073-0.403s-0.146-0.14-0.292-0.14c-0.095,0-0.182,0.028-0.26,0.085s-0.135,0.134-0.172,0.233
		c-0.026,0.08-0.039,0.228-0.039,0.445v0.668c0,0.108-0.025,0.189-0.075,0.243s-0.115,0.081-0.194,0.081
		c-0.077,0-0.14-0.028-0.189-0.084s-0.074-0.136-0.074-0.24V2.795c0-0.102,0.022-0.177,0.066-0.228s0.105-0.075,0.182-0.075
		c0.047,0,0.089,0.011,0.127,0.033s0.068,0.055,0.091,0.1S23.263,2.724,23.263,2.788z"/>
	<path fill="#FFFFFF" d="M27.106,4c0,0.066-0.02,0.137-0.06,0.213s-0.1,0.147-0.182,0.216s-0.184,0.124-0.308,0.165
		s-0.263,0.063-0.418,0.063c-0.33,0-0.586-0.096-0.771-0.288s-0.277-0.45-0.277-0.772c0-0.219,0.042-0.412,0.127-0.58
		s0.207-0.298,0.367-0.39s0.352-0.138,0.574-0.138c0.138,0,0.265,0.02,0.38,0.061s0.213,0.092,0.293,0.156s0.141,0.132,0.184,0.204
		s0.063,0.14,0.063,0.202c0,0.064-0.024,0.118-0.071,0.162S26.903,3.34,26.835,3.34c-0.044,0-0.081-0.011-0.11-0.034
		s-0.062-0.06-0.099-0.11c-0.065-0.099-0.133-0.173-0.204-0.223s-0.161-0.074-0.271-0.074c-0.158,0-0.285,0.062-0.381,0.185
		s-0.145,0.292-0.145,0.505c0,0.1,0.012,0.192,0.037,0.276s0.061,0.156,0.107,0.215s0.104,0.104,0.17,0.135S26.08,4.26,26.159,4.26
		c0.107,0,0.198-0.025,0.274-0.074s0.144-0.125,0.202-0.227c0.033-0.06,0.068-0.107,0.105-0.141s0.084-0.051,0.139-0.051
		c0.065,0,0.119,0.025,0.162,0.074S27.106,3.944,27.106,4z"/>
	<path fill="#FFFFFF" d="M27.841,2.245c-0.074,0-0.138-0.023-0.19-0.068s-0.079-0.11-0.079-0.193c0-0.076,0.027-0.138,0.081-0.187
		s0.117-0.073,0.188-0.073c0.069,0,0.13,0.022,0.184,0.066s0.08,0.109,0.08,0.193c0,0.082-0.026,0.146-0.078,0.192
		S27.913,2.245,27.841,2.245z M28.104,2.795v1.541c0,0.107-0.025,0.188-0.076,0.242s-0.115,0.082-0.193,0.082
		s-0.142-0.028-0.19-0.084s-0.073-0.136-0.073-0.24V2.811c0-0.105,0.024-0.185,0.073-0.238s0.112-0.08,0.19-0.08
		s0.143,0.027,0.193,0.08S28.104,2.7,28.104,2.795z"/>
	<path fill="#FFFFFF" d="M30.003,4.36c-0.129,0.1-0.253,0.175-0.374,0.226s-0.255,0.075-0.405,0.075
		c-0.137,0-0.257-0.027-0.36-0.081s-0.183-0.127-0.239-0.22S28.54,4.167,28.54,4.059c0-0.146,0.046-0.27,0.139-0.373
		s0.219-0.172,0.381-0.207c0.034-0.008,0.118-0.025,0.252-0.053s0.249-0.052,0.345-0.075s0.2-0.05,0.312-0.083
		c-0.006-0.141-0.035-0.244-0.085-0.31S29.729,2.86,29.571,2.86c-0.135,0-0.237,0.019-0.306,0.057s-0.127,0.094-0.176,0.17
		s-0.083,0.125-0.104,0.149s-0.063,0.036-0.13,0.036c-0.06,0-0.112-0.019-0.155-0.058s-0.065-0.087-0.065-0.147
		c0-0.094,0.033-0.185,0.1-0.273s0.17-0.162,0.311-0.219s0.316-0.086,0.525-0.086c0.234,0,0.418,0.028,0.553,0.083
		s0.229,0.143,0.284,0.263s0.083,0.279,0.083,0.477c0,0.125,0,0.231-0.001,0.318s-0.001,0.184-0.003,0.291
		c0,0.1,0.017,0.205,0.05,0.313s0.05,0.179,0.05,0.21c0,0.055-0.026,0.104-0.077,0.149s-0.11,0.067-0.175,0.067
		c-0.055,0-0.109-0.026-0.162-0.077S30.063,4.458,30.003,4.36z M29.968,3.588c-0.078,0.029-0.192,0.059-0.341,0.091
		s-0.252,0.055-0.31,0.07s-0.112,0.044-0.164,0.088s-0.078,0.104-0.078,0.183c0,0.081,0.031,0.149,0.092,0.206
		s0.141,0.085,0.24,0.085c0.105,0,0.203-0.023,0.292-0.069s0.155-0.106,0.196-0.179c0.048-0.081,0.072-0.213,0.072-0.398V3.588z"/>
	<path fill="#FFFFFF" d="M30.962,2.54h0.059v-0.32c0-0.086,0.002-0.153,0.007-0.202s0.017-0.091,0.038-0.126
		c0.021-0.037,0.051-0.066,0.09-0.089s0.083-0.034,0.131-0.034c0.068,0,0.129,0.025,0.184,0.076c0.037,0.034,0.06,0.075,0.069,0.124
		s0.015,0.118,0.015,0.208V2.54h0.195c0.075,0,0.133,0.018,0.173,0.054s0.06,0.082,0.06,0.138c0,0.072-0.028,0.122-0.085,0.15
		s-0.138,0.043-0.243,0.043h-0.1v0.98c0,0.083,0.003,0.147,0.009,0.192s0.021,0.082,0.047,0.109s0.066,0.042,0.124,0.042
		c0.031,0,0.073-0.005,0.127-0.017s0.095-0.017,0.125-0.017c0.043,0,0.082,0.017,0.116,0.052s0.052,0.077,0.052,0.128
		c0,0.086-0.047,0.152-0.141,0.197s-0.229,0.068-0.404,0.068c-0.167,0-0.293-0.028-0.379-0.084s-0.142-0.133-0.169-0.232
		s-0.04-0.231-0.04-0.396V2.924h-0.07c-0.077,0-0.135-0.018-0.176-0.055s-0.061-0.083-0.061-0.139s0.021-0.102,0.063-0.138
		S30.881,2.54,30.962,2.54z"/>
	<path fill="#FFFFFF" d="M33.733,4.36V4.292c-0.063,0.081-0.131,0.148-0.201,0.203s-0.147,0.095-0.23,0.122s-0.179,0.04-0.285,0.04
		c-0.129,0-0.244-0.027-0.347-0.08s-0.182-0.127-0.237-0.221c-0.066-0.113-0.1-0.276-0.1-0.488V2.811
		c0-0.107,0.024-0.187,0.072-0.239s0.112-0.079,0.191-0.079c0.081,0,0.146,0.027,0.195,0.08s0.074,0.133,0.074,0.238v0.854
		c0,0.124,0.011,0.228,0.031,0.312s0.059,0.15,0.112,0.197s0.127,0.071,0.22,0.071c0.09,0,0.175-0.027,0.254-0.08
		s0.138-0.123,0.174-0.209c0.03-0.076,0.045-0.241,0.045-0.496V2.811c0-0.105,0.024-0.185,0.074-0.238s0.114-0.08,0.193-0.08
		s0.144,0.026,0.191,0.079s0.072,0.132,0.072,0.239v1.545c0,0.102-0.023,0.178-0.069,0.229s-0.105,0.076-0.179,0.076
		s-0.133-0.026-0.181-0.079S33.733,4.455,33.733,4.36z"/>
	<path fill="#FFFFFF" d="M35.294,3.891v0.445c0,0.108-0.025,0.189-0.076,0.243s-0.115,0.081-0.193,0.081
		c-0.077,0-0.14-0.027-0.189-0.082s-0.074-0.135-0.074-0.242V2.852c0-0.24,0.087-0.359,0.26-0.359c0.089,0,0.152,0.028,0.191,0.084
		s0.061,0.139,0.064,0.248c0.063-0.109,0.129-0.192,0.196-0.248s0.156-0.084,0.269-0.084s0.221,0.028,0.326,0.084
		s0.158,0.13,0.158,0.223c0,0.065-0.022,0.119-0.067,0.161s-0.094,0.063-0.146,0.063c-0.02,0-0.066-0.012-0.142-0.036
		s-0.141-0.036-0.198-0.036c-0.078,0-0.142,0.021-0.191,0.062s-0.088,0.102-0.115,0.183S35.32,3.373,35.31,3.484
		S35.294,3.731,35.294,3.891z"/>
	<path fill="#FFFFFF" d="M37.765,4.36c-0.129,0.1-0.254,0.175-0.374,0.226s-0.256,0.075-0.405,0.075
		c-0.137,0-0.257-0.027-0.36-0.081s-0.184-0.127-0.239-0.22s-0.084-0.193-0.084-0.301c0-0.146,0.046-0.27,0.139-0.373
		s0.22-0.172,0.381-0.207c0.034-0.008,0.118-0.025,0.252-0.053s0.249-0.052,0.345-0.075s0.199-0.05,0.312-0.083
		c-0.007-0.141-0.035-0.244-0.085-0.31S37.49,2.86,37.333,2.86c-0.136,0-0.237,0.019-0.306,0.057s-0.127,0.094-0.176,0.17
		s-0.083,0.125-0.104,0.149s-0.063,0.036-0.13,0.036c-0.06,0-0.111-0.019-0.155-0.058s-0.065-0.087-0.065-0.147
		c0-0.094,0.033-0.185,0.1-0.273s0.17-0.162,0.311-0.219s0.315-0.086,0.525-0.086c0.234,0,0.419,0.028,0.553,0.083
		s0.229,0.143,0.284,0.263s0.083,0.279,0.083,0.477c0,0.125,0,0.231-0.001,0.318S38.25,3.813,38.249,3.92
		c0,0.1,0.017,0.205,0.05,0.313s0.05,0.179,0.05,0.21c0,0.055-0.025,0.104-0.077,0.149s-0.109,0.067-0.175,0.067
		c-0.055,0-0.108-0.026-0.162-0.077S37.824,4.458,37.765,4.36z M37.729,3.588c-0.078,0.029-0.191,0.059-0.341,0.091
		s-0.252,0.055-0.31,0.07s-0.112,0.044-0.164,0.088s-0.078,0.104-0.078,0.183c0,0.081,0.03,0.149,0.092,0.206
		s0.142,0.085,0.24,0.085c0.105,0,0.203-0.023,0.292-0.069s0.154-0.106,0.196-0.179c0.048-0.081,0.072-0.213,0.072-0.398V3.588z"/>
	<path fill="#FFFFFF" d="M41.282,3.708h-1.043c0.001,0.121,0.025,0.228,0.073,0.32s0.11,0.162,0.189,0.209s0.166,0.07,0.261,0.07
		c0.063,0,0.122-0.007,0.175-0.022s0.104-0.039,0.153-0.07s0.095-0.066,0.137-0.103s0.096-0.086,0.162-0.148
		c0.027-0.023,0.066-0.035,0.117-0.035c0.055,0,0.099,0.015,0.133,0.045S41.69,4.045,41.69,4.1c0,0.048-0.019,0.104-0.057,0.169
		s-0.095,0.126-0.171,0.186s-0.172,0.108-0.287,0.147s-0.248,0.059-0.397,0.059c-0.343,0-0.608-0.098-0.799-0.293
		s-0.285-0.46-0.285-0.795c0-0.158,0.023-0.304,0.07-0.438s0.115-0.25,0.205-0.347s0.2-0.17,0.332-0.222s0.277-0.077,0.438-0.077
		c0.208,0,0.387,0.044,0.536,0.132s0.261,0.202,0.335,0.341s0.111,0.281,0.111,0.426c0,0.134-0.038,0.221-0.115,0.261
		S41.422,3.708,41.282,3.708z M40.239,3.405h0.967c-0.013-0.182-0.063-0.319-0.147-0.409S40.861,2.86,40.722,2.86
		c-0.133,0-0.242,0.046-0.327,0.138S40.258,3.225,40.239,3.405z"/>
	<path fill="#FFFFFF" d="M43.944,3.616v0.709c0,0.112-0.025,0.196-0.076,0.252s-0.118,0.084-0.201,0.084
		c-0.081,0-0.146-0.028-0.196-0.084s-0.075-0.14-0.075-0.252v-0.85c0-0.134-0.005-0.238-0.014-0.313s-0.034-0.135-0.074-0.183
		s-0.104-0.071-0.191-0.071c-0.175,0-0.289,0.06-0.345,0.18s-0.083,0.292-0.083,0.516v0.721c0,0.111-0.025,0.194-0.075,0.251
		s-0.116,0.085-0.198,0.085c-0.081,0-0.146-0.028-0.198-0.085s-0.077-0.14-0.077-0.251V2.799c0-0.1,0.023-0.176,0.069-0.229
		s0.107-0.078,0.183-0.078c0.073,0,0.134,0.024,0.183,0.073s0.073,0.116,0.073,0.202v0.051c0.093-0.111,0.191-0.192,0.297-0.244
		s0.223-0.078,0.352-0.078c0.134,0,0.249,0.027,0.346,0.08s0.176,0.134,0.238,0.242c0.09-0.109,0.187-0.19,0.289-0.243
		s0.217-0.079,0.342-0.079c0.146,0,0.271,0.029,0.377,0.086s0.185,0.139,0.236,0.246c0.046,0.096,0.068,0.248,0.068,0.455v1.041
		c0,0.112-0.025,0.196-0.076,0.252s-0.118,0.084-0.201,0.084c-0.081,0-0.146-0.028-0.198-0.085s-0.077-0.14-0.077-0.251V3.428
		c0-0.115-0.005-0.207-0.015-0.275s-0.036-0.127-0.079-0.174s-0.108-0.07-0.195-0.07c-0.07,0-0.137,0.021-0.2,0.063
		s-0.112,0.098-0.147,0.168C43.964,3.229,43.944,3.388,43.944,3.616z"/>
</g>
<path fill-rule="evenodd" clip-rule="evenodd" fill="#FFFFFF" d="M7.189,3.808c0.217,0.347,0.504,0.393,0.837,0.377
	c0.409-0.015,0.464-0.176,0.53-0.201c0.016,0.055,0.03,0.085,0.045,0.121l0.03,0.045h0.69V1.463H8.486L8.48,3.364
	C8.345,3.449,8.43,3.475,8.334,3.479c-0.056,0.005-0.111,0-0.162-0.005C8.012,3.439,7.931,3.333,7.931,3.167V1.463H7.089v1.553
	C7.089,3.439,7.114,3.651,7.189,3.808L7.189,3.808z M10.153,4.04C10.08,4.134,9.958,4.159,9.867,4.159
	c-0.1,0-0.225-0.025-0.299-0.119C9.6,3.647,9.691,3.209,9.867,3.181C10.008,3.158,10.095,3.533,10.153,4.04L10.153,4.04z
	 M10.153,1.611C10.08,1.517,9.958,1.492,9.867,1.492c-0.1,0-0.225,0.025-0.299,0.119C9.6,2.003,9.691,2.441,9.867,2.47
	C10.008,2.493,10.095,2.118,10.153,1.611L10.153,1.611z M3.236,9.835C3.163,9.929,3.041,9.954,2.951,9.954
	c-0.1,0-0.226-0.025-0.299-0.119c0.031-0.392,0.123-0.83,0.299-0.859C3.091,8.953,3.178,9.328,3.236,9.835L3.236,9.835z
	 M3.236,7.406C3.163,7.312,3.041,7.287,2.951,7.287c-0.1,0-0.226,0.025-0.299,0.119c0.031,0.393,0.123,0.831,0.299,0.859
	C3.091,8.288,3.178,7.913,3.236,7.406L3.236,7.406z M2.333,7.118C2.273,7.059,2.166,7.05,2.075,7.05
	c-0.091,0-0.195,0.008-0.27,0.068c-0.063,0.06-0.072,0.171-0.072,0.238c0,0.076,0.008,0.175,0.072,0.234
	c0.075,0.06,0.19,0.067,0.27,0.067c0.075,0,0.198-0.008,0.258-0.067c0.076-0.059,0.083-0.155,0.083-0.234
	C2.416,7.281,2.408,7.178,2.333,7.118L2.333,7.118z M1.745,7.893H2.4v2.112H1.745V7.893L1.745,7.893z M8.185,7.678
	C8.088,7.426,7.836,7.3,7.429,7.3h-0.64L6.731,7.958h0.597c0.113,0,0.194,0.02,0.24,0.064C7.611,8.051,7.63,8.153,7.63,8.334v0.088
	H7.332c-0.291,0-0.473,0.029-0.546,0.092C6.61,8.616,6.521,8.82,6.521,9.134v0.02c0,0.179,0.039,0.339,0.112,0.479
	c0.113,0.184,0.264,0.275,0.454,0.275h0.054c0.198,0,0.384-0.067,0.57-0.188c0.004,0.039,0.008,0.077,0.02,0.111
	c0.004,0.014,0.008,0.034,0.012,0.048H8.27V9.5c0.154,0.275,0.424,0.414,0.809,0.414c0.174,0,0.333-0.009,0.469-0.029
	c0.217-0.043,0.326-0.068,0.326-0.077V9.158H9.869C9.625,9.221,9.392,9.25,9.171,9.25h-0.05c-0.104,0-0.17-0.015-0.229-0.034
	C8.807,9.178,8.764,9.071,8.764,8.897V8.82h1.159V8.805V8.36c0-0.247-0.023-0.44-0.074-0.581C9.721,7.431,9.442,7.257,9.016,7.257
	c-0.151,0-0.291,0.024-0.434,0.082c-0.176,0.085-0.3,0.221-0.375,0.406C8.201,7.721,8.193,7.699,8.185,7.678L8.185,7.678z
	 M9.283,8.239v0.043h-0.52V8.162c0-0.199,0.074-0.3,0.256-0.3c0.066,0,0.124,0.02,0.17,0.058C9.252,7.953,9.283,8.06,9.283,8.239
	L9.283,8.239z M7.63,8.95v0.291C7.518,9.304,7.417,9.347,7.336,9.347c-0.117,0-0.174-0.073-0.174-0.213
	c0-0.067,0.011-0.111,0.03-0.135C7.219,8.965,7.293,8.95,7.417,8.95H7.63L7.63,8.95z M0.449,4.514L0.449,4.514
	C0.353,4.495,0.289,4.4,0.308,4.303l0.601-3.025c0.02-0.097,0.114-0.161,0.211-0.141l0,0c0.097,0.019,0.161,0.114,0.142,0.211
	L0.661,4.373C0.642,4.47,0.546,4.534,0.449,4.514L0.449,4.514z M4.251,4.514L4.251,4.514C4.153,4.495,4.09,4.4,4.109,4.303
	L4.71,1.278c0.019-0.097,0.114-0.161,0.211-0.141l0,0c0.097,0.019,0.161,0.114,0.141,0.211L4.462,4.373
	C4.443,4.47,4.348,4.534,4.251,4.514L4.251,4.514z M5.969,4.514L5.969,4.514C5.872,4.495,5.809,4.4,5.828,4.303l0.601-3.025
	c0.02-0.097,0.114-0.161,0.212-0.141l0,0c0.097,0.019,0.161,0.114,0.141,0.211L6.181,4.373C6.162,4.47,6.066,4.534,5.969,4.514
	L5.969,4.514z M10.4,4.514L10.4,4.514c-0.098-0.019-0.161-0.114-0.142-0.211l0.601-3.025c0.02-0.097,0.115-0.161,0.212-0.141l0,0
	c0.097,0.019,0.161,0.114,0.141,0.211l-0.601,3.025C10.592,4.47,10.497,4.534,10.4,4.514L10.4,4.514z M10.267,10.384L10.267,10.384
	c-0.098-0.019-0.161-0.115-0.142-0.212l0.601-3.024c0.02-0.097,0.115-0.161,0.212-0.142l0,0c0.097,0.02,0.161,0.114,0.142,0.211
	l-0.601,3.025C10.458,10.339,10.364,10.403,10.267,10.384L10.267,10.384z M5.642,10.384L5.642,10.384
	c-0.097-0.019-0.161-0.115-0.141-0.212l0.601-3.024C6.121,7.05,6.216,6.987,6.313,7.006l0,0c0.098,0.02,0.161,0.114,0.142,0.211
	l-0.601,3.025C5.834,10.339,5.739,10.403,5.642,10.384L5.642,10.384z M3.658,10.384L3.658,10.384
	c-0.097-0.019-0.161-0.115-0.142-0.212l0.601-3.024C4.136,7.05,4.231,6.987,4.329,7.006l0,0C4.426,7.025,4.489,7.12,4.47,7.217
	l-0.601,3.025C3.85,10.339,3.755,10.403,3.658,10.384L3.658,10.384z M0.505,10.384L0.505,10.384
	c-0.097-0.019-0.161-0.115-0.142-0.212l0.601-3.024C0.984,7.05,1.08,6.987,1.177,7.006l0,0c0.097,0.02,0.161,0.114,0.141,0.211
	l-0.601,3.025C0.697,10.339,0.603,10.403,0.505,10.384L0.505,10.384z M3.757,1.622C3.566,1.3,3.301,1.263,3.004,1.277
	c-0.376,0.014-0.622,0.17-0.673,0.194C2.317,1.418,2.298,1.385,2.284,1.353L2.261,1.305H1.629V3.83h0.762V2.033
	c0.125-0.076,0.237-0.094,0.325-0.108c0.051-0.005,0.102,0,0.148,0.004c0.144,0.033,0.218,0.128,0.218,0.284v1.443l-0.002,0
	c0,0.736-1.015,0.553-1.019,0.553C1.803,4.197,1.792,4.544,1.994,4.633c0.005,0,1.801,0.64,1.854-0.908
	C3.849,3.708,3.85,3.618,3.85,3.563l0,0V3.539V3.537V3.534V3.532V3.53V3.528V3.526V3.525V3.524V2.354
	C3.85,1.962,3.826,1.754,3.757,1.622L3.757,1.622z M1.661,0h8.198c0.914,0,1.661,0.748,1.661,1.661v8.198
	c0,0.914-0.748,1.661-1.661,1.661H1.661C0.748,11.52,0,10.773,0,9.859V1.661C0,0.748,0.748,0,1.661,0z"/>
</svg>
