<?xml version="1.0" encoding="utf-8"?>
<!-- Generator: Adobe Illustrator 16.0.0, SVG Export Plug-In . SVG Version: 6.00 Build 0)  -->
<!DOCTYPE svg PUBLIC "-//W3C//DTD SVG 1.1//EN" "http://www.w3.org/Graphics/SVG/1.1/DTD/svg11.dtd" [
	<!ENTITY ns_flows "http://ns.adobe.com/Flows/1.0/">
	<!ENTITY ns_extend "http://ns.adobe.com/Extensibility/1.0/">
	<!ENTITY ns_ai "http://ns.adobe.com/AdobeIllustrator/10.0/">
	<!ENTITY ns_graphs "http://ns.adobe.com/Graphs/1.0/">
]>
<svg version="1.1" id="Camada_1" xmlns:x="&ns_extend;" xmlns:i="&ns_ai;" xmlns:graph="&ns_graphs;"
	 xmlns="http://www.w3.org/2000/svg" xmlns:xlink="http://www.w3.org/1999/xlink" xmlns:a="http://ns.adobe.com/AdobeSVGViewerExtensions/3.0/"
	 x="0px" y="0px" width="80.72px" height="12.562px" viewBox="0 0 80.72 12.562" enable-background="new 0 0 80.72 12.562"
	 xml:space="preserve">
<g>
	<path fill="#FFFFFF" d="M15.62,5.753v4.168h2.352c0.188,0,0.332,0.045,0.432,0.137s0.15,0.206,0.15,0.344
		c0,0.141-0.049,0.254-0.148,0.342s-0.244,0.131-0.434,0.131h-2.801c-0.252,0-0.434-0.056-0.545-0.168s-0.166-0.293-0.166-0.543
		v-4.41c0-0.234,0.053-0.41,0.158-0.527s0.244-0.176,0.416-0.176c0.174,0,0.316,0.058,0.424,0.174
		C15.566,5.34,15.62,5.516,15.62,5.753z"/>
	<path fill="#FFFFFF" d="M22.218,9.065h-2.086c0.002,0.242,0.051,0.456,0.146,0.641s0.221,0.324,0.379,0.418
		s0.332,0.141,0.521,0.141c0.127,0,0.244-0.015,0.35-0.045s0.208-0.077,0.307-0.141s0.19-0.132,0.273-0.205s0.191-0.172,0.324-0.297
		c0.055-0.047,0.133-0.07,0.234-0.07c0.109,0,0.198,0.03,0.266,0.09s0.102,0.145,0.102,0.254c0,0.096-0.038,0.209-0.113,0.338
		s-0.189,0.252-0.342,0.371s-0.344,0.217-0.574,0.295s-0.496,0.117-0.795,0.117c-0.685,0-1.217-0.195-1.598-0.586
		s-0.57-0.92-0.57-1.59c0-0.315,0.047-0.607,0.141-0.877s0.23-0.5,0.41-0.693s0.401-0.34,0.664-0.443s0.555-0.154,0.875-0.154
		c0.417,0,0.774,0.088,1.072,0.264s0.521,0.403,0.67,0.682s0.223,0.563,0.223,0.852c0,0.268-0.077,0.442-0.23,0.521
		S22.497,9.065,22.218,9.065z M20.132,8.46h1.934c-0.026-0.365-0.125-0.637-0.295-0.818S21.375,7.37,21.097,7.37
		c-0.266,0-0.484,0.092-0.654,0.275S20.168,8.101,20.132,8.46z"/>
	<path fill="#FFFFFF" d="M24.054,6.729h0.117V6.089c0-0.172,0.004-0.307,0.014-0.404s0.035-0.182,0.076-0.252
		c0.042-0.073,0.102-0.132,0.18-0.178c0.078-0.045,0.166-0.068,0.262-0.068c0.135,0,0.258,0.051,0.367,0.152
		c0.073,0.068,0.119,0.15,0.139,0.248s0.029,0.236,0.029,0.416v0.727h0.391c0.151,0,0.266,0.036,0.346,0.107S26.093,7,26.093,7.112
		c0,0.143-0.057,0.244-0.17,0.301s-0.275,0.086-0.486,0.086h-0.199V9.46c0,0.167,0.006,0.295,0.018,0.385s0.043,0.163,0.094,0.219
		s0.133,0.084,0.248,0.084c0.063,0,0.147-0.011,0.254-0.033s0.19-0.033,0.25-0.033c0.086,0,0.164,0.035,0.232,0.104
		s0.104,0.154,0.104,0.256c0,0.172-0.094,0.303-0.281,0.395s-0.457,0.137-0.809,0.137c-0.333,0-0.586-0.056-0.758-0.168
		s-0.285-0.267-0.338-0.465s-0.08-0.462-0.08-0.793V7.499H24.03c-0.154,0-0.271-0.037-0.352-0.109s-0.121-0.166-0.121-0.277
		s0.042-0.204,0.127-0.275S23.892,6.729,24.054,6.729z"/>
	<path fill="#FFFFFF" d="M27.886,9.433v0.891c0,0.216-0.051,0.378-0.152,0.486s-0.23,0.162-0.387,0.162
		c-0.154,0-0.28-0.055-0.379-0.164s-0.148-0.271-0.148-0.484V7.354c0-0.479,0.173-0.719,0.52-0.719c0.177,0,0.305,0.056,0.383,0.168
		s0.121,0.277,0.129,0.496c0.127-0.219,0.258-0.384,0.393-0.496s0.313-0.168,0.537-0.168s0.441,0.056,0.652,0.168
		s0.316,0.26,0.316,0.445c0,0.13-0.045,0.238-0.135,0.322s-0.187,0.127-0.291,0.127c-0.039,0-0.133-0.024-0.283-0.072
		s-0.282-0.072-0.396-0.072c-0.156,0-0.284,0.041-0.383,0.123s-0.176,0.204-0.23,0.365s-0.092,0.354-0.113,0.576
		S27.886,9.112,27.886,9.433z"/>
	<path fill="#FFFFFF" d="M32.827,10.37c-0.258,0.201-0.507,0.351-0.748,0.451s-0.511,0.15-0.811,0.15
		c-0.273,0-0.514-0.054-0.721-0.162s-0.367-0.254-0.479-0.439s-0.168-0.385-0.168-0.602c0-0.292,0.092-0.541,0.277-0.746
		s0.439-0.344,0.762-0.414c0.068-0.016,0.236-0.051,0.504-0.105s0.498-0.105,0.689-0.15s0.399-0.101,0.623-0.166
		c-0.013-0.281-0.07-0.488-0.17-0.619S32.278,7.37,31.963,7.37c-0.271,0-0.475,0.038-0.611,0.113S31.098,7.672,31,7.823
		s-0.167,0.25-0.207,0.299s-0.127,0.072-0.26,0.072c-0.12,0-0.223-0.039-0.311-0.115s-0.131-0.175-0.131-0.295
		c0-0.188,0.066-0.37,0.199-0.547s0.34-0.323,0.621-0.438s0.631-0.172,1.051-0.172c0.469,0,0.837,0.055,1.105,0.166
		s0.458,0.286,0.568,0.525s0.166,0.557,0.166,0.953c0,0.25,0,0.462-0.002,0.637s-0.003,0.369-0.006,0.582
		c0,0.201,0.033,0.41,0.1,0.627s0.1,0.357,0.1,0.42c0,0.109-0.051,0.209-0.154,0.299s-0.219,0.135-0.35,0.135
		c-0.109,0-0.217-0.051-0.324-0.154S32.946,10.565,32.827,10.37z M32.756,8.827c-0.156,0.057-0.383,0.118-0.682,0.182
		S31.57,9.12,31.456,9.149s-0.224,0.088-0.328,0.176s-0.156,0.209-0.156,0.365c0,0.162,0.061,0.299,0.184,0.412
		s0.283,0.17,0.48,0.17c0.211,0,0.406-0.046,0.584-0.139s0.309-0.211,0.393-0.357c0.096-0.162,0.145-0.427,0.145-0.797V8.827z"/>
	<path fill="#FFFFFF" d="M38.319,9.577c0,0.294-0.072,0.546-0.215,0.756s-0.355,0.369-0.635,0.477s-0.621,0.162-1.021,0.162
		c-0.383,0-0.711-0.059-0.984-0.176s-0.475-0.264-0.605-0.439s-0.195-0.352-0.195-0.529c0-0.117,0.042-0.217,0.125-0.301
		s0.189-0.125,0.316-0.125c0.112,0,0.198,0.027,0.258,0.082s0.117,0.131,0.172,0.23c0.109,0.19,0.24,0.332,0.393,0.426
		s0.36,0.141,0.623,0.141c0.213,0,0.389-0.047,0.525-0.143s0.205-0.204,0.205-0.326c0-0.188-0.071-0.324-0.213-0.41
		s-0.375-0.168-0.701-0.246c-0.367-0.091-0.666-0.187-0.896-0.287s-0.415-0.232-0.553-0.396s-0.207-0.366-0.207-0.605
		c0-0.213,0.064-0.416,0.191-0.605s0.316-0.342,0.564-0.455s0.549-0.17,0.9-0.17c0.276,0,0.524,0.029,0.744,0.086
		s0.404,0.134,0.551,0.23s0.259,0.203,0.336,0.32s0.115,0.232,0.115,0.344c0,0.123-0.041,0.223-0.123,0.301s-0.199,0.117-0.35,0.117
		c-0.109,0-0.203-0.031-0.279-0.094s-0.165-0.156-0.264-0.281c-0.081-0.104-0.176-0.188-0.285-0.25s-0.258-0.094-0.445-0.094
		c-0.193,0-0.353,0.041-0.48,0.123s-0.191,0.184-0.191,0.307c0,0.112,0.047,0.204,0.141,0.275s0.22,0.131,0.379,0.178
		s0.377,0.104,0.656,0.172c0.331,0.081,0.601,0.177,0.811,0.289s0.369,0.244,0.477,0.396S38.319,9.382,38.319,9.577z"/>
	<path fill="#FFFFFF" d="M43.518,8.644h-1.063v1.621c0,0.232-0.055,0.408-0.164,0.527s-0.247,0.18-0.414,0.18
		c-0.175,0-0.315-0.059-0.422-0.178s-0.16-0.292-0.16-0.521V5.858c0-0.255,0.059-0.438,0.176-0.547s0.304-0.164,0.559-0.164h1.488
		c0.44,0,0.778,0.034,1.016,0.102c0.234,0.065,0.437,0.173,0.607,0.324c0.171,0.151,0.3,0.336,0.389,0.555s0.133,0.465,0.133,0.738
		c0,0.583-0.18,1.025-0.539,1.326S44.229,8.644,43.518,8.644z M43.237,6.019h-0.781v1.75h0.781c0.273,0,0.502-0.029,0.686-0.086
		s0.323-0.151,0.42-0.281s0.145-0.301,0.145-0.512c0-0.252-0.074-0.458-0.223-0.617C44.097,6.103,43.755,6.019,43.237,6.019z"/>
	<path fill="#FFFFFF" d="M50.245,8.804c0,0.318-0.05,0.611-0.148,0.879s-0.242,0.499-0.43,0.691s-0.411,0.34-0.672,0.443
		s-0.554,0.154-0.879,0.154c-0.323,0-0.613-0.052-0.871-0.156s-0.481-0.253-0.67-0.447s-0.332-0.423-0.43-0.688
		s-0.146-0.557-0.146-0.877c0-0.323,0.05-0.619,0.148-0.887s0.241-0.498,0.426-0.688s0.409-0.336,0.672-0.439
		s0.554-0.154,0.871-0.154c0.323,0,0.616,0.052,0.879,0.156s0.488,0.252,0.676,0.445S50,7.659,50.098,7.925
		S50.245,8.483,50.245,8.804z M49.174,8.804c0-0.435-0.096-0.773-0.287-1.016s-0.448-0.363-0.771-0.363
		c-0.208,0-0.392,0.054-0.551,0.162s-0.281,0.268-0.367,0.479s-0.129,0.457-0.129,0.738c0,0.279,0.042,0.522,0.127,0.73
		s0.206,0.368,0.363,0.479s0.343,0.166,0.557,0.166c0.323,0,0.58-0.122,0.771-0.365S49.174,9.233,49.174,8.804z"/>
	<path fill="#FFFFFF" d="M52.143,9.433v0.891c0,0.216-0.051,0.378-0.152,0.486s-0.23,0.162-0.387,0.162
		c-0.153,0-0.28-0.055-0.379-0.164s-0.148-0.271-0.148-0.484V7.354c0-0.479,0.173-0.719,0.52-0.719c0.177,0,0.305,0.056,0.383,0.168
		S52.1,7.081,52.108,7.3c0.128-0.219,0.259-0.384,0.393-0.496s0.313-0.168,0.537-0.168s0.441,0.056,0.652,0.168
		s0.316,0.26,0.316,0.445c0,0.13-0.045,0.238-0.135,0.322s-0.187,0.127-0.291,0.127c-0.039,0-0.134-0.024-0.283-0.072
		s-0.282-0.072-0.396-0.072c-0.156,0-0.284,0.041-0.383,0.123s-0.176,0.204-0.23,0.365s-0.093,0.354-0.113,0.576
		S52.143,9.112,52.143,9.433z"/>
	<path fill="#FFFFFF" d="M54.745,6.729h0.117V6.089c0-0.172,0.005-0.307,0.014-0.404s0.034-0.182,0.076-0.252
		c0.042-0.073,0.102-0.132,0.18-0.178c0.078-0.045,0.165-0.068,0.262-0.068c0.136,0,0.258,0.051,0.367,0.152
		c0.073,0.068,0.119,0.15,0.139,0.248s0.029,0.236,0.029,0.416v0.727h0.391c0.151,0,0.267,0.036,0.346,0.107S56.784,7,56.784,7.112
		c0,0.143-0.057,0.244-0.17,0.301s-0.275,0.086-0.486,0.086h-0.199V9.46c0,0.167,0.006,0.295,0.018,0.385s0.043,0.163,0.094,0.219
		s0.134,0.084,0.248,0.084c0.063,0,0.147-0.011,0.254-0.033s0.19-0.033,0.25-0.033c0.086,0,0.163,0.035,0.232,0.104
		s0.104,0.154,0.104,0.256c0,0.172-0.094,0.303-0.281,0.395s-0.457,0.137-0.809,0.137c-0.333,0-0.586-0.056-0.758-0.168
		s-0.284-0.267-0.338-0.465s-0.08-0.462-0.08-0.793V7.499h-0.141c-0.153,0-0.271-0.037-0.352-0.109s-0.121-0.166-0.121-0.277
		s0.042-0.204,0.127-0.275S54.583,6.729,54.745,6.729z"/>
	<path fill="#FFFFFF" d="M60.288,10.37v-0.137c-0.128,0.162-0.262,0.297-0.402,0.406s-0.294,0.191-0.461,0.244
		s-0.356,0.08-0.57,0.08c-0.258,0-0.489-0.053-0.693-0.16s-0.362-0.254-0.475-0.441c-0.133-0.227-0.199-0.552-0.199-0.977V7.272
		c0-0.213,0.048-0.373,0.145-0.479s0.224-0.158,0.383-0.158c0.161,0,0.292,0.053,0.391,0.16s0.148,0.266,0.148,0.477v1.707
		c0,0.248,0.021,0.455,0.063,0.623s0.116,0.299,0.225,0.395s0.255,0.143,0.439,0.143c0.18,0,0.349-0.053,0.508-0.16
		s0.274-0.246,0.348-0.418c0.06-0.151,0.09-0.482,0.09-0.992V7.272c0-0.211,0.05-0.37,0.148-0.477s0.228-0.16,0.387-0.16
		s0.286,0.053,0.383,0.158s0.145,0.265,0.145,0.479v3.09c0,0.203-0.046,0.355-0.139,0.457s-0.212,0.152-0.357,0.152
		s-0.267-0.053-0.361-0.158S60.288,10.56,60.288,10.37z"/>
	<path fill="#FFFFFF" d="M66.272,7.417v3.098c0,0.354-0.038,0.659-0.113,0.914s-0.196,0.466-0.363,0.633s-0.385,0.291-0.654,0.371
		s-0.604,0.121-1.006,0.121c-0.367,0-0.695-0.051-0.984-0.154s-0.512-0.236-0.668-0.398s-0.234-0.33-0.234-0.502
		c0-0.13,0.044-0.236,0.133-0.318s0.195-0.123,0.32-0.123c0.156,0,0.293,0.069,0.41,0.207c0.058,0.07,0.116,0.141,0.178,0.213
		s0.129,0.133,0.203,0.184s0.163,0.088,0.268,0.113s0.224,0.037,0.359,0.037c0.276,0,0.49-0.039,0.643-0.115s0.259-0.184,0.32-0.322
		s0.097-0.286,0.107-0.443s0.019-0.411,0.023-0.76c-0.164,0.229-0.354,0.404-0.568,0.523s-0.471,0.18-0.768,0.18
		c-0.356,0-0.669-0.091-0.936-0.273s-0.472-0.438-0.615-0.766s-0.215-0.707-0.215-1.137c0-0.32,0.044-0.609,0.131-0.867
		s0.212-0.475,0.373-0.652s0.348-0.311,0.559-0.4s0.442-0.135,0.695-0.135c0.302,0,0.563,0.058,0.785,0.174s0.427,0.297,0.617,0.545
		V7.218c0-0.185,0.046-0.328,0.137-0.43s0.208-0.152,0.352-0.152c0.206,0,0.343,0.067,0.41,0.201S66.272,7.165,66.272,7.417z
		 M63.182,8.769c0,0.432,0.095,0.759,0.283,0.98s0.433,0.332,0.732,0.332c0.177,0,0.345-0.047,0.502-0.143s0.286-0.238,0.385-0.43
		s0.148-0.424,0.148-0.697c0-0.435-0.096-0.773-0.287-1.016s-0.443-0.363-0.756-0.363c-0.305,0-0.549,0.116-0.732,0.348
		S63.182,8.341,63.182,8.769z"/>
	<path fill="#FFFFFF" d="M70.12,10.37v-0.137c-0.128,0.162-0.262,0.297-0.402,0.406s-0.294,0.191-0.461,0.244s-0.356,0.08-0.57,0.08
		c-0.258,0-0.489-0.053-0.693-0.16s-0.362-0.254-0.475-0.441c-0.133-0.227-0.199-0.552-0.199-0.977V7.272
		c0-0.213,0.048-0.373,0.145-0.479s0.224-0.158,0.383-0.158c0.161,0,0.292,0.053,0.391,0.16s0.148,0.266,0.148,0.477v1.707
		c0,0.248,0.021,0.455,0.063,0.623s0.116,0.299,0.225,0.395s0.255,0.143,0.439,0.143c0.18,0,0.349-0.053,0.508-0.16
		s0.274-0.246,0.348-0.418c0.06-0.151,0.09-0.482,0.09-0.992V7.272c0-0.211,0.05-0.37,0.148-0.477s0.228-0.16,0.387-0.16
		s0.286,0.053,0.383,0.158s0.145,0.265,0.145,0.479v3.09c0,0.203-0.046,0.355-0.139,0.457s-0.212,0.152-0.357,0.152
		s-0.267-0.053-0.361-0.158S70.12,10.56,70.12,10.37z"/>
	<path fill="#FFFFFF" d="M75.159,9.065h-2.086c0.003,0.242,0.052,0.456,0.146,0.641s0.222,0.324,0.379,0.418
		s0.331,0.141,0.521,0.141c0.128,0,0.244-0.015,0.35-0.045s0.208-0.077,0.307-0.141s0.19-0.132,0.273-0.205s0.191-0.172,0.324-0.297
		c0.055-0.047,0.133-0.07,0.234-0.07c0.109,0,0.198,0.03,0.266,0.09s0.102,0.145,0.102,0.254c0,0.096-0.038,0.209-0.113,0.338
		s-0.189,0.252-0.342,0.371s-0.344,0.217-0.574,0.295s-0.495,0.117-0.795,0.117c-0.685,0-1.218-0.195-1.598-0.586
		s-0.57-0.92-0.57-1.59c0-0.315,0.047-0.607,0.141-0.877s0.23-0.5,0.41-0.693s0.401-0.34,0.664-0.443s0.555-0.154,0.875-0.154
		c0.417,0,0.774,0.088,1.072,0.264s0.521,0.403,0.67,0.682s0.223,0.563,0.223,0.852c0,0.268-0.077,0.442-0.23,0.521
		S75.437,9.065,75.159,9.065z M74.245,5.905l-0.391-0.457l-0.391,0.457c-0.109,0.13-0.184,0.209-0.223,0.238
		s-0.112,0.043-0.219,0.043h-0.313c-0.106,0-0.16-0.018-0.16-0.055c0-0.029,0.04-0.094,0.121-0.195l0.434-0.52
		c0.036-0.044,0.078-0.096,0.125-0.154s0.088-0.1,0.123-0.125c0.035-0.024,0.087-0.044,0.154-0.059
		c0.067-0.014,0.146-0.021,0.234-0.021h0.219c0.172,0,0.29,0.021,0.354,0.063c0.063,0.042,0.158,0.141,0.283,0.297l0.449,0.527
		c0.075,0.099,0.113,0.158,0.113,0.176c0,0.044-0.059,0.066-0.176,0.066h-0.297c-0.078,0-0.14-0.011-0.186-0.033
		S74.412,6.097,74.37,6.05S74.287,5.955,74.245,5.905z M73.073,8.46h1.934c-0.026-0.365-0.124-0.637-0.295-0.818
		S74.316,7.37,74.038,7.37c-0.266,0-0.483,0.092-0.654,0.275S73.109,8.101,73.073,8.46z"/>
	<path fill="#FFFFFF" d="M80.369,9.577c0,0.294-0.071,0.546-0.215,0.756s-0.354,0.369-0.635,0.477s-0.62,0.162-1.021,0.162
		c-0.383,0-0.711-0.059-0.984-0.176s-0.476-0.264-0.605-0.439s-0.195-0.352-0.195-0.529c0-0.117,0.042-0.217,0.125-0.301
		s0.188-0.125,0.316-0.125c0.112,0,0.198,0.027,0.258,0.082s0.117,0.131,0.172,0.23c0.109,0.19,0.24,0.332,0.393,0.426
		s0.36,0.141,0.623,0.141c0.214,0,0.389-0.047,0.525-0.143s0.205-0.204,0.205-0.326c0-0.188-0.071-0.324-0.213-0.41
		s-0.376-0.168-0.701-0.246c-0.367-0.091-0.666-0.187-0.896-0.287s-0.415-0.232-0.553-0.396s-0.207-0.366-0.207-0.605
		c0-0.213,0.063-0.416,0.191-0.605s0.315-0.342,0.564-0.455s0.549-0.17,0.9-0.17c0.276,0,0.524,0.029,0.744,0.086
		s0.403,0.134,0.551,0.23s0.259,0.203,0.336,0.32s0.115,0.232,0.115,0.344c0,0.123-0.041,0.223-0.123,0.301s-0.198,0.117-0.35,0.117
		c-0.109,0-0.202-0.031-0.279-0.094s-0.165-0.156-0.264-0.281c-0.081-0.104-0.176-0.188-0.285-0.25s-0.258-0.094-0.445-0.094
		c-0.192,0-0.353,0.041-0.48,0.123s-0.191,0.184-0.191,0.307c0,0.112,0.047,0.204,0.141,0.275s0.22,0.131,0.379,0.178
		s0.378,0.104,0.656,0.172c0.331,0.081,0.601,0.177,0.811,0.289s0.368,0.244,0.477,0.396S80.369,9.382,80.369,9.577z"/>
</g>
<g>
	<path fill="#FFFFFF" d="M15.121,1.299v2.084h1.176c0.094,0,0.166,0.023,0.216,0.068s0.075,0.103,0.075,0.172
		c0,0.07-0.025,0.127-0.074,0.171S16.392,3.86,16.297,3.86h-1.4c-0.126,0-0.217-0.028-0.272-0.084s-0.083-0.146-0.083-0.271V1.299
		c0-0.117,0.026-0.205,0.079-0.264s0.122-0.088,0.208-0.088c0.087,0,0.158,0.029,0.212,0.087S15.121,1.181,15.121,1.299z"/>
	<path fill="#FFFFFF" d="M17.201,1.493c-0.074,0-0.138-0.023-0.19-0.068s-0.079-0.11-0.079-0.193c0-0.076,0.027-0.138,0.081-0.187
		s0.117-0.073,0.188-0.073c0.069,0,0.13,0.022,0.184,0.066s0.08,0.109,0.08,0.193c0,0.082-0.026,0.146-0.078,0.192
		S17.273,1.493,17.201,1.493z M17.465,2.043v1.541c0,0.107-0.025,0.188-0.076,0.242s-0.115,0.082-0.193,0.082
		s-0.142-0.028-0.19-0.084s-0.073-0.136-0.073-0.24V2.059c0-0.105,0.024-0.185,0.073-0.238s0.112-0.08,0.19-0.08
		s0.143,0.027,0.193,0.08S17.465,1.948,17.465,2.043z"/>
	<path fill="#FFFFFF" d="M19.928,3.249c0,0.066-0.02,0.137-0.06,0.213s-0.1,0.147-0.182,0.216s-0.184,0.124-0.308,0.165
		s-0.263,0.063-0.418,0.063c-0.33,0-0.586-0.096-0.771-0.288s-0.277-0.45-0.277-0.772c0-0.219,0.042-0.412,0.127-0.58
		s0.207-0.298,0.367-0.39s0.352-0.138,0.574-0.138c0.138,0,0.265,0.02,0.38,0.061s0.213,0.092,0.293,0.156s0.141,0.132,0.184,0.204
		S19.9,2.297,19.9,2.36c0,0.064-0.024,0.118-0.071,0.162s-0.105,0.066-0.173,0.066c-0.044,0-0.081-0.011-0.11-0.034
		s-0.062-0.06-0.099-0.11c-0.065-0.099-0.133-0.173-0.204-0.223s-0.161-0.074-0.271-0.074c-0.158,0-0.285,0.062-0.381,0.185
		s-0.145,0.292-0.145,0.505c0,0.1,0.012,0.192,0.037,0.276s0.061,0.156,0.107,0.215s0.104,0.104,0.17,0.135s0.139,0.046,0.219,0.046
		c0.107,0,0.198-0.025,0.274-0.074s0.144-0.125,0.202-0.227c0.033-0.06,0.068-0.107,0.105-0.141s0.084-0.051,0.139-0.051
		c0.065,0,0.119,0.025,0.162,0.074S19.928,3.192,19.928,3.249z"/>
	<path fill="#FFFFFF" d="M21.881,2.956h-1.043c0.001,0.121,0.026,0.228,0.073,0.32s0.111,0.162,0.189,0.209s0.166,0.07,0.261,0.07
		c0.064,0,0.122-0.007,0.175-0.022s0.104-0.039,0.153-0.07s0.095-0.066,0.137-0.103s0.096-0.086,0.162-0.148
		c0.027-0.023,0.066-0.035,0.117-0.035c0.055,0,0.099,0.015,0.133,0.045s0.051,0.072,0.051,0.127c0,0.048-0.019,0.104-0.057,0.169
		s-0.095,0.126-0.171,0.186S21.89,3.811,21.774,3.85s-0.248,0.059-0.397,0.059c-0.342,0-0.609-0.098-0.799-0.293
		s-0.285-0.46-0.285-0.795c0-0.158,0.023-0.304,0.07-0.438s0.115-0.25,0.205-0.347s0.201-0.17,0.332-0.222s0.277-0.077,0.438-0.077
		c0.208,0,0.387,0.044,0.536,0.132s0.261,0.202,0.335,0.341s0.111,0.281,0.111,0.426c0,0.134-0.039,0.221-0.115,0.261
		S22.02,2.956,21.881,2.956z M20.838,2.653h0.967c-0.013-0.182-0.062-0.319-0.147-0.409s-0.198-0.136-0.337-0.136
		c-0.133,0-0.242,0.046-0.327,0.138S20.856,2.473,20.838,2.653z"/>
	<path fill="#FFFFFF" d="M23.254,2.036V2.1c0.094-0.124,0.196-0.214,0.308-0.272s0.239-0.087,0.384-0.087
		c0.141,0,0.266,0.031,0.377,0.092s0.193,0.148,0.248,0.26c0.035,0.065,0.058,0.135,0.068,0.211s0.016,0.172,0.016,0.289v0.992
		c0,0.107-0.024,0.188-0.073,0.242s-0.112,0.082-0.19,0.082c-0.08,0-0.144-0.028-0.193-0.084s-0.074-0.136-0.074-0.24V2.696
		c0-0.176-0.024-0.31-0.073-0.403s-0.146-0.14-0.292-0.14c-0.095,0-0.182,0.028-0.26,0.085s-0.135,0.134-0.172,0.233
		c-0.026,0.08-0.039,0.228-0.039,0.445v0.668c0,0.108-0.025,0.189-0.075,0.243s-0.115,0.081-0.194,0.081
		c-0.077,0-0.14-0.028-0.189-0.084s-0.074-0.136-0.074-0.24V2.043c0-0.102,0.022-0.177,0.066-0.228s0.105-0.075,0.182-0.075
		c0.047,0,0.089,0.011,0.127,0.033s0.068,0.055,0.091,0.1S23.254,1.972,23.254,2.036z"/>
	<path fill="#FFFFFF" d="M27.098,3.249c0,0.066-0.02,0.137-0.06,0.213s-0.1,0.147-0.182,0.216s-0.184,0.124-0.308,0.165
		s-0.263,0.063-0.418,0.063c-0.33,0-0.586-0.096-0.771-0.288s-0.277-0.45-0.277-0.772c0-0.219,0.042-0.412,0.127-0.58
		s0.207-0.298,0.367-0.39s0.352-0.138,0.574-0.138c0.138,0,0.265,0.02,0.38,0.061s0.213,0.092,0.293,0.156s0.141,0.132,0.184,0.204
		s0.063,0.14,0.063,0.202c0,0.064-0.024,0.118-0.071,0.162s-0.105,0.066-0.173,0.066c-0.044,0-0.081-0.011-0.11-0.034
		s-0.062-0.06-0.099-0.11c-0.065-0.099-0.133-0.173-0.204-0.223s-0.161-0.074-0.271-0.074c-0.158,0-0.285,0.062-0.381,0.185
		s-0.145,0.292-0.145,0.505c0,0.1,0.012,0.192,0.037,0.276s0.061,0.156,0.107,0.215s0.104,0.104,0.17,0.135s0.139,0.046,0.219,0.046
		c0.107,0,0.198-0.025,0.274-0.074s0.144-0.125,0.202-0.227c0.033-0.06,0.068-0.107,0.105-0.141s0.084-0.051,0.139-0.051
		c0.065,0,0.119,0.025,0.162,0.074S27.098,3.192,27.098,3.249z"/>
	<path fill="#FFFFFF" d="M27.832,1.493c-0.074,0-0.138-0.023-0.19-0.068s-0.079-0.11-0.079-0.193c0-0.076,0.027-0.138,0.081-0.187
		s0.117-0.073,0.188-0.073c0.069,0,0.13,0.022,0.184,0.066s0.08,0.109,0.08,0.193c0,0.082-0.026,0.146-0.078,0.192
		S27.904,1.493,27.832,1.493z M28.096,2.043v1.541c0,0.107-0.025,0.188-0.076,0.242s-0.115,0.082-0.193,0.082
		s-0.142-0.028-0.19-0.084s-0.073-0.136-0.073-0.24V2.059c0-0.105,0.024-0.185,0.073-0.238s0.112-0.08,0.19-0.08
		s0.143,0.027,0.193,0.08S28.096,1.948,28.096,2.043z"/>
	<path fill="#FFFFFF" d="M29.994,3.608c-0.129,0.1-0.253,0.175-0.374,0.226s-0.255,0.075-0.405,0.075
		c-0.137,0-0.257-0.027-0.36-0.081s-0.183-0.127-0.239-0.22s-0.084-0.193-0.084-0.301c0-0.146,0.046-0.27,0.139-0.373
		s0.219-0.172,0.381-0.207c0.034-0.008,0.118-0.025,0.252-0.053s0.249-0.052,0.345-0.075s0.2-0.05,0.312-0.083
		c-0.006-0.141-0.035-0.244-0.085-0.31s-0.154-0.099-0.312-0.099c-0.135,0-0.237,0.019-0.306,0.057s-0.127,0.094-0.176,0.17
		s-0.083,0.125-0.104,0.149s-0.063,0.036-0.13,0.036c-0.06,0-0.112-0.019-0.155-0.058s-0.065-0.087-0.065-0.147
		c0-0.094,0.033-0.185,0.1-0.273s0.17-0.162,0.311-0.219s0.316-0.086,0.525-0.086c0.234,0,0.418,0.028,0.553,0.083
		s0.229,0.143,0.284,0.263s0.083,0.279,0.083,0.477c0,0.125,0,0.231-0.001,0.318s-0.001,0.184-0.003,0.291
		c0,0.1,0.017,0.205,0.05,0.313s0.05,0.179,0.05,0.21c0,0.055-0.026,0.104-0.077,0.149s-0.11,0.067-0.175,0.067
		c-0.055,0-0.109-0.026-0.162-0.077S30.054,3.706,29.994,3.608z M29.959,2.836c-0.078,0.029-0.192,0.059-0.341,0.091
		s-0.252,0.055-0.31,0.07s-0.112,0.044-0.164,0.088s-0.078,0.104-0.078,0.183c0,0.081,0.031,0.149,0.092,0.206
		s0.141,0.085,0.24,0.085c0.105,0,0.203-0.023,0.292-0.069s0.155-0.106,0.196-0.179c0.048-0.081,0.072-0.213,0.072-0.398V2.836z"/>
	<path fill="#FFFFFF" d="M30.953,1.788h0.059v-0.32c0-0.086,0.002-0.153,0.007-0.202s0.017-0.091,0.038-0.126
		c0.021-0.037,0.051-0.066,0.09-0.089s0.083-0.034,0.131-0.034c0.068,0,0.129,0.025,0.184,0.076c0.037,0.034,0.06,0.075,0.069,0.124
		s0.015,0.118,0.015,0.208v0.363h0.195c0.076,0,0.133,0.018,0.173,0.054s0.06,0.082,0.06,0.138c0,0.072-0.028,0.122-0.085,0.15
		s-0.138,0.043-0.243,0.043h-0.1v0.98c0,0.083,0.003,0.147,0.009,0.192s0.021,0.082,0.047,0.109s0.067,0.042,0.124,0.042
		c0.031,0,0.074-0.005,0.127-0.017s0.095-0.017,0.125-0.017c0.043,0,0.082,0.017,0.116,0.052s0.052,0.077,0.052,0.128
		c0,0.086-0.047,0.152-0.141,0.197S31.775,3.909,31.6,3.909c-0.167,0-0.293-0.028-0.379-0.084s-0.142-0.133-0.169-0.232
		s-0.04-0.231-0.04-0.396V2.172h-0.07c-0.077,0-0.135-0.018-0.176-0.055s-0.061-0.083-0.061-0.139s0.021-0.102,0.063-0.138
		S30.873,1.788,30.953,1.788z"/>
	<path fill="#FFFFFF" d="M33.725,3.608V3.54c-0.064,0.081-0.131,0.148-0.201,0.203s-0.147,0.095-0.23,0.122s-0.178,0.04-0.285,0.04
		c-0.129,0-0.245-0.027-0.347-0.08s-0.181-0.127-0.237-0.221c-0.066-0.113-0.1-0.276-0.1-0.488V2.059
		c0-0.107,0.024-0.187,0.072-0.239s0.112-0.079,0.191-0.079c0.081,0,0.146,0.027,0.195,0.08s0.074,0.133,0.074,0.238v0.854
		c0,0.124,0.01,0.228,0.031,0.312s0.058,0.15,0.112,0.197s0.127,0.071,0.22,0.071c0.09,0,0.174-0.027,0.254-0.08
		s0.137-0.123,0.174-0.209c0.03-0.076,0.045-0.241,0.045-0.496V2.059c0-0.105,0.025-0.185,0.074-0.238s0.114-0.08,0.193-0.08
		s0.143,0.026,0.191,0.079s0.072,0.132,0.072,0.239v1.545c0,0.102-0.023,0.178-0.069,0.229s-0.106,0.076-0.179,0.076
		s-0.133-0.026-0.181-0.079S33.725,3.703,33.725,3.608z"/>
	<path fill="#FFFFFF" d="M35.285,3.139v0.445c0,0.108-0.025,0.189-0.076,0.243s-0.115,0.081-0.193,0.081
		c-0.077,0-0.14-0.027-0.189-0.082s-0.074-0.135-0.074-0.242V2.1c0-0.24,0.086-0.359,0.26-0.359c0.088,0,0.152,0.028,0.191,0.084
		s0.061,0.139,0.064,0.248c0.064-0.109,0.129-0.192,0.196-0.248s0.157-0.084,0.269-0.084s0.221,0.028,0.326,0.084
		s0.158,0.13,0.158,0.223c0,0.065-0.022,0.119-0.067,0.161s-0.093,0.063-0.146,0.063c-0.02,0-0.067-0.012-0.142-0.036
		S35.721,2.2,35.664,2.2c-0.078,0-0.142,0.021-0.191,0.062s-0.088,0.102-0.115,0.183s-0.046,0.177-0.057,0.288
		S35.285,2.979,35.285,3.139z"/>
	<path fill="#FFFFFF" d="M37.756,3.608c-0.129,0.1-0.253,0.175-0.374,0.226s-0.255,0.075-0.405,0.075
		c-0.137,0-0.257-0.027-0.36-0.081s-0.183-0.127-0.239-0.22s-0.084-0.193-0.084-0.301c0-0.146,0.046-0.27,0.139-0.373
		s0.219-0.172,0.381-0.207c0.034-0.008,0.118-0.025,0.252-0.053s0.249-0.052,0.345-0.075s0.2-0.05,0.312-0.083
		c-0.006-0.141-0.035-0.244-0.085-0.31s-0.154-0.099-0.312-0.099c-0.135,0-0.237,0.019-0.306,0.057s-0.127,0.094-0.176,0.17
		s-0.083,0.125-0.104,0.149s-0.063,0.036-0.13,0.036c-0.06,0-0.112-0.019-0.155-0.058s-0.065-0.087-0.065-0.147
		c0-0.094,0.033-0.185,0.1-0.273s0.17-0.162,0.311-0.219s0.316-0.086,0.525-0.086c0.234,0,0.418,0.028,0.553,0.083
		s0.229,0.143,0.284,0.263s0.083,0.279,0.083,0.477c0,0.125,0,0.231-0.001,0.318s-0.001,0.184-0.003,0.291
		c0,0.1,0.017,0.205,0.05,0.313s0.05,0.179,0.05,0.21c0,0.055-0.026,0.104-0.077,0.149s-0.11,0.067-0.175,0.067
		c-0.055,0-0.109-0.026-0.162-0.077S37.816,3.706,37.756,3.608z M37.721,2.836c-0.078,0.029-0.192,0.059-0.341,0.091
		s-0.252,0.055-0.31,0.07s-0.112,0.044-0.164,0.088s-0.078,0.104-0.078,0.183c0,0.081,0.031,0.149,0.092,0.206
		s0.141,0.085,0.24,0.085c0.105,0,0.203-0.023,0.292-0.069s0.155-0.106,0.196-0.179c0.048-0.081,0.072-0.213,0.072-0.398V2.836z"/>
	<path fill="#FFFFFF" d="M41.273,2.956H40.23c0.001,0.121,0.026,0.228,0.073,0.32s0.111,0.162,0.189,0.209s0.166,0.07,0.261,0.07
		c0.064,0,0.122-0.007,0.175-0.022c0.053-0.015,0.104-0.039,0.153-0.07c0.05-0.032,0.096-0.066,0.137-0.103
		c0.042-0.037,0.096-0.086,0.162-0.148c0.027-0.023,0.066-0.035,0.117-0.035c0.055,0,0.1,0.015,0.133,0.045
		c0.035,0.03,0.051,0.072,0.051,0.127c0,0.048-0.018,0.104-0.057,0.169c-0.037,0.064-0.094,0.126-0.17,0.186
		s-0.172,0.108-0.287,0.147s-0.248,0.059-0.398,0.059c-0.342,0-0.609-0.098-0.799-0.293s-0.285-0.46-0.285-0.795
		c0-0.158,0.023-0.304,0.07-0.438s0.115-0.25,0.205-0.347s0.201-0.17,0.332-0.222s0.277-0.077,0.438-0.077
		c0.208,0,0.387,0.044,0.537,0.132c0.148,0.088,0.26,0.202,0.334,0.341s0.111,0.281,0.111,0.426c0,0.134-0.037,0.221-0.115,0.261
		C41.521,2.936,41.413,2.956,41.273,2.956z M40.23,2.653h0.966c-0.013-0.182-0.062-0.319-0.146-0.409
		c-0.086-0.09-0.198-0.136-0.337-0.136c-0.133,0-0.242,0.046-0.327,0.138S40.249,2.473,40.23,2.653z"/>
	<path fill="#FFFFFF" d="M43.935,2.864v0.709c0,0.112-0.025,0.196-0.076,0.252s-0.118,0.084-0.201,0.084
		c-0.081,0-0.146-0.028-0.196-0.084s-0.075-0.14-0.075-0.252v-0.85c0-0.134-0.005-0.238-0.014-0.313s-0.034-0.135-0.074-0.183
		s-0.104-0.071-0.191-0.071c-0.175,0-0.289,0.06-0.345,0.18s-0.083,0.292-0.083,0.516v0.721c0,0.111-0.025,0.194-0.075,0.251
		s-0.116,0.085-0.198,0.085c-0.081,0-0.146-0.028-0.198-0.085s-0.077-0.14-0.077-0.251V2.047c0-0.1,0.023-0.176,0.069-0.229
		s0.107-0.078,0.183-0.078c0.073,0,0.134,0.024,0.183,0.073s0.073,0.116,0.073,0.202v0.051c0.093-0.111,0.191-0.192,0.297-0.244
		s0.223-0.078,0.352-0.078c0.134,0,0.249,0.027,0.346,0.08s0.176,0.134,0.238,0.242c0.09-0.109,0.187-0.19,0.289-0.243
		s0.217-0.079,0.342-0.079c0.146,0,0.271,0.029,0.377,0.086s0.185,0.139,0.236,0.246c0.046,0.096,0.068,0.248,0.068,0.455v1.041
		c0,0.112-0.025,0.196-0.076,0.252s-0.118,0.084-0.201,0.084c-0.081,0-0.146-0.028-0.198-0.085s-0.077-0.14-0.077-0.251V2.676
		c0-0.115-0.005-0.207-0.015-0.275s-0.036-0.127-0.079-0.174s-0.108-0.07-0.195-0.07c-0.07,0-0.137,0.021-0.2,0.063
		s-0.112,0.098-0.147,0.168C43.955,2.477,43.935,2.636,43.935,2.864z"/>
</g>
<path fill-rule="evenodd" clip-rule="evenodd" fill="#FFFFFF" d="M1.894,1.593h0.48C2.39,1.428,2.446,1.346,2.542,1.346
	c0.088,0,0.131,0.033,0.256,0.088c0.139,0.063,0.273,0.109,0.458,0.109c0.355,0,0.572-0.197,0.556-0.69H3.338
	c-0.023,0.197-0.066,0.24-0.171,0.24c-0.079,0-0.172-0.047-0.287-0.099C2.745,0.934,2.614,0.886,2.443,0.886
	C2.101,0.886,1.877,1.136,1.894,1.593L1.894,1.593z M3.807,2.396C3.639,2.03,3.273,1.847,2.714,1.847
	c-0.198,0-0.381,0.025-0.569,0.086c-0.401,0.157-0.6,0.472-0.6,0.95v0.65c0,0.168,0.031,0.335,0.097,0.498
	c0.173,0.401,0.56,0.604,1.154,0.604c0.229,0,0.437-0.01,0.615-0.03c0.285-0.046,0.427-0.071,0.427-0.081V3.844H3.832
	C3.512,3.91,3.207,3.941,2.917,3.941H2.851c-0.137,0-0.224-0.015-0.3-0.036C2.439,3.865,2.384,3.752,2.384,3.57V3.488h1.52V3.473
	V3.005C3.903,2.747,3.873,2.543,3.807,2.396L3.807,2.396z M3.065,2.878v0.046H2.384V2.797c0-0.208,0.097-0.315,0.335-0.315
	c0.086,0,0.163,0.02,0.224,0.061C3.024,2.579,3.065,2.69,3.065,2.878L3.065,2.878z M1.796,10.131
	c0.218,0.351,0.508,0.397,0.843,0.381c0.412-0.015,0.686-0.178,0.752-0.203c0.015,0.056,0.03,0.086,0.046,0.122l0.03,0.045h0.696
	V7.769H3.32L3.315,9.685c-0.137,0.086-0.27,0.112-0.366,0.117c-0.056,0.005-0.112,0-0.163-0.005
	c-0.163-0.036-0.244-0.143-0.244-0.31V7.769H1.694v1.565C1.694,9.761,1.72,9.974,1.796,10.131L1.796,10.131z M7.819,7.655h0.417
	c0.01-0.142,0.057-0.208,0.135-0.208s0.114,0.025,0.224,0.072c0.12,0.041,0.234,0.093,0.401,0.093c0.307,0,0.489-0.159,0.473-0.591
	H9.063C9.047,7.182,9.011,7.223,8.912,7.223c-0.078,0-0.156-0.047-0.244-0.083c-0.12-0.046-0.235-0.093-0.375-0.093
	C8.001,7.046,7.798,7.26,7.819,7.655L7.819,7.655z M9.662,8.264c0.078,0.162,0.114,0.386,0.114,0.67v1.702H9.073
	c-0.005-0.016-0.01-0.037-0.016-0.052c-0.01-0.037-0.021-0.072-0.026-0.12c-0.255,0.135-0.51,0.203-0.765,0.203H8.184
	c-0.254,0-0.453-0.099-0.598-0.296c-0.104-0.151-0.156-0.323-0.156-0.515V9.835c0-0.333,0.12-0.557,0.354-0.666
	c0.109-0.067,0.354-0.104,0.739-0.104h0.4V8.976c0-0.195-0.031-0.305-0.088-0.331C8.772,8.597,8.663,8.576,8.512,8.576H7.71
	l0.079-0.712h0.863C9.188,7.863,9.526,7.999,9.662,8.264L9.662,8.264z M8.922,9.95V9.643H8.631c-0.167,0-0.266,0.016-0.302,0.052
	C8.303,9.731,8.288,9.778,8.288,9.835c0,0.151,0.078,0.229,0.234,0.229C8.637,10.064,8.772,10.027,8.922,9.95L8.922,9.95L8.922,9.95
	z M0.591,4.517L0.591,4.517C0.492,4.497,0.428,4.4,0.447,4.302l0.61-3.072c0.02-0.099,0.116-0.164,0.215-0.144l0,0
	c0.099,0.019,0.163,0.116,0.144,0.214l-0.61,3.072C0.786,4.472,0.689,4.536,0.591,4.517L0.591,4.517z M4.342,4.517L4.342,4.517
	C4.243,4.497,4.179,4.4,4.199,4.302l0.61-3.072c0.02-0.099,0.116-0.164,0.215-0.144l0,0c0.099,0.019,0.163,0.116,0.144,0.214
	l-0.61,3.072C4.538,4.472,4.441,4.536,4.342,4.517L4.342,4.517z M6.496,4.517L6.496,4.517C6.397,4.497,6.333,4.4,6.353,4.302
	l0.61-3.072c0.02-0.099,0.116-0.164,0.215-0.144l0,0c0.099,0.019,0.163,0.116,0.144,0.214l-0.61,3.072
	C6.691,4.472,6.594,4.536,6.496,4.517L6.496,4.517z M10.09,4.517L10.09,4.517C9.991,4.497,9.926,4.4,9.946,4.302l0.61-3.072
	c0.02-0.099,0.116-0.164,0.215-0.144l0,0c0.099,0.019,0.163,0.116,0.144,0.214l-0.61,3.072C10.285,4.472,10.188,4.536,10.09,4.517
	L10.09,4.517z M10.248,10.567L10.248,10.567c-0.099-0.02-0.164-0.116-0.144-0.215l0.61-3.072c0.02-0.098,0.116-0.163,0.215-0.144
	l0,0c0.098,0.02,0.163,0.117,0.144,0.215l-0.61,3.072C10.443,10.522,10.346,10.587,10.248,10.567L10.248,10.567z M6.551,10.567
	L6.551,10.567c-0.099-0.02-0.164-0.116-0.144-0.215l0.61-3.072c0.02-0.098,0.116-0.163,0.215-0.144l0,0
	c0.099,0.02,0.164,0.117,0.144,0.215l-0.611,3.072C6.746,10.522,6.65,10.587,6.551,10.567L6.551,10.567z M4.617,10.567L4.617,10.567
	c-0.099-0.02-0.163-0.116-0.144-0.215l0.61-3.072C5.103,7.182,5.2,7.117,5.299,7.137l0,0c0.099,0.02,0.163,0.117,0.144,0.215
	l-0.61,3.072C4.813,10.522,4.716,10.587,4.617,10.567L4.617,10.567z M0.591,10.567L0.591,10.567
	c-0.099-0.02-0.163-0.116-0.144-0.215l0.61-3.072c0.02-0.098,0.116-0.163,0.215-0.144l0,0c0.099,0.02,0.163,0.117,0.144,0.215
	l-0.61,3.072C0.786,10.522,0.689,10.587,0.591,10.567L0.591,10.567z M8.574,1.418c0.526,0,0.89,0.172,1.093,0.515
	C9.771,2.079,9.823,2.35,9.823,2.745v0.188c0,0.328-0.031,0.557-0.094,0.692c-0.182,0.427-0.567,0.64-1.155,0.64
	c-0.161,0-0.302-0.01-0.421-0.026C7.845,4.191,7.694,4.161,7.694,4.145V3.458H7.7c0.338,0.063,0.577,0.099,0.729,0.099h0.063
	c0.203,0,0.338-0.042,0.401-0.12C8.943,3.396,8.969,3.26,8.969,3.026V2.672c0-0.255-0.031-0.401-0.088-0.437
	C8.813,2.168,8.678,2.131,8.475,2.131c-0.172,0-0.474,0.037-0.781,0.093V1.533C8.001,1.455,8.292,1.418,8.574,1.418L8.574,1.418z
	 M2.097,7.397h0.48C2.593,7.233,2.649,7.15,2.745,7.15c0.089,0,0.132,0.033,0.257,0.089C3.14,7.302,3.274,7.348,3.458,7.348
	c0.355,0,0.572-0.197,0.556-0.69H3.541c-0.023,0.197-0.065,0.24-0.171,0.24c-0.079,0-0.172-0.047-0.286-0.099
	C2.948,6.738,2.817,6.69,2.646,6.69C2.304,6.69,2.08,6.94,2.097,7.397L2.097,7.397z M1.661,0h8.198c0.914,0,1.661,0.748,1.661,1.661
	v8.198c0,0.914-0.748,1.661-1.661,1.661H1.661C0.748,11.52,0,10.772,0,9.859V1.661C0,0.748,0.748,0,1.661,0z"/>
</svg>
