<?xml version="1.0" encoding="utf-8"?>
<!-- Generator: Adobe Illustrator 16.0.0, SVG Export Plug-In . SVG Version: 6.00 Build 0)  -->
<!DOCTYPE svg PUBLIC "-//W3C//DTD SVG 1.1//EN" "http://www.w3.org/Graphics/SVG/1.1/DTD/svg11.dtd" [
	<!ENTITY ns_flows "http://ns.adobe.com/Flows/1.0/">
	<!ENTITY ns_extend "http://ns.adobe.com/Extensibility/1.0/">
	<!ENTITY ns_ai "http://ns.adobe.com/AdobeIllustrator/10.0/">
	<!ENTITY ns_graphs "http://ns.adobe.com/Graphs/1.0/">
]>
<svg version="1.1" id="Camada_1" xmlns:x="&ns_extend;" xmlns:i="&ns_ai;" xmlns:graph="&ns_graphs;"
	 xmlns="http://www.w3.org/2000/svg" xmlns:xlink="http://www.w3.org/1999/xlink" xmlns:a="http://ns.adobe.com/AdobeSVGViewerExtensions/3.0/"
	 x="0px" y="0px" width="58.551px" height="12.862px" viewBox="0 0 58.551 12.862" enable-background="new 0 0 58.551 12.862"
	 xml:space="preserve">
<g>
	<path fill="#FFFFFF" d="M14.67,1.6v2.084h1.176c0.094,0,0.166,0.023,0.216,0.068s0.075,0.103,0.075,0.172
		c0,0.07-0.025,0.127-0.074,0.171s-0.122,0.065-0.217,0.065h-1.4c-0.126,0-0.217-0.028-0.272-0.084S14.09,3.93,14.09,3.805V1.6
		c0-0.117,0.026-0.205,0.079-0.264s0.122-0.088,0.208-0.088c0.087,0,0.158,0.029,0.212,0.087S14.67,1.481,14.67,1.6z"/>
	<path fill="#FFFFFF" d="M16.75,1.793c-0.074,0-0.138-0.023-0.19-0.068s-0.079-0.11-0.079-0.193c0-0.076,0.027-0.138,0.081-0.187
		s0.117-0.073,0.188-0.073c0.069,0,0.13,0.022,0.184,0.066s0.08,0.109,0.08,0.193c0,0.082-0.026,0.146-0.078,0.192
		S16.822,1.793,16.75,1.793z M17.014,2.344v1.541c0,0.107-0.025,0.188-0.076,0.242s-0.115,0.082-0.193,0.082
		s-0.142-0.028-0.19-0.084s-0.073-0.136-0.073-0.24V2.36c0-0.105,0.024-0.185,0.073-0.238s0.112-0.08,0.19-0.08
		s0.143,0.027,0.193,0.08S17.014,2.249,17.014,2.344z"/>
	<path fill="#FFFFFF" d="M19.477,3.549c0,0.066-0.02,0.137-0.06,0.213s-0.1,0.147-0.182,0.216s-0.184,0.124-0.308,0.165
		s-0.263,0.063-0.418,0.063c-0.33,0-0.586-0.096-0.771-0.288s-0.277-0.45-0.277-0.772c0-0.219,0.042-0.412,0.127-0.58
		s0.207-0.298,0.367-0.39s0.352-0.138,0.574-0.138c0.138,0,0.265,0.02,0.38,0.061s0.213,0.092,0.293,0.156s0.141,0.132,0.184,0.204
		s0.063,0.14,0.063,0.202c0,0.064-0.024,0.118-0.071,0.162s-0.105,0.066-0.173,0.066c-0.044,0-0.081-0.011-0.11-0.034
		s-0.062-0.06-0.099-0.11c-0.065-0.099-0.133-0.173-0.204-0.223s-0.161-0.074-0.271-0.074c-0.158,0-0.285,0.062-0.381,0.185
		s-0.145,0.292-0.145,0.505c0,0.1,0.012,0.192,0.037,0.276s0.061,0.156,0.107,0.215s0.104,0.104,0.17,0.135s0.139,0.046,0.219,0.046
		c0.107,0,0.198-0.025,0.274-0.074s0.144-0.125,0.202-0.227c0.033-0.06,0.068-0.107,0.105-0.141s0.084-0.051,0.139-0.051
		c0.065,0,0.119,0.025,0.162,0.074S19.477,3.493,19.477,3.549z"/>
	<path fill="#FFFFFF" d="M21.43,3.256h-1.043c0.001,0.121,0.026,0.228,0.073,0.32s0.111,0.162,0.189,0.209s0.166,0.07,0.261,0.07
		c0.064,0,0.122-0.007,0.175-0.022s0.104-0.039,0.153-0.07s0.095-0.066,0.137-0.103s0.096-0.086,0.162-0.148
		c0.027-0.023,0.066-0.035,0.117-0.035c0.055,0,0.099,0.015,0.133,0.045s0.051,0.072,0.051,0.127c0,0.048-0.019,0.104-0.057,0.169
		s-0.095,0.126-0.171,0.186s-0.172,0.108-0.287,0.147s-0.248,0.059-0.397,0.059c-0.342,0-0.609-0.098-0.799-0.293
		s-0.285-0.46-0.285-0.795c0-0.158,0.023-0.304,0.07-0.438s0.115-0.25,0.205-0.347s0.201-0.17,0.332-0.222s0.277-0.077,0.438-0.077
		c0.208,0,0.387,0.044,0.536,0.132s0.261,0.202,0.335,0.341s0.111,0.281,0.111,0.426c0,0.134-0.039,0.221-0.115,0.261
		S21.569,3.256,21.43,3.256z M20.387,2.954h0.967c-0.013-0.182-0.062-0.319-0.147-0.409s-0.198-0.136-0.337-0.136
		c-0.133,0-0.242,0.046-0.327,0.138S20.405,2.774,20.387,2.954z"/>
	<path fill="#FFFFFF" d="M22.803,2.336v0.064c0.094-0.124,0.196-0.214,0.308-0.272s0.239-0.087,0.384-0.087
		c0.141,0,0.266,0.031,0.377,0.092s0.193,0.148,0.248,0.26c0.035,0.065,0.058,0.135,0.068,0.211s0.016,0.172,0.016,0.289v0.992
		c0,0.107-0.024,0.188-0.073,0.242s-0.112,0.082-0.19,0.082c-0.08,0-0.144-0.028-0.193-0.084s-0.074-0.136-0.074-0.24V2.997
		c0-0.176-0.024-0.31-0.073-0.403s-0.146-0.14-0.292-0.14c-0.095,0-0.182,0.028-0.26,0.085s-0.135,0.134-0.172,0.233
		C22.849,2.852,22.836,3,22.836,3.217v0.668c0,0.108-0.025,0.189-0.075,0.243s-0.115,0.081-0.194,0.081
		c-0.077,0-0.14-0.028-0.189-0.084s-0.074-0.136-0.074-0.24V2.344c0-0.102,0.022-0.177,0.066-0.228s0.105-0.075,0.182-0.075
		c0.047,0,0.089,0.011,0.127,0.033s0.068,0.055,0.091,0.1S22.803,2.272,22.803,2.336z"/>
	<path fill="#FFFFFF" d="M26.646,3.549c0,0.066-0.02,0.137-0.06,0.213s-0.1,0.147-0.182,0.216s-0.184,0.124-0.308,0.165
		s-0.263,0.063-0.418,0.063c-0.33,0-0.586-0.096-0.771-0.288s-0.277-0.45-0.277-0.772c0-0.219,0.042-0.412,0.127-0.58
		s0.207-0.298,0.367-0.39s0.352-0.138,0.574-0.138c0.138,0,0.265,0.02,0.38,0.061s0.213,0.092,0.293,0.156s0.141,0.132,0.184,0.204
		s0.063,0.14,0.063,0.202c0,0.064-0.024,0.118-0.071,0.162s-0.105,0.066-0.173,0.066c-0.044,0-0.081-0.011-0.11-0.034
		s-0.062-0.06-0.099-0.11c-0.065-0.099-0.133-0.173-0.204-0.223s-0.161-0.074-0.271-0.074c-0.158,0-0.285,0.062-0.381,0.185
		s-0.145,0.292-0.145,0.505c0,0.1,0.012,0.192,0.037,0.276s0.061,0.156,0.107,0.215s0.104,0.104,0.17,0.135s0.139,0.046,0.219,0.046
		c0.107,0,0.198-0.025,0.274-0.074s0.144-0.125,0.202-0.227c0.033-0.06,0.068-0.107,0.105-0.141s0.084-0.051,0.139-0.051
		c0.065,0,0.119,0.025,0.162,0.074S26.646,3.493,26.646,3.549z"/>
	<path fill="#FFFFFF" d="M27.381,1.793c-0.074,0-0.138-0.023-0.19-0.068s-0.079-0.11-0.079-0.193c0-0.076,0.027-0.138,0.081-0.187
		s0.117-0.073,0.188-0.073c0.069,0,0.13,0.022,0.184,0.066s0.08,0.109,0.08,0.193c0,0.082-0.026,0.146-0.078,0.192
		S27.453,1.793,27.381,1.793z M27.645,2.344v1.541c0,0.107-0.025,0.188-0.076,0.242s-0.115,0.082-0.193,0.082
		s-0.142-0.028-0.19-0.084s-0.073-0.136-0.073-0.24V2.36c0-0.105,0.024-0.185,0.073-0.238s0.112-0.08,0.19-0.08
		s0.143,0.027,0.193,0.08S27.645,2.249,27.645,2.344z"/>
	<path fill="#FFFFFF" d="M29.543,3.909c-0.129,0.1-0.253,0.175-0.374,0.226s-0.255,0.075-0.405,0.075
		c-0.137,0-0.257-0.027-0.36-0.081s-0.183-0.127-0.239-0.22S28.08,3.716,28.08,3.608c0-0.146,0.046-0.27,0.139-0.373
		s0.219-0.172,0.381-0.207c0.034-0.008,0.118-0.025,0.252-0.053s0.249-0.052,0.345-0.075s0.199-0.05,0.312-0.083
		c-0.007-0.141-0.034-0.244-0.085-0.31s-0.154-0.099-0.312-0.099c-0.135,0-0.237,0.019-0.306,0.057s-0.127,0.094-0.176,0.17
		s-0.083,0.125-0.104,0.149s-0.063,0.036-0.13,0.036c-0.06,0-0.112-0.019-0.155-0.058s-0.065-0.087-0.065-0.147
		c0-0.094,0.033-0.185,0.1-0.273s0.17-0.162,0.311-0.219s0.316-0.086,0.525-0.086c0.234,0,0.419,0.028,0.553,0.083
		s0.229,0.143,0.284,0.263c0.056,0.12,0.083,0.279,0.083,0.477c0,0.125,0,0.231-0.001,0.318s-0.002,0.184-0.003,0.291
		c0,0.1,0.017,0.205,0.05,0.313s0.05,0.179,0.05,0.21c0,0.055-0.025,0.104-0.077,0.149s-0.109,0.067-0.175,0.067
		c-0.055,0-0.108-0.026-0.162-0.077S29.603,4.006,29.543,3.909z M29.508,3.137c-0.078,0.029-0.192,0.059-0.341,0.091
		s-0.252,0.055-0.31,0.07s-0.112,0.044-0.164,0.088s-0.078,0.104-0.078,0.183c0,0.081,0.031,0.149,0.092,0.206
		s0.141,0.085,0.24,0.085c0.105,0,0.202-0.023,0.292-0.069s0.154-0.106,0.196-0.179c0.048-0.081,0.072-0.213,0.072-0.398V3.137z"/>
	<path fill="#FFFFFF" d="M30.502,2.088h0.059v-0.32c0-0.086,0.002-0.153,0.007-0.202s0.018-0.091,0.038-0.126
		c0.021-0.037,0.051-0.066,0.09-0.089s0.083-0.034,0.131-0.034c0.067,0,0.129,0.025,0.184,0.076c0.036,0.034,0.06,0.075,0.069,0.124
		s0.015,0.118,0.015,0.208v0.363h0.195c0.075,0,0.133,0.018,0.173,0.054s0.06,0.082,0.06,0.138c0,0.072-0.028,0.122-0.085,0.15
		s-0.138,0.043-0.243,0.043h-0.1v0.98c0,0.083,0.003,0.147,0.009,0.192s0.021,0.082,0.047,0.109s0.066,0.042,0.124,0.042
		c0.031,0,0.073-0.005,0.127-0.017s0.095-0.017,0.125-0.017c0.043,0,0.082,0.017,0.116,0.052s0.052,0.077,0.052,0.128
		c0,0.086-0.047,0.152-0.141,0.197s-0.229,0.068-0.404,0.068c-0.167,0-0.293-0.028-0.379-0.084s-0.143-0.133-0.169-0.232
		s-0.04-0.231-0.04-0.396V2.473h-0.07c-0.077,0-0.136-0.018-0.176-0.055s-0.061-0.083-0.061-0.139s0.021-0.102,0.063-0.138
		S30.421,2.088,30.502,2.088z"/>
	<path fill="#FFFFFF" d="M33.273,3.909V3.84c-0.063,0.081-0.131,0.148-0.201,0.203s-0.147,0.095-0.23,0.122s-0.179,0.04-0.285,0.04
		c-0.129,0-0.244-0.027-0.347-0.08s-0.182-0.127-0.237-0.221c-0.066-0.113-0.1-0.276-0.1-0.488V2.36
		c0-0.107,0.024-0.187,0.072-0.239s0.112-0.079,0.191-0.079c0.081,0,0.146,0.027,0.195,0.08s0.074,0.133,0.074,0.238v0.854
		c0,0.124,0.011,0.228,0.031,0.312s0.059,0.15,0.112,0.197s0.127,0.071,0.22,0.071c0.09,0,0.175-0.027,0.254-0.08
		s0.138-0.123,0.174-0.209c0.03-0.076,0.045-0.241,0.045-0.496V2.36c0-0.105,0.024-0.185,0.074-0.238s0.114-0.08,0.193-0.08
		s0.144,0.026,0.191,0.079s0.072,0.132,0.072,0.239v1.545c0,0.102-0.023,0.178-0.069,0.229s-0.105,0.076-0.179,0.076
		s-0.133-0.026-0.181-0.079S33.273,4.004,33.273,3.909z"/>
	<path fill="#FFFFFF" d="M34.834,3.44v0.445c0,0.108-0.025,0.189-0.076,0.243s-0.115,0.081-0.193,0.081
		c-0.077,0-0.14-0.027-0.189-0.082s-0.074-0.135-0.074-0.242V2.401c0-0.24,0.087-0.359,0.26-0.359c0.089,0,0.152,0.028,0.191,0.084
		s0.061,0.139,0.064,0.248c0.063-0.109,0.129-0.192,0.196-0.248s0.156-0.084,0.269-0.084s0.221,0.028,0.326,0.084
		s0.158,0.13,0.158,0.223c0,0.065-0.022,0.119-0.067,0.161s-0.094,0.063-0.146,0.063c-0.02,0-0.066-0.012-0.142-0.036
		S35.271,2.5,35.213,2.5c-0.078,0-0.142,0.021-0.191,0.062s-0.088,0.102-0.115,0.183S34.86,2.921,34.85,3.033
		S34.834,3.28,34.834,3.44z"/>
	<path fill="#FFFFFF" d="M37.305,3.909c-0.129,0.1-0.254,0.175-0.374,0.226s-0.256,0.075-0.405,0.075
		c-0.137,0-0.257-0.027-0.36-0.081s-0.184-0.127-0.239-0.22s-0.084-0.193-0.084-0.301c0-0.146,0.046-0.27,0.139-0.373
		s0.22-0.172,0.381-0.207c0.034-0.008,0.118-0.025,0.252-0.053s0.249-0.052,0.345-0.075s0.199-0.05,0.312-0.083
		c-0.007-0.141-0.035-0.244-0.085-0.31s-0.154-0.099-0.312-0.099c-0.136,0-0.237,0.019-0.306,0.057s-0.127,0.094-0.176,0.17
		s-0.083,0.125-0.104,0.149s-0.063,0.036-0.13,0.036c-0.06,0-0.111-0.019-0.155-0.058s-0.065-0.087-0.065-0.147
		c0-0.094,0.033-0.185,0.1-0.273s0.17-0.162,0.311-0.219s0.315-0.086,0.525-0.086c0.234,0,0.419,0.028,0.553,0.083
		s0.229,0.143,0.284,0.263s0.083,0.279,0.083,0.477c0,0.125,0,0.231-0.001,0.318s-0.002,0.184-0.003,0.291
		c0,0.1,0.017,0.205,0.05,0.313s0.05,0.179,0.05,0.21c0,0.055-0.025,0.104-0.077,0.149s-0.109,0.067-0.175,0.067
		c-0.055,0-0.108-0.026-0.162-0.077S37.364,4.006,37.305,3.909z M37.27,3.137c-0.078,0.029-0.191,0.059-0.341,0.091
		s-0.252,0.055-0.31,0.07s-0.112,0.044-0.164,0.088s-0.078,0.104-0.078,0.183c0,0.081,0.03,0.149,0.092,0.206
		s0.142,0.085,0.24,0.085c0.105,0,0.203-0.023,0.292-0.069s0.154-0.106,0.196-0.179c0.048-0.081,0.072-0.213,0.072-0.398V3.137z"/>
	<path fill="#FFFFFF" d="M40.822,3.256h-1.043c0.001,0.121,0.025,0.228,0.073,0.32s0.11,0.162,0.189,0.209s0.166,0.07,0.261,0.07
		c0.063,0,0.122-0.007,0.175-0.022s0.104-0.039,0.153-0.07s0.095-0.066,0.137-0.103s0.096-0.086,0.162-0.148
		c0.027-0.023,0.066-0.035,0.117-0.035c0.055,0,0.099,0.015,0.133,0.045s0.051,0.072,0.051,0.127c0,0.048-0.019,0.104-0.057,0.169
		s-0.095,0.126-0.171,0.186s-0.172,0.108-0.287,0.147s-0.248,0.059-0.397,0.059c-0.343,0-0.608-0.098-0.799-0.293
		s-0.285-0.46-0.285-0.795c0-0.158,0.023-0.304,0.07-0.438s0.115-0.25,0.205-0.347s0.2-0.17,0.332-0.222s0.277-0.077,0.438-0.077
		c0.208,0,0.387,0.044,0.536,0.132s0.261,0.202,0.335,0.341s0.111,0.281,0.111,0.426c0,0.134-0.038,0.221-0.115,0.261
		S40.962,3.256,40.822,3.256z M39.779,2.954h0.967c-0.013-0.182-0.063-0.319-0.147-0.409s-0.197-0.136-0.337-0.136
		c-0.133,0-0.242,0.046-0.327,0.138S39.798,2.774,39.779,2.954z"/>
	<path fill="#FFFFFF" d="M43.484,3.165v0.709c0,0.112-0.025,0.196-0.076,0.252s-0.118,0.084-0.201,0.084
		c-0.081,0-0.146-0.028-0.196-0.084s-0.075-0.14-0.075-0.252v-0.85c0-0.134-0.005-0.238-0.014-0.313s-0.034-0.135-0.074-0.183
		s-0.104-0.071-0.191-0.071c-0.175,0-0.289,0.06-0.345,0.18s-0.083,0.292-0.083,0.516v0.721c0,0.111-0.025,0.194-0.075,0.251
		s-0.116,0.085-0.198,0.085c-0.081,0-0.146-0.028-0.198-0.085s-0.077-0.14-0.077-0.251V2.348c0-0.1,0.023-0.176,0.069-0.229
		s0.107-0.078,0.183-0.078c0.073,0,0.134,0.024,0.183,0.073s0.073,0.116,0.073,0.202v0.051c0.093-0.111,0.191-0.192,0.297-0.244
		s0.223-0.078,0.352-0.078c0.134,0,0.249,0.027,0.346,0.08s0.176,0.134,0.238,0.242c0.09-0.109,0.187-0.19,0.289-0.243
		s0.217-0.079,0.342-0.079c0.146,0,0.271,0.029,0.377,0.086s0.185,0.139,0.236,0.246c0.046,0.096,0.068,0.248,0.068,0.455v1.041
		c0,0.112-0.025,0.196-0.076,0.252s-0.118,0.084-0.201,0.084c-0.081,0-0.146-0.028-0.198-0.085s-0.077-0.14-0.077-0.251V2.977
		c0-0.115-0.005-0.207-0.015-0.275s-0.036-0.127-0.079-0.174s-0.108-0.07-0.195-0.07c-0.07,0-0.137,0.021-0.2,0.063
		s-0.112,0.098-0.147,0.168C43.504,2.778,43.484,2.937,43.484,3.165z"/>
</g>
<g>
	<path fill="#FFFFFF" d="M15.966,10.312l-0.918-3.648v3.953c0,0.219-0.049,0.383-0.146,0.492s-0.227,0.164-0.389,0.164
		c-0.156,0-0.284-0.054-0.383-0.162s-0.148-0.273-0.148-0.494V6.085c0-0.25,0.065-0.418,0.195-0.506
		c0.13-0.087,0.306-0.131,0.527-0.131h0.359c0.216,0,0.373,0.02,0.471,0.059s0.17,0.109,0.217,0.211s0.1,0.267,0.16,0.496
		l0.832,3.137l0.832-3.137c0.06-0.229,0.113-0.395,0.16-0.496s0.119-0.172,0.217-0.211s0.254-0.059,0.471-0.059h0.359
		c0.221,0,0.397,0.044,0.527,0.131c0.13,0.087,0.195,0.256,0.195,0.506v4.531c0,0.219-0.049,0.383-0.146,0.492
		s-0.229,0.164-0.393,0.164c-0.154,0-0.28-0.055-0.379-0.164c-0.099-0.109-0.148-0.273-0.148-0.492V6.663l-0.918,3.648
		c-0.06,0.237-0.109,0.411-0.146,0.521s-0.107,0.211-0.209,0.303s-0.242,0.137-0.422,0.137c-0.135,0-0.25-0.029-0.344-0.088
		s-0.167-0.133-0.219-0.225s-0.093-0.192-0.123-0.303S15.997,10.431,15.966,10.312z"/>
	<path fill="#FFFFFF" d="M23.317,10.671c-0.258,0.201-0.507,0.351-0.748,0.451s-0.511,0.15-0.811,0.15
		c-0.273,0-0.514-0.054-0.721-0.162s-0.367-0.254-0.479-0.439s-0.168-0.385-0.168-0.602c0-0.292,0.092-0.541,0.277-0.746
		s0.439-0.344,0.762-0.414c0.068-0.016,0.236-0.051,0.504-0.105s0.498-0.105,0.689-0.15s0.399-0.101,0.623-0.166
		c-0.013-0.281-0.07-0.488-0.17-0.619s-0.308-0.197-0.623-0.197c-0.271,0-0.475,0.038-0.611,0.113s-0.254,0.189-0.352,0.34
		s-0.167,0.25-0.207,0.299s-0.127,0.072-0.26,0.072c-0.12,0-0.223-0.039-0.311-0.115s-0.131-0.175-0.131-0.295
		c0-0.188,0.066-0.37,0.199-0.547s0.34-0.323,0.621-0.438s0.631-0.172,1.051-0.172c0.469,0,0.837,0.055,1.105,0.166
		s0.458,0.286,0.568,0.525s0.166,0.557,0.166,0.953c0,0.25,0,0.462-0.002,0.637s-0.003,0.369-0.006,0.582
		c0,0.201,0.033,0.41,0.1,0.627s0.1,0.357,0.1,0.42c0,0.109-0.051,0.209-0.154,0.299s-0.219,0.135-0.35,0.135
		c-0.109,0-0.217-0.051-0.324-0.154S23.437,10.866,23.317,10.671z M23.247,9.128c-0.156,0.057-0.383,0.118-0.682,0.182
		S22.061,9.42,21.946,9.45s-0.224,0.088-0.328,0.176s-0.156,0.209-0.156,0.365c0,0.162,0.061,0.299,0.184,0.412
		s0.283,0.17,0.48,0.17c0.211,0,0.406-0.046,0.584-0.139s0.309-0.211,0.393-0.357c0.096-0.162,0.145-0.427,0.145-0.797V9.128z"/>
	<path fill="#FFFFFF" d="M25.235,7.03h0.117V6.39c0-0.172,0.004-0.307,0.014-0.404s0.035-0.182,0.076-0.252
		c0.042-0.073,0.102-0.132,0.18-0.178c0.078-0.045,0.166-0.068,0.262-0.068c0.135,0,0.258,0.051,0.367,0.152
		c0.073,0.068,0.119,0.15,0.139,0.248s0.029,0.236,0.029,0.416V7.03h0.391c0.151,0,0.266,0.036,0.346,0.107s0.119,0.164,0.119,0.275
		c0,0.143-0.057,0.244-0.17,0.301S26.829,7.8,26.618,7.8h-0.199v1.961c0,0.167,0.006,0.295,0.018,0.385s0.043,0.163,0.094,0.219
		s0.133,0.084,0.248,0.084c0.063,0,0.147-0.011,0.254-0.033s0.19-0.033,0.25-0.033c0.086,0,0.164,0.035,0.232,0.104
		s0.104,0.154,0.104,0.256c0,0.172-0.094,0.303-0.281,0.395s-0.457,0.137-0.809,0.137c-0.333,0-0.586-0.056-0.758-0.168
		s-0.285-0.267-0.338-0.465s-0.08-0.462-0.08-0.793V7.8h-0.141c-0.154,0-0.271-0.037-0.352-0.109s-0.121-0.166-0.121-0.277
		s0.042-0.204,0.127-0.275S25.074,7.03,25.235,7.03z"/>
	<path fill="#FFFFFF" d="M30.985,9.366h-2.086c0.002,0.242,0.051,0.456,0.146,0.641c0.096,0.185,0.221,0.324,0.379,0.418
		c0.157,0.094,0.331,0.141,0.521,0.141c0.128,0,0.244-0.015,0.35-0.045s0.208-0.077,0.307-0.141s0.19-0.132,0.273-0.205
		s0.191-0.172,0.324-0.297c0.055-0.047,0.133-0.07,0.234-0.07c0.109,0,0.198,0.03,0.266,0.09s0.102,0.145,0.102,0.254
		c0,0.096-0.038,0.209-0.113,0.338s-0.189,0.252-0.342,0.371s-0.344,0.217-0.574,0.295s-0.495,0.117-0.795,0.117
		c-0.686,0-1.217-0.195-1.598-0.586s-0.57-0.92-0.57-1.59c0-0.315,0.047-0.607,0.141-0.877s0.23-0.5,0.41-0.693
		s0.401-0.34,0.664-0.443c0.264-0.103,0.555-0.154,0.875-0.154c0.417,0,0.774,0.088,1.072,0.264s0.521,0.403,0.67,0.682
		s0.223,0.563,0.223,0.852c0,0.268-0.077,0.442-0.23,0.521S31.264,9.366,30.985,9.366z M28.899,8.761h1.934
		c-0.026-0.365-0.124-0.637-0.295-0.818s-0.396-0.271-0.674-0.271c-0.266,0-0.484,0.092-0.654,0.275S28.936,8.401,28.899,8.761z"/>
	<path fill="#FFFFFF" d="M36.31,9.183v1.418c0,0.224-0.051,0.392-0.152,0.504s-0.235,0.168-0.402,0.168
		c-0.161,0-0.292-0.056-0.393-0.168s-0.15-0.28-0.15-0.504V8.901c0-0.268-0.009-0.477-0.027-0.625s-0.067-0.27-0.148-0.365
		s-0.208-0.143-0.383-0.143c-0.349,0-0.579,0.12-0.689,0.359s-0.166,0.583-0.166,1.031v1.441c0,0.221-0.05,0.389-0.15,0.502
		s-0.232,0.17-0.396,0.17c-0.161,0-0.294-0.057-0.396-0.17S32.7,10.822,32.7,10.601V7.55c0-0.201,0.046-0.353,0.139-0.457
		s0.214-0.156,0.365-0.156c0.146,0,0.268,0.049,0.365,0.146s0.146,0.232,0.146,0.404v0.102c0.185-0.221,0.383-0.384,0.594-0.488
		s0.445-0.156,0.703-0.156c0.269,0,0.499,0.053,0.691,0.16s0.352,0.268,0.477,0.484c0.18-0.219,0.372-0.381,0.578-0.486
		s0.434-0.158,0.684-0.158c0.292,0,0.543,0.057,0.754,0.172s0.368,0.279,0.473,0.492c0.091,0.193,0.137,0.496,0.137,0.91v2.082
		c0,0.224-0.051,0.392-0.152,0.504s-0.235,0.168-0.402,0.168c-0.161,0-0.294-0.057-0.396-0.17S37.7,10.822,37.7,10.601V8.808
		c0-0.229-0.01-0.413-0.029-0.551s-0.072-0.254-0.158-0.348s-0.216-0.141-0.391-0.141c-0.141,0-0.274,0.042-0.4,0.125
		s-0.225,0.195-0.295,0.336C36.349,8.409,36.31,8.727,36.31,9.183z"/>
	<path fill="#FFFFFF" d="M42.536,10.671c-0.258,0.201-0.507,0.351-0.748,0.451s-0.511,0.15-0.811,0.15
		c-0.273,0-0.514-0.054-0.721-0.162s-0.366-0.254-0.479-0.439s-0.168-0.385-0.168-0.602c0-0.292,0.093-0.541,0.277-0.746
		s0.438-0.344,0.762-0.414c0.067-0.016,0.235-0.051,0.504-0.105s0.498-0.105,0.689-0.15s0.399-0.101,0.623-0.166
		C42.453,8.206,42.396,8,42.296,7.868s-0.308-0.197-0.623-0.197c-0.271,0-0.475,0.038-0.611,0.113s-0.254,0.189-0.352,0.34
		s-0.167,0.25-0.207,0.299s-0.127,0.072-0.26,0.072c-0.12,0-0.224-0.039-0.311-0.115s-0.131-0.175-0.131-0.295
		c0-0.188,0.066-0.37,0.199-0.547s0.34-0.323,0.621-0.438s0.632-0.172,1.051-0.172c0.469,0,0.837,0.055,1.105,0.166
		s0.458,0.286,0.568,0.525s0.166,0.557,0.166,0.953c0,0.25-0.001,0.462-0.002,0.637s-0.003,0.369-0.006,0.582
		c0,0.201,0.033,0.41,0.1,0.627s0.1,0.357,0.1,0.42c0,0.109-0.052,0.209-0.154,0.299s-0.22,0.135-0.35,0.135
		c-0.109,0-0.218-0.051-0.324-0.154S42.656,10.866,42.536,10.671z M42.466,9.128c-0.156,0.057-0.384,0.118-0.682,0.182
		S41.279,9.42,41.165,9.45s-0.224,0.088-0.328,0.176s-0.156,0.209-0.156,0.365c0,0.162,0.062,0.299,0.184,0.412
		s0.282,0.17,0.48,0.17c0.211,0,0.405-0.046,0.584-0.139s0.31-0.211,0.393-0.357c0.097-0.162,0.145-0.427,0.145-0.797V9.128z
		 M41.825,5.405h0.527c0.133,0,0.199,0.02,0.199,0.059c0,0.021-0.073,0.105-0.219,0.254s-0.293,0.291-0.441,0.426
		c-0.148,0.136-0.251,0.217-0.309,0.246c-0.148,0.076-0.308,0.113-0.477,0.113c-0.112,0-0.168-0.033-0.168-0.098
		c0-0.044,0.034-0.121,0.102-0.23l0.176-0.328c0.102-0.19,0.19-0.311,0.266-0.363C41.557,5.432,41.672,5.405,41.825,5.405z"/>
	<path fill="#FFFFFF" d="M44.653,7.03h0.117V6.39c0-0.172,0.005-0.307,0.014-0.404s0.034-0.182,0.076-0.252
		c0.042-0.073,0.102-0.132,0.18-0.178c0.078-0.045,0.165-0.068,0.262-0.068c0.136,0,0.258,0.051,0.367,0.152
		c0.073,0.068,0.119,0.15,0.139,0.248s0.029,0.236,0.029,0.416V7.03h0.391c0.151,0,0.267,0.036,0.346,0.107s0.119,0.164,0.119,0.275
		c0,0.143-0.057,0.244-0.17,0.301S46.247,7.8,46.036,7.8h-0.199v1.961c0,0.167,0.006,0.295,0.018,0.385s0.043,0.163,0.094,0.219
		s0.134,0.084,0.248,0.084c0.063,0,0.147-0.011,0.254-0.033s0.19-0.033,0.25-0.033c0.086,0,0.163,0.035,0.232,0.104
		s0.104,0.154,0.104,0.256c0,0.172-0.094,0.303-0.281,0.395s-0.457,0.137-0.809,0.137c-0.333,0-0.586-0.056-0.758-0.168
		s-0.284-0.267-0.338-0.465s-0.08-0.462-0.08-0.793V7.8H44.63c-0.153,0-0.271-0.037-0.352-0.109s-0.121-0.166-0.121-0.277
		s0.042-0.204,0.127-0.275S44.492,7.03,44.653,7.03z"/>
	<path fill="#FFFFFF" d="M47.965,6.44c-0.148,0-0.275-0.045-0.381-0.137c-0.105-0.091-0.158-0.22-0.158-0.387
		c0-0.151,0.054-0.275,0.162-0.373s0.233-0.146,0.377-0.146c0.138,0,0.261,0.044,0.367,0.133c0.106,0.089,0.16,0.218,0.16,0.387
		c0,0.164-0.052,0.292-0.156,0.385S48.108,6.44,47.965,6.44z M48.492,7.542v3.082c0,0.213-0.051,0.375-0.152,0.484
		s-0.23,0.164-0.387,0.164s-0.283-0.056-0.381-0.168s-0.146-0.272-0.146-0.48V7.573c0-0.211,0.049-0.37,0.146-0.477
		s0.225-0.16,0.381-0.16s0.285,0.053,0.387,0.16S48.492,7.352,48.492,7.542z"/>
	<path fill="#FFFFFF" d="M53.418,9.952c0,0.133-0.04,0.275-0.119,0.426s-0.2,0.295-0.363,0.432s-0.368,0.247-0.615,0.33
		s-0.526,0.125-0.836,0.125c-0.659,0-1.173-0.192-1.543-0.576s-0.555-0.899-0.555-1.545c0-0.438,0.085-0.824,0.254-1.16
		s0.414-0.596,0.734-0.779s0.703-0.275,1.148-0.275c0.276,0,0.529,0.041,0.76,0.121s0.426,0.185,0.586,0.313
		s0.282,0.264,0.367,0.408s0.127,0.279,0.127,0.404c0,0.127-0.048,0.236-0.143,0.324s-0.21,0.133-0.346,0.133
		c-0.089,0-0.162-0.023-0.221-0.068s-0.124-0.119-0.197-0.221c-0.13-0.198-0.267-0.346-0.408-0.445s-0.322-0.148-0.541-0.148
		c-0.315,0-0.569,0.123-0.762,0.369s-0.289,0.583-0.289,1.01c0,0.201,0.024,0.385,0.074,0.553s0.121,0.311,0.215,0.43
		s0.207,0.208,0.34,0.27s0.278,0.092,0.438,0.092c0.214,0,0.396-0.049,0.549-0.148s0.287-0.25,0.404-0.453
		c0.065-0.12,0.136-0.213,0.211-0.281s0.168-0.102,0.277-0.102c0.13,0,0.238,0.049,0.324,0.148S53.418,9.84,53.418,9.952z"/>
	<path fill="#FFFFFF" d="M57.043,10.671c-0.258,0.201-0.507,0.351-0.748,0.451s-0.511,0.15-0.811,0.15
		c-0.273,0-0.514-0.054-0.721-0.162s-0.366-0.254-0.479-0.439s-0.168-0.385-0.168-0.602c0-0.292,0.093-0.541,0.277-0.746
		s0.438-0.344,0.762-0.414c0.067-0.016,0.235-0.051,0.504-0.105s0.498-0.105,0.689-0.15s0.399-0.101,0.623-0.166
		C56.96,8.206,56.903,8,56.803,7.868s-0.308-0.197-0.623-0.197c-0.271,0-0.475,0.038-0.611,0.113s-0.254,0.189-0.352,0.34
		s-0.167,0.25-0.207,0.299s-0.127,0.072-0.26,0.072c-0.12,0-0.224-0.039-0.311-0.115s-0.131-0.175-0.131-0.295
		c0-0.188,0.066-0.37,0.199-0.547s0.34-0.323,0.621-0.438s0.632-0.172,1.051-0.172c0.469,0,0.837,0.055,1.105,0.166
		s0.458,0.286,0.568,0.525s0.166,0.557,0.166,0.953c0,0.25-0.001,0.462-0.002,0.637s-0.003,0.369-0.006,0.582
		c0,0.201,0.033,0.41,0.1,0.627s0.1,0.357,0.1,0.42c0,0.109-0.052,0.209-0.154,0.299s-0.22,0.135-0.35,0.135
		c-0.109,0-0.218-0.051-0.324-0.154S57.163,10.866,57.043,10.671z M56.973,9.128c-0.156,0.057-0.384,0.118-0.682,0.182
		S55.786,9.42,55.672,9.45s-0.224,0.088-0.328,0.176s-0.156,0.209-0.156,0.365c0,0.162,0.062,0.299,0.184,0.412
		s0.282,0.17,0.48,0.17c0.211,0,0.405-0.046,0.584-0.139s0.31-0.211,0.393-0.357c0.097-0.162,0.145-0.427,0.145-0.797V9.128z"/>
</g>
<path fill-rule="evenodd" clip-rule="evenodd" fill="#FFFFFF" d="M1.661,0h8.198c0.914,0,1.661,0.748,1.661,1.661v8.198
	c0,0.914-0.748,1.661-1.661,1.661H1.661C0.748,11.52,0,10.772,0,9.859V1.661C0,0.748,0.748,0,1.661,0L1.661,0z M2.892,0.73
	c-0.263,0-0.479,0.215-0.479,0.479v1.237H1.176c-0.263,0-0.479,0.215-0.479,0.479v0.437c0,0.263,0.216,0.479,0.479,0.479h1.238
	v1.238c0,0.263,0.215,0.479,0.479,0.479h0.437c0.263,0,0.479-0.215,0.479-0.479V3.839h1.238c0.263,0,0.479-0.215,0.479-0.479V2.924
	c0-0.264-0.216-0.479-0.479-0.479H3.807V1.208c0-0.264-0.215-0.479-0.479-0.479H2.892L2.892,0.73z M9.957,6.561
	c-0.186-0.186-0.491-0.186-0.677,0L8.405,7.437L7.53,6.561c-0.185-0.185-0.491-0.186-0.676,0L6.545,6.87
	c-0.187,0.187-0.185,0.492,0,0.677L7.42,8.421L6.545,9.296c-0.186,0.187-0.185,0.491,0,0.677l0.309,0.309
	c0.185,0.186,0.492,0.184,0.676,0l0.875-0.875l0.875,0.875c0.186,0.186,0.492,0.185,0.677,0l0.309-0.309
	c0.185-0.184,0.186-0.491,0-0.677L9.391,8.421l0.875-0.875c0.185-0.185,0.187-0.491,0-0.677L9.957,6.561L9.957,6.561z M7.135,2.446
	c-0.245,0-0.446,0.201-0.446,0.446v0.5c0,0.246,0.201,0.447,0.446,0.447h3.241c0.245,0,0.446-0.201,0.446-0.447v-0.5
	c0-0.246-0.201-0.446-0.446-0.446H7.135L7.135,2.446z M1.216,8.074c-0.245,0-0.446,0.201-0.446,0.447v0.5
	c0,0.246,0.201,0.447,0.446,0.447h3.241c0.246,0,0.447-0.201,0.447-0.447v-0.5c0-0.246-0.201-0.447-0.447-0.447H1.216L1.216,8.074z
	 M2.837,6.918c-0.275,0-0.499,0.223-0.499,0.499c0,0.275,0.224,0.498,0.499,0.498c0.275,0,0.499-0.223,0.499-0.498
	C3.336,7.142,3.112,6.918,2.837,6.918L2.837,6.918z M2.837,9.664c-0.275,0-0.499,0.223-0.499,0.499c0,0.275,0.224,0.498,0.499,0.498
	c0.275,0,0.499-0.223,0.499-0.498C3.336,9.887,3.112,9.664,2.837,9.664z"/>
</svg>
