<?xml version="1.0" encoding="utf-8"?>
<!-- Generator: Adobe Illustrator 16.0.0, SVG Export Plug-In . SVG Version: 6.00 Build 0)  -->
<!DOCTYPE svg PUBLIC "-//W3C//DTD SVG 1.1//EN" "http://www.w3.org/Graphics/SVG/1.1/DTD/svg11.dtd" [
	<!ENTITY ns_flows "http://ns.adobe.com/Flows/1.0/">
	<!ENTITY ns_extend "http://ns.adobe.com/Extensibility/1.0/">
	<!ENTITY ns_ai "http://ns.adobe.com/AdobeIllustrator/10.0/">
	<!ENTITY ns_graphs "http://ns.adobe.com/Graphs/1.0/">
]>
<svg version="1.1" id="Camada_1" xmlns:x="&ns_extend;" xmlns:i="&ns_ai;" xmlns:graph="&ns_graphs;"
	 xmlns="http://www.w3.org/2000/svg" xmlns:xlink="http://www.w3.org/1999/xlink" xmlns:a="http://ns.adobe.com/AdobeSVGViewerExtensions/3.0/"
	 x="0px" y="0px" width="53.645px" height="12.158px" viewBox="0 0 53.645 12.158" enable-background="new 0 0 53.645 12.158"
	 xml:space="preserve">
<g>
	<path fill="#FFFFFF" d="M15.505,8.24h-1.063v1.621c0,0.232-0.055,0.408-0.164,0.527s-0.248,0.18-0.414,0.18
		c-0.174,0-0.315-0.059-0.422-0.178s-0.16-0.292-0.16-0.521V5.455c0-0.255,0.059-0.438,0.176-0.547s0.303-0.164,0.559-0.164h1.488
		c0.44,0,0.779,0.034,1.016,0.102c0.234,0.065,0.437,0.173,0.607,0.324c0.17,0.151,0.3,0.336,0.389,0.555s0.133,0.465,0.133,0.738
		c0,0.583-0.18,1.025-0.539,1.326S16.216,8.24,15.505,8.24z M15.224,5.615h-0.781v1.75h0.781c0.273,0,0.502-0.029,0.686-0.086
		s0.324-0.151,0.42-0.281s0.145-0.301,0.145-0.512c0-0.252-0.074-0.458-0.223-0.617C16.084,5.699,15.742,5.615,15.224,5.615z"/>
	<path fill="#FFFFFF" d="M21.216,8.662H19.13c0.002,0.242,0.051,0.456,0.146,0.641s0.221,0.324,0.379,0.418s0.332,0.141,0.521,0.141
		c0.127,0,0.244-0.015,0.35-0.045s0.208-0.077,0.307-0.141s0.19-0.132,0.273-0.205s0.191-0.172,0.324-0.297
		c0.055-0.047,0.133-0.07,0.234-0.07c0.109,0,0.198,0.03,0.266,0.09s0.102,0.145,0.102,0.254c0,0.096-0.038,0.209-0.113,0.338
		s-0.189,0.252-0.342,0.371s-0.344,0.217-0.574,0.295s-0.496,0.117-0.795,0.117c-0.685,0-1.217-0.195-1.598-0.586
		s-0.57-0.92-0.57-1.59c0-0.315,0.047-0.607,0.141-0.877s0.23-0.5,0.41-0.693s0.401-0.34,0.664-0.443s0.555-0.154,0.875-0.154
		c0.417,0,0.774,0.088,1.072,0.264s0.521,0.403,0.67,0.682s0.223,0.563,0.223,0.852c0,0.268-0.077,0.442-0.23,0.521
		S21.495,8.662,21.216,8.662z M19.13,8.056h1.934c-0.026-0.365-0.125-0.637-0.295-0.818s-0.395-0.271-0.674-0.271
		c-0.266,0-0.484,0.092-0.654,0.275S19.167,7.697,19.13,8.056z"/>
	<path fill="#FFFFFF" d="M25.915,9.958V9.853c-0.143,0.164-0.285,0.297-0.424,0.4s-0.291,0.181-0.453,0.234s-0.34,0.08-0.533,0.08
		c-0.255,0-0.492-0.054-0.709-0.162s-0.406-0.262-0.564-0.463s-0.279-0.436-0.361-0.707s-0.123-0.564-0.123-0.879
		c0-0.667,0.163-1.186,0.488-1.559s0.754-0.559,1.285-0.559c0.307,0,0.566,0.053,0.777,0.158s0.417,0.268,0.617,0.486V5.31
		c0-0.219,0.043-0.384,0.131-0.496c0.087-0.112,0.211-0.168,0.373-0.168s0.286,0.052,0.373,0.154
		c0.087,0.103,0.131,0.255,0.131,0.455v4.703c0,0.203-0.047,0.355-0.141,0.457s-0.215,0.152-0.363,0.152
		c-0.146,0-0.266-0.053-0.361-0.158S25.915,10.154,25.915,9.958z M23.817,8.392c0,0.289,0.045,0.535,0.135,0.738
		s0.213,0.356,0.369,0.459s0.327,0.154,0.512,0.154c0.188,0,0.359-0.049,0.514-0.146s0.279-0.248,0.371-0.449
		s0.139-0.454,0.139-0.756c0-0.284-0.046-0.528-0.139-0.732S25.5,7.299,25.343,7.191s-0.33-0.162-0.518-0.162
		c-0.195,0-0.37,0.055-0.523,0.166s-0.273,0.27-0.357,0.477S23.817,8.119,23.817,8.392z"/>
	<path fill="#FFFFFF" d="M30.688,9.966c-0.258,0.201-0.506,0.351-0.748,0.451c-0.24,0.1-0.511,0.15-0.811,0.15
		c-0.273,0-0.513-0.054-0.72-0.162s-0.367-0.254-0.479-0.439s-0.168-0.385-0.168-0.602c0-0.292,0.092-0.541,0.277-0.746
		s0.439-0.344,0.761-0.414c0.068-0.016,0.236-0.051,0.504-0.105c0.27-0.055,0.498-0.105,0.689-0.15s0.4-0.101,0.623-0.166
		c-0.012-0.281-0.068-0.488-0.17-0.619c-0.1-0.131-0.307-0.197-0.623-0.197c-0.27,0-0.475,0.038-0.611,0.113
		s-0.254,0.189-0.352,0.34s-0.166,0.25-0.207,0.299c-0.04,0.048-0.126,0.072-0.259,0.072c-0.12,0-0.223-0.039-0.311-0.115
		S27.954,7.5,27.954,7.38c0-0.188,0.066-0.37,0.199-0.547s0.34-0.323,0.621-0.438c0.281-0.115,0.632-0.172,1.051-0.172
		c0.469,0,0.838,0.055,1.105,0.166c0.27,0.111,0.459,0.286,0.568,0.525c0.111,0.24,0.166,0.557,0.166,0.953
		c0,0.25,0,0.462-0.002,0.637c0,0.174-0.002,0.369-0.006,0.582c0,0.201,0.033,0.41,0.1,0.627s0.1,0.357,0.1,0.42
		c0,0.109-0.051,0.209-0.154,0.299c-0.102,0.09-0.219,0.135-0.35,0.135c-0.109,0-0.217-0.051-0.324-0.154
		C30.922,10.311,30.809,10.162,30.688,9.966z M30.618,8.423c-0.156,0.057-0.383,0.118-0.682,0.182
		c-0.297,0.064-0.504,0.111-0.619,0.141c-0.114,0.03-0.224,0.088-0.328,0.176c-0.104,0.087-0.156,0.209-0.156,0.365
		c0,0.162,0.062,0.299,0.184,0.412c0.123,0.113,0.283,0.17,0.48,0.17c0.211,0,0.406-0.046,0.584-0.139
		c0.18-0.092,0.311-0.211,0.393-0.357c0.098-0.162,0.145-0.427,0.145-0.797V8.423z"/>
	<path fill="#FFFFFF" d="M36.563,7.013v3.098c0,0.354-0.038,0.659-0.113,0.914s-0.196,0.466-0.363,0.633s-0.385,0.291-0.654,0.371
		s-0.604,0.121-1.006,0.121c-0.367,0-0.695-0.051-0.984-0.154s-0.512-0.236-0.668-0.398s-0.234-0.33-0.234-0.502
		c0-0.13,0.044-0.236,0.133-0.318s0.195-0.123,0.32-0.123c0.156,0,0.293,0.069,0.41,0.207c0.058,0.07,0.116,0.141,0.178,0.213
		s0.129,0.133,0.203,0.184s0.163,0.088,0.268,0.113s0.224,0.037,0.359,0.037c0.276,0,0.49-0.039,0.643-0.115s0.259-0.184,0.32-0.322
		s0.097-0.286,0.107-0.443s0.019-0.411,0.023-0.76c-0.164,0.229-0.354,0.404-0.568,0.523s-0.471,0.18-0.768,0.18
		c-0.356,0-0.669-0.091-0.936-0.273s-0.472-0.438-0.615-0.766s-0.215-0.707-0.215-1.137c0-0.32,0.044-0.609,0.131-0.867
		s0.212-0.475,0.373-0.652s0.348-0.311,0.559-0.4s0.442-0.135,0.695-0.135c0.302,0,0.563,0.058,0.785,0.174s0.427,0.297,0.617,0.545
		V6.814c0-0.185,0.046-0.328,0.137-0.43s0.208-0.152,0.352-0.152c0.206,0,0.343,0.067,0.41,0.201S36.563,6.761,36.563,7.013z
		 M33.473,8.365c0,0.432,0.095,0.759,0.283,0.98s0.433,0.332,0.732,0.332c0.177,0,0.345-0.047,0.502-0.143s0.286-0.238,0.385-0.43
		s0.148-0.424,0.148-0.697c0-0.435-0.096-0.773-0.287-1.016s-0.443-0.363-0.756-0.363c-0.305,0-0.549,0.116-0.732,0.348
		S33.473,7.938,33.473,8.365z"/>
	<path fill="#FFFFFF" d="M41.434,8.4c0,0.318-0.05,0.611-0.148,0.879s-0.242,0.499-0.43,0.691s-0.411,0.34-0.672,0.443
		s-0.554,0.154-0.879,0.154c-0.323,0-0.613-0.052-0.871-0.156s-0.481-0.253-0.67-0.447s-0.332-0.423-0.43-0.688
		S37.188,8.72,37.188,8.4c0-0.323,0.05-0.619,0.148-0.887s0.241-0.498,0.426-0.688s0.409-0.336,0.672-0.439s0.554-0.154,0.871-0.154
		c0.323,0,0.616,0.052,0.879,0.156s0.488,0.252,0.676,0.445s0.33,0.422,0.428,0.688S41.434,8.08,41.434,8.4z M40.364,8.4
		c0-0.435-0.096-0.773-0.287-1.016s-0.448-0.363-0.771-0.363c-0.208,0-0.392,0.054-0.551,0.162s-0.281,0.268-0.367,0.479
		S38.258,8.119,38.258,8.4c0,0.279,0.042,0.522,0.127,0.73s0.206,0.368,0.363,0.479s0.343,0.166,0.557,0.166
		c0.323,0,0.58-0.122,0.771-0.365S40.364,8.83,40.364,8.4z"/>
	<path fill="#FFFFFF" d="M46.196,7.013v3.098c0,0.354-0.038,0.659-0.113,0.914s-0.196,0.466-0.363,0.633s-0.385,0.291-0.654,0.371
		s-0.604,0.121-1.006,0.121c-0.367,0-0.695-0.051-0.984-0.154s-0.512-0.236-0.668-0.398s-0.234-0.33-0.234-0.502
		c0-0.13,0.044-0.236,0.133-0.318s0.195-0.123,0.32-0.123c0.156,0,0.293,0.069,0.41,0.207c0.058,0.07,0.116,0.141,0.178,0.213
		s0.129,0.133,0.203,0.184s0.163,0.088,0.268,0.113s0.224,0.037,0.359,0.037c0.276,0,0.49-0.039,0.643-0.115s0.259-0.184,0.32-0.322
		s0.097-0.286,0.107-0.443s0.019-0.411,0.023-0.76c-0.164,0.229-0.354,0.404-0.568,0.523s-0.471,0.18-0.768,0.18
		c-0.356,0-0.669-0.091-0.936-0.273s-0.472-0.438-0.615-0.766s-0.215-0.707-0.215-1.137c0-0.32,0.044-0.609,0.131-0.867
		s0.212-0.475,0.373-0.652s0.348-0.311,0.559-0.4s0.442-0.135,0.695-0.135c0.302,0,0.563,0.058,0.785,0.174s0.427,0.297,0.617,0.545
		V6.814c0-0.185,0.046-0.328,0.137-0.43s0.208-0.152,0.352-0.152c0.206,0,0.343,0.067,0.41,0.201S46.196,6.761,46.196,7.013z
		 M43.106,8.365c0,0.432,0.095,0.759,0.283,0.98s0.433,0.332,0.732,0.332c0.177,0,0.345-0.047,0.502-0.143s0.286-0.238,0.385-0.43
		s0.148-0.424,0.148-0.697c0-0.435-0.096-0.773-0.287-1.016s-0.443-0.363-0.756-0.363c-0.305,0-0.549,0.116-0.732,0.348
		S43.106,7.938,43.106,8.365z"/>
	<path fill="#FFFFFF" d="M47.813,5.736c-0.148,0-0.275-0.045-0.381-0.137c-0.105-0.091-0.158-0.22-0.158-0.387
		c0-0.151,0.054-0.275,0.162-0.373s0.233-0.146,0.377-0.146c0.138,0,0.261,0.044,0.367,0.133c0.106,0.089,0.16,0.218,0.16,0.387
		c0,0.164-0.052,0.292-0.156,0.385S47.957,5.736,47.813,5.736z M48.34,6.837v3.082c0,0.213-0.051,0.375-0.152,0.484
		s-0.23,0.164-0.387,0.164s-0.283-0.056-0.381-0.168s-0.146-0.272-0.146-0.48V6.869c0-0.211,0.049-0.37,0.146-0.477
		s0.225-0.16,0.381-0.16s0.285,0.053,0.387,0.16S48.34,6.647,48.34,6.837z"/>
	<path fill="#FFFFFF" d="M52.137,9.966c-0.258,0.201-0.507,0.351-0.748,0.451s-0.511,0.15-0.811,0.15
		c-0.273,0-0.514-0.054-0.721-0.162s-0.366-0.254-0.479-0.439s-0.168-0.385-0.168-0.602c0-0.292,0.093-0.541,0.277-0.746
		s0.438-0.344,0.762-0.414c0.067-0.016,0.235-0.051,0.504-0.105s0.498-0.105,0.689-0.15s0.399-0.101,0.623-0.166
		c-0.013-0.281-0.069-0.488-0.17-0.619s-0.308-0.197-0.623-0.197c-0.271,0-0.475,0.038-0.611,0.113s-0.254,0.189-0.352,0.34
		s-0.167,0.25-0.207,0.299s-0.127,0.072-0.26,0.072c-0.12,0-0.224-0.039-0.311-0.115S49.403,7.5,49.403,7.38
		c0-0.188,0.066-0.37,0.199-0.547s0.34-0.323,0.621-0.438s0.632-0.172,1.051-0.172c0.469,0,0.837,0.055,1.105,0.166
		s0.458,0.286,0.568,0.525s0.166,0.557,0.166,0.953c0,0.25-0.001,0.462-0.002,0.637s-0.003,0.369-0.006,0.582
		c0,0.201,0.033,0.41,0.1,0.627s0.1,0.357,0.1,0.42c0,0.109-0.052,0.209-0.154,0.299s-0.22,0.135-0.35,0.135
		c-0.109,0-0.218-0.051-0.324-0.154S52.257,10.162,52.137,9.966z M52.067,8.423c-0.156,0.057-0.384,0.118-0.682,0.182
		s-0.505,0.111-0.619,0.141s-0.224,0.088-0.328,0.176s-0.156,0.209-0.156,0.365c0,0.162,0.062,0.299,0.184,0.412
		s0.282,0.17,0.48,0.17c0.211,0,0.405-0.046,0.584-0.139s0.31-0.211,0.393-0.357c0.097-0.162,0.145-0.427,0.145-0.797V8.423z"/>
</g>
<g>
	<path fill="#FFFFFF" d="M13.92,0.896v2.084h1.176c0.094,0,0.166,0.023,0.216,0.068s0.075,0.103,0.075,0.172
		c0,0.07-0.025,0.127-0.074,0.171s-0.122,0.065-0.217,0.065h-1.4c-0.126,0-0.217-0.028-0.272-0.084S13.34,3.226,13.34,3.101V0.896
		c0-0.117,0.026-0.205,0.079-0.264s0.122-0.088,0.208-0.088c0.087,0,0.158,0.029,0.212,0.087S13.92,0.777,13.92,0.896z"/>
	<path fill="#FFFFFF" d="M16,1.089c-0.074,0-0.138-0.023-0.19-0.068s-0.079-0.11-0.079-0.193c0-0.076,0.027-0.138,0.081-0.187
		S15.928,0.567,16,0.567c0.069,0,0.13,0.022,0.184,0.066s0.08,0.109,0.08,0.193c0,0.082-0.026,0.146-0.078,0.192
		S16.072,1.089,16,1.089z M16.264,1.64v1.541c0,0.107-0.025,0.188-0.076,0.242s-0.115,0.082-0.193,0.082s-0.142-0.028-0.19-0.084
		s-0.073-0.136-0.073-0.24V1.655c0-0.105,0.024-0.185,0.073-0.238s0.112-0.08,0.19-0.08s0.143,0.027,0.193,0.08
		S16.264,1.544,16.264,1.64z"/>
	<path fill="#FFFFFF" d="M18.727,2.845c0,0.066-0.02,0.137-0.06,0.213s-0.1,0.147-0.182,0.216s-0.184,0.124-0.308,0.165
		s-0.263,0.063-0.418,0.063c-0.33,0-0.586-0.096-0.771-0.288s-0.277-0.45-0.277-0.772c0-0.219,0.042-0.412,0.127-0.58
		s0.207-0.298,0.367-0.39s0.352-0.138,0.574-0.138c0.138,0,0.265,0.02,0.38,0.061s0.213,0.092,0.293,0.156s0.141,0.132,0.184,0.204
		s0.063,0.14,0.063,0.202c0,0.064-0.024,0.118-0.071,0.162s-0.105,0.066-0.173,0.066c-0.044,0-0.081-0.011-0.11-0.034
		s-0.062-0.06-0.099-0.11c-0.065-0.099-0.133-0.173-0.204-0.223s-0.161-0.074-0.271-0.074c-0.158,0-0.285,0.062-0.381,0.185
		s-0.145,0.292-0.145,0.505c0,0.1,0.012,0.192,0.037,0.276s0.061,0.156,0.107,0.215s0.104,0.104,0.17,0.135s0.139,0.046,0.219,0.046
		c0.107,0,0.198-0.025,0.274-0.074s0.144-0.125,0.202-0.227c0.033-0.06,0.068-0.107,0.105-0.141s0.084-0.051,0.139-0.051
		c0.065,0,0.119,0.025,0.162,0.074S18.727,2.789,18.727,2.845z"/>
	<path fill="#FFFFFF" d="M20.68,2.552h-1.043c0.001,0.121,0.026,0.228,0.073,0.32s0.111,0.162,0.189,0.209s0.166,0.07,0.261,0.07
		c0.064,0,0.122-0.007,0.175-0.022s0.104-0.039,0.153-0.07s0.095-0.066,0.137-0.103s0.096-0.086,0.162-0.148
		c0.027-0.023,0.066-0.035,0.117-0.035c0.055,0,0.099,0.015,0.133,0.045s0.051,0.072,0.051,0.127c0,0.048-0.019,0.104-0.057,0.169
		S20.937,3.24,20.86,3.299s-0.172,0.108-0.287,0.147s-0.248,0.059-0.397,0.059c-0.342,0-0.609-0.098-0.799-0.293
		s-0.285-0.46-0.285-0.795c0-0.158,0.023-0.304,0.07-0.438s0.115-0.25,0.205-0.347s0.201-0.17,0.332-0.222s0.277-0.077,0.438-0.077
		c0.208,0,0.387,0.044,0.536,0.132s0.261,0.202,0.335,0.341s0.111,0.281,0.111,0.426c0,0.134-0.039,0.221-0.115,0.261
		S20.819,2.552,20.68,2.552z M19.637,2.249h0.967C20.59,2.067,20.542,1.93,20.456,1.84s-0.198-0.136-0.337-0.136
		c-0.133,0-0.242,0.046-0.327,0.138S19.655,2.069,19.637,2.249z"/>
	<path fill="#FFFFFF" d="M22.053,1.632v0.064c0.094-0.124,0.196-0.214,0.308-0.272s0.239-0.087,0.384-0.087
		c0.141,0,0.266,0.031,0.377,0.092s0.193,0.148,0.248,0.26c0.035,0.065,0.058,0.135,0.068,0.211s0.016,0.172,0.016,0.289v0.992
		c0,0.107-0.024,0.188-0.073,0.242s-0.112,0.082-0.19,0.082c-0.08,0-0.144-0.028-0.193-0.084s-0.074-0.136-0.074-0.24V2.292
		c0-0.176-0.024-0.31-0.073-0.403s-0.146-0.14-0.292-0.14c-0.095,0-0.182,0.028-0.26,0.085s-0.135,0.134-0.172,0.233
		c-0.026,0.08-0.039,0.228-0.039,0.445v0.668c0,0.108-0.025,0.189-0.075,0.243s-0.115,0.081-0.194,0.081
		c-0.077,0-0.14-0.028-0.189-0.084s-0.074-0.136-0.074-0.24V1.64c0-0.102,0.022-0.177,0.066-0.228s0.105-0.075,0.182-0.075
		c0.047,0,0.089,0.011,0.127,0.033s0.068,0.055,0.091,0.1S22.053,1.568,22.053,1.632z"/>
	<path fill="#FFFFFF" d="M25.896,2.845c0,0.066-0.02,0.137-0.06,0.213s-0.1,0.147-0.182,0.216s-0.184,0.124-0.308,0.165
		s-0.263,0.063-0.418,0.063c-0.33,0-0.586-0.096-0.771-0.288s-0.277-0.45-0.277-0.772c0-0.219,0.042-0.412,0.127-0.58
		s0.207-0.298,0.367-0.39s0.352-0.138,0.574-0.138c0.138,0,0.265,0.02,0.38,0.061s0.213,0.092,0.293,0.156s0.141,0.132,0.184,0.204
		s0.063,0.14,0.063,0.202c0,0.064-0.024,0.118-0.071,0.162s-0.105,0.066-0.173,0.066c-0.044,0-0.081-0.011-0.11-0.034
		s-0.062-0.06-0.099-0.11c-0.065-0.099-0.133-0.173-0.204-0.223s-0.161-0.074-0.271-0.074c-0.158,0-0.285,0.062-0.381,0.185
		s-0.145,0.292-0.145,0.505c0,0.1,0.012,0.192,0.037,0.276s0.061,0.156,0.107,0.215s0.104,0.104,0.17,0.135s0.139,0.046,0.219,0.046
		c0.107,0,0.198-0.025,0.274-0.074s0.144-0.125,0.202-0.227c0.033-0.06,0.068-0.107,0.105-0.141s0.084-0.051,0.139-0.051
		c0.065,0,0.119,0.025,0.162,0.074S25.896,2.789,25.896,2.845z"/>
	<path fill="#FFFFFF" d="M26.631,1.089c-0.074,0-0.138-0.023-0.19-0.068s-0.079-0.11-0.079-0.193c0-0.076,0.027-0.138,0.081-0.187
		s0.117-0.073,0.188-0.073c0.069,0,0.13,0.022,0.184,0.066s0.08,0.109,0.08,0.193c0,0.082-0.026,0.146-0.078,0.192
		S26.703,1.089,26.631,1.089z M26.895,1.64v1.541c0,0.107-0.025,0.188-0.076,0.242s-0.115,0.082-0.193,0.082
		s-0.142-0.028-0.19-0.084s-0.073-0.136-0.073-0.24V1.655c0-0.105,0.024-0.185,0.073-0.238s0.112-0.08,0.19-0.08
		s0.143,0.027,0.193,0.08S26.895,1.544,26.895,1.64z"/>
	<path fill="#FFFFFF" d="M28.793,3.204c-0.129,0.1-0.254,0.175-0.375,0.226s-0.255,0.075-0.405,0.075
		c-0.137,0-0.257-0.027-0.36-0.081s-0.183-0.127-0.239-0.22S27.33,3.011,27.33,2.903c0-0.146,0.046-0.27,0.139-0.373
		s0.219-0.172,0.381-0.207c0.034-0.008,0.118-0.025,0.252-0.053s0.249-0.052,0.345-0.075s0.2-0.05,0.312-0.083
		c-0.007-0.141-0.035-0.244-0.086-0.31c-0.05-0.066-0.153-0.099-0.311-0.099c-0.135,0-0.237,0.019-0.306,0.057
		s-0.127,0.094-0.176,0.17s-0.083,0.125-0.104,0.149s-0.063,0.036-0.13,0.036c-0.06,0-0.112-0.019-0.155-0.058
		s-0.065-0.087-0.065-0.147c0-0.094,0.033-0.185,0.1-0.273s0.17-0.162,0.311-0.219s0.316-0.086,0.525-0.086
		c0.234,0,0.418,0.028,0.553,0.083c0.134,0.055,0.229,0.143,0.283,0.263c0.057,0.12,0.084,0.279,0.084,0.477
		c0,0.125,0,0.231-0.002,0.318c0,0.087-0.002,0.184-0.002,0.291c0,0.1,0.016,0.205,0.049,0.313s0.051,0.179,0.051,0.21
		c0,0.055-0.025,0.104-0.078,0.149c-0.051,0.045-0.109,0.067-0.174,0.067c-0.055,0-0.109-0.026-0.162-0.077
		C28.91,3.376,28.853,3.302,28.793,3.204z M28.758,2.433c-0.078,0.029-0.192,0.059-0.341,0.091s-0.252,0.055-0.31,0.07
		s-0.112,0.044-0.164,0.088s-0.078,0.104-0.078,0.183c0,0.081,0.031,0.149,0.092,0.206s0.141,0.085,0.24,0.085
		c0.105,0,0.203-0.023,0.292-0.069s0.155-0.106,0.197-0.179c0.048-0.081,0.072-0.213,0.072-0.398V2.433z"/>
	<path fill="#FFFFFF" d="M29.752,1.384h0.059v-0.32c0-0.086,0.002-0.153,0.007-0.202s0.018-0.091,0.038-0.126
		c0.021-0.037,0.051-0.066,0.09-0.089s0.083-0.034,0.131-0.034c0.067,0,0.129,0.025,0.184,0.076c0.036,0.034,0.06,0.075,0.069,0.124
		s0.015,0.118,0.015,0.208v0.363h0.195c0.075,0,0.133,0.018,0.173,0.054s0.06,0.082,0.06,0.138c0,0.072-0.028,0.122-0.085,0.15
		s-0.138,0.043-0.243,0.043h-0.1v0.98c0,0.083,0.003,0.147,0.009,0.192s0.021,0.082,0.047,0.109s0.066,0.042,0.124,0.042
		c0.031,0,0.073-0.005,0.127-0.017s0.095-0.017,0.125-0.017c0.043,0,0.082,0.017,0.116,0.052s0.052,0.077,0.052,0.128
		c0,0.086-0.047,0.152-0.141,0.197s-0.229,0.068-0.404,0.068c-0.167,0-0.293-0.028-0.379-0.084s-0.143-0.133-0.169-0.232
		s-0.04-0.231-0.04-0.396V1.769h-0.07c-0.077,0-0.136-0.018-0.176-0.055s-0.061-0.083-0.061-0.139s0.021-0.102,0.063-0.138
		S29.671,1.384,29.752,1.384z"/>
	<path fill="#FFFFFF" d="M32.524,3.204V3.136c-0.063,0.081-0.131,0.148-0.201,0.203s-0.147,0.095-0.23,0.122s-0.179,0.04-0.285,0.04
		c-0.129,0-0.244-0.027-0.347-0.08S31.279,3.294,31.223,3.2c-0.066-0.113-0.1-0.276-0.1-0.488V1.655
		c0-0.107,0.024-0.187,0.072-0.239s0.112-0.079,0.191-0.079c0.081,0,0.146,0.027,0.195,0.08s0.074,0.133,0.074,0.238v0.854
		c0,0.124,0.011,0.228,0.031,0.312s0.059,0.15,0.112,0.197s0.127,0.071,0.22,0.071c0.09,0,0.175-0.027,0.254-0.08
		s0.138-0.123,0.174-0.209c0.03-0.076,0.045-0.241,0.045-0.496V1.655c0-0.105,0.024-0.185,0.074-0.238s0.114-0.08,0.193-0.08
		s0.144,0.026,0.191,0.079s0.072,0.132,0.072,0.239V3.2c0,0.102-0.023,0.178-0.069,0.229s-0.105,0.076-0.179,0.076
		s-0.133-0.026-0.181-0.079S32.524,3.299,32.524,3.204z"/>
	<path fill="#FFFFFF" d="M34.084,2.735v0.445c0,0.108-0.025,0.189-0.076,0.243s-0.115,0.081-0.193,0.081
		c-0.077,0-0.14-0.027-0.189-0.082s-0.074-0.135-0.074-0.242V1.696c0-0.24,0.087-0.359,0.26-0.359c0.089,0,0.152,0.028,0.191,0.084
		s0.061,0.139,0.064,0.248c0.063-0.109,0.129-0.192,0.196-0.248s0.156-0.084,0.269-0.084s0.221,0.028,0.326,0.084
		s0.158,0.13,0.158,0.223c0,0.065-0.022,0.119-0.067,0.161s-0.094,0.063-0.146,0.063c-0.02,0-0.066-0.012-0.142-0.036
		s-0.141-0.036-0.198-0.036c-0.078,0-0.142,0.021-0.191,0.062s-0.088,0.102-0.115,0.183S34.111,2.217,34.1,2.328
		S34.084,2.575,34.084,2.735z"/>
	<path fill="#FFFFFF" d="M36.555,3.204c-0.129,0.1-0.254,0.175-0.374,0.226s-0.256,0.075-0.405,0.075
		c-0.137,0-0.257-0.027-0.36-0.081s-0.184-0.127-0.239-0.22s-0.084-0.193-0.084-0.301c0-0.146,0.046-0.27,0.139-0.373
		s0.22-0.172,0.381-0.207c0.034-0.008,0.118-0.025,0.252-0.053s0.249-0.052,0.345-0.075s0.199-0.05,0.312-0.083
		c-0.007-0.141-0.035-0.244-0.085-0.31s-0.154-0.099-0.312-0.099c-0.136,0-0.237,0.019-0.306,0.057s-0.127,0.094-0.176,0.17
		s-0.083,0.125-0.104,0.149s-0.063,0.036-0.13,0.036c-0.06,0-0.111-0.019-0.155-0.058s-0.065-0.087-0.065-0.147
		c0-0.094,0.033-0.185,0.1-0.273s0.17-0.162,0.311-0.219s0.315-0.086,0.525-0.086c0.234,0,0.419,0.028,0.553,0.083
		s0.229,0.143,0.284,0.263s0.083,0.279,0.083,0.477c0,0.125,0,0.231-0.001,0.318s-0.002,0.184-0.003,0.291
		c0,0.1,0.017,0.205,0.05,0.313s0.05,0.179,0.05,0.21c0,0.055-0.025,0.104-0.077,0.149s-0.109,0.067-0.175,0.067
		c-0.055,0-0.108-0.026-0.162-0.077S36.615,3.302,36.555,3.204z M36.52,2.433c-0.078,0.029-0.191,0.059-0.341,0.091
		s-0.252,0.055-0.31,0.07s-0.112,0.044-0.164,0.088s-0.078,0.104-0.078,0.183c0,0.081,0.03,0.149,0.092,0.206
		s0.142,0.085,0.24,0.085c0.105,0,0.203-0.023,0.292-0.069s0.154-0.106,0.196-0.179c0.048-0.081,0.072-0.213,0.072-0.398V2.433z"/>
	<path fill="#FFFFFF" d="M40.073,2.552H39.03c0.001,0.121,0.025,0.228,0.073,0.32s0.11,0.162,0.189,0.209s0.166,0.07,0.261,0.07
		c0.063,0,0.122-0.007,0.175-0.022s0.104-0.039,0.153-0.07s0.095-0.066,0.137-0.103s0.096-0.086,0.162-0.148
		c0.027-0.023,0.066-0.035,0.117-0.035c0.055,0,0.099,0.015,0.133,0.045s0.051,0.072,0.051,0.127c0,0.048-0.019,0.104-0.057,0.169
		S40.33,3.24,40.253,3.299s-0.172,0.108-0.287,0.147s-0.248,0.059-0.397,0.059c-0.343,0-0.608-0.098-0.799-0.293
		s-0.285-0.46-0.285-0.795c0-0.158,0.023-0.304,0.07-0.438s0.115-0.25,0.205-0.347s0.2-0.17,0.332-0.222s0.277-0.077,0.438-0.077
		c0.208,0,0.387,0.044,0.536,0.132s0.261,0.202,0.335,0.341s0.111,0.281,0.111,0.426c0,0.134-0.038,0.221-0.115,0.261
		S40.212,2.552,40.073,2.552z M39.03,2.249h0.967c-0.013-0.182-0.063-0.319-0.147-0.409s-0.197-0.136-0.337-0.136
		c-0.133,0-0.242,0.046-0.327,0.138S39.048,2.069,39.03,2.249z"/>
	<path fill="#FFFFFF" d="M42.735,2.46v0.709c0,0.112-0.025,0.196-0.076,0.252s-0.118,0.084-0.201,0.084
		c-0.081,0-0.146-0.028-0.196-0.084s-0.075-0.14-0.075-0.252v-0.85c0-0.134-0.005-0.238-0.014-0.313s-0.034-0.135-0.074-0.183
		s-0.104-0.071-0.191-0.071c-0.175,0-0.289,0.06-0.345,0.18s-0.083,0.292-0.083,0.516v0.721c0,0.111-0.025,0.194-0.075,0.251
		s-0.116,0.085-0.198,0.085c-0.081,0-0.146-0.028-0.198-0.085S40.93,3.28,40.93,3.169V1.644c0-0.1,0.023-0.176,0.069-0.229
		s0.107-0.078,0.183-0.078c0.073,0,0.134,0.024,0.183,0.073s0.073,0.116,0.073,0.202v0.051c0.093-0.111,0.191-0.192,0.297-0.244
		s0.223-0.078,0.352-0.078c0.134,0,0.249,0.027,0.346,0.08s0.176,0.134,0.238,0.242c0.09-0.109,0.187-0.19,0.289-0.243
		s0.217-0.079,0.342-0.079c0.146,0,0.271,0.029,0.377,0.086s0.185,0.139,0.236,0.246c0.046,0.096,0.068,0.248,0.068,0.455v1.041
		c0,0.112-0.025,0.196-0.076,0.252s-0.118,0.084-0.201,0.084c-0.081,0-0.146-0.028-0.198-0.085S43.43,3.28,43.43,3.169V2.272
		c0-0.115-0.005-0.207-0.015-0.275s-0.036-0.127-0.079-0.174s-0.108-0.07-0.195-0.07c-0.07,0-0.137,0.021-0.2,0.063
		s-0.112,0.098-0.147,0.168C42.754,2.073,42.735,2.232,42.735,2.46z"/>
</g>
<path fill-rule="evenodd" clip-rule="evenodd" fill="#FFFFFF" d="M4.229,9.583l0.803-0.77C5.208,8.975,5.362,9.2,5.608,9.397
	c0.096,0.078,0.166,0.098,0.232,0.186c-0.072,0.134-0.277,0.36-0.389,0.492c-0.138,0.163-0.272,0.369-0.42,0.49
	C4.918,10.483,4.316,9.716,4.229,9.583L4.229,9.583z M2.771,3.739C2.664,3.718,2.516,3.694,2.296,3.667
	c-0.579-0.069-1.321-0.15-1.746-0.592l-0.33-0.398C0.195,3.482,0.504,4.028,0.917,4.375C1.37,4.756,1.979,4.898,2.621,5.087
	c1.215,0.356,2.308,1.359,1.905,2.716c-0.35,1.179-2.042,1.729-3.059,0.736C0.808,7.896,0.675,6.792,1.407,5.96
	c0.271-0.308,0.54-0.37,0.691-0.489c-0.542-0.115-0.646-0.208-1.073-0.4C0.044,5.617-0.638,7.937,0.93,9.29
	c0.51,0.44,0.787,0.424,0.967,0.593c0.369,0.344,0.323,0.401,0.798,0.726c1.456,0.995,3.272,1.026,4.679,0.003
	c0.525-0.382,0.596-0.571,0.814-0.745c0.18-0.145,1.93-0.668,1.895-2.729c-0.014-0.777-0.515-1.803-1.043-2.066
	c-0.197,0.093-0.293,0.165-0.516,0.24C8.346,5.371,8.14,5.423,7.976,5.475c0.151,0.12,0.471,0.218,0.705,0.496
	C9.968,7.5,8.457,9.528,6.757,8.958c-1.907-0.64-1.753-3.185,0.718-3.879c0.661-0.186,1.236-0.333,1.699-0.712
	c0.374-0.307,0.729-0.94,0.674-1.691C9.793,2.739,9.745,2.831,9.692,2.9c-0.47,0.603-1.193,0.671-1.928,0.771
	C7.573,3.697,7.4,3.716,7.219,3.75C7.211,3.773,7.202,3.797,7.191,3.822v0.001C7.14,3.933,7.054,4.031,6.908,4.104
	C6.285,4.416,5.655,4.561,5.028,4.561c-0.658,0-1.311-0.159-1.952-0.449h0C2.855,4.021,2.799,3.885,2.771,3.739L2.771,3.739z
	 M7.969,7.421C7.721,8.268,6.368,7.913,6.654,6.986c0.094-0.303,0.462-0.563,0.875-0.428C7.83,6.656,8.094,6.994,7.969,7.421
	L7.969,7.421z M2.093,7.386C1.989,6.968,2.278,6.613,2.594,6.543C3.02,6.449,3.363,6.729,3.433,7.038
	C3.648,7.98,2.298,8.22,2.093,7.386L2.093,7.386z M7.788,1.843c0.071,0,0.119,0.047,0.119,0.119V3.14
	c0,0.06-0.048,0.107-0.119,0.107l0,0c-0.06,0-0.119-0.048-0.119-0.107V1.962C7.669,1.89,7.729,1.843,7.788,1.843L7.788,1.843
	L7.788,1.843z M3.23,3.771C3.138,3.736,3.137,3.65,3.124,3.568V2.307c0.44,0.095,1.5,0.845,1.856,0.856
	C5.36,3.176,6.443,2.39,6.883,2.319L6.872,3.544c0,0.083-0.012,0.167-0.131,0.226C5.575,4.354,4.385,4.294,3.23,3.771L3.23,3.771z
	 M4.968,0.142L4.968,0.142c0.44,0.19,3.201,1.083,3.142,1.178c-0.036,0.047-0.25,0.107-0.607,0.297
	C7.229,1.76,6.967,1.878,6.705,2.009c-1.797,0.869-1.38,1-2.416,0.5c-0.357-0.178-2.32-1.13-2.356-1.202
	C1.838,1.165,4.611,0.32,4.968,0.142z"/>
</svg>
