<?xml version="1.0" encoding="utf-8"?>
<!-- Generator: Adobe Illustrator 16.0.0, SVG Export Plug-In . SVG Version: 6.00 Build 0)  -->
<!DOCTYPE svg PUBLIC "-//W3C//DTD SVG 1.1//EN" "http://www.w3.org/Graphics/SVG/1.1/DTD/svg11.dtd" [
	<!ENTITY ns_flows "http://ns.adobe.com/Flows/1.0/">
	<!ENTITY ns_extend "http://ns.adobe.com/Extensibility/1.0/">
	<!ENTITY ns_ai "http://ns.adobe.com/AdobeIllustrator/10.0/">
	<!ENTITY ns_graphs "http://ns.adobe.com/Graphs/1.0/">
]>
<svg version="1.1" id="Camada_1" xmlns:x="&ns_extend;" xmlns:i="&ns_ai;" xmlns:graph="&ns_graphs;"
	 xmlns="http://www.w3.org/2000/svg" xmlns:xlink="http://www.w3.org/1999/xlink" xmlns:a="http://ns.adobe.com/AdobeSVGViewerExtensions/3.0/"
	 x="0px" y="0px" width="42.504px" height="12.648px" viewBox="0 0 42.504 12.648" enable-background="new 0 0 42.504 12.648"
	 xml:space="preserve">
<g>
	<path fill="#FFFFFF" d="M15.646,10.25c0.169,0.115,0.354,0.226,0.555,0.334c0.2,0.108,0.333,0.194,0.398,0.258
		c0.065,0.064,0.098,0.154,0.098,0.271c0,0.083-0.039,0.167-0.115,0.25c-0.077,0.083-0.17,0.125-0.279,0.125
		c-0.089,0-0.196-0.029-0.322-0.086c-0.126-0.057-0.275-0.141-0.445-0.25c-0.171-0.109-0.357-0.237-0.561-0.383
		c-0.377,0.193-0.841,0.289-1.391,0.289c-0.445,0-0.844-0.071-1.197-0.213s-0.649-0.346-0.889-0.613s-0.42-0.584-0.541-0.951
		s-0.182-0.767-0.182-1.199c0-0.44,0.063-0.844,0.189-1.211s0.309-0.68,0.549-0.938s0.531-0.455,0.875-0.592
		s0.734-0.205,1.172-0.205c0.594,0,1.104,0.121,1.529,0.361c0.426,0.241,0.748,0.583,0.967,1.027s0.328,0.965,0.328,1.564
		C16.384,8.998,16.138,9.718,15.646,10.25z M14.735,9.617c0.162-0.185,0.281-0.404,0.357-0.656s0.115-0.545,0.115-0.879
		c0-0.419-0.068-0.783-0.203-1.09s-0.329-0.54-0.58-0.697s-0.54-0.236-0.865-0.236c-0.232,0-0.446,0.044-0.643,0.131
		c-0.197,0.087-0.366,0.214-0.508,0.381s-0.254,0.379-0.336,0.639s-0.123,0.55-0.123,0.873c0,0.659,0.154,1.166,0.461,1.521
		s0.695,0.533,1.164,0.533c0.193,0,0.391-0.041,0.594-0.121c-0.123-0.091-0.275-0.182-0.459-0.273s-0.309-0.162-0.377-0.211
		s-0.102-0.12-0.102-0.211c0-0.078,0.033-0.147,0.098-0.207s0.137-0.09,0.215-0.09C13.781,9.023,14.178,9.221,14.735,9.617z"/>
	<path fill="#FFFFFF" d="M20.071,10.457V10.32c-0.127,0.162-0.262,0.297-0.402,0.406s-0.294,0.191-0.461,0.244
		s-0.357,0.08-0.57,0.08c-0.258,0-0.489-0.053-0.693-0.16s-0.363-0.254-0.475-0.441c-0.133-0.227-0.199-0.552-0.199-0.977V7.359
		c0-0.213,0.048-0.373,0.145-0.479s0.224-0.158,0.383-0.158c0.162,0,0.292,0.053,0.391,0.16s0.148,0.266,0.148,0.477v1.707
		c0,0.248,0.021,0.455,0.063,0.623s0.117,0.299,0.225,0.395s0.254,0.143,0.439,0.143c0.18,0,0.349-0.053,0.508-0.16
		s0.275-0.246,0.348-0.418c0.06-0.151,0.09-0.482,0.09-0.992V7.359c0-0.211,0.049-0.37,0.148-0.477s0.228-0.16,0.387-0.16
		s0.287,0.053,0.383,0.158s0.145,0.265,0.145,0.479v3.09c0,0.203-0.046,0.355-0.139,0.457s-0.211,0.152-0.357,0.152
		s-0.266-0.053-0.361-0.158S20.071,10.646,20.071,10.457z"/>
	<path fill="#FFFFFF" d="M23.017,5.191h0.527c0.133,0,0.199,0.02,0.199,0.059c0,0.021-0.073,0.105-0.219,0.254
		s-0.293,0.291-0.441,0.426c-0.148,0.136-0.251,0.217-0.309,0.246c-0.148,0.076-0.308,0.113-0.477,0.113
		c-0.112,0-0.168-0.033-0.168-0.098c0-0.044,0.034-0.121,0.102-0.23l0.176-0.328c0.102-0.19,0.19-0.311,0.266-0.363
		C22.748,5.217,22.863,5.191,23.017,5.191z M23.2,7.328v3.082c0,0.213-0.051,0.375-0.152,0.484s-0.23,0.164-0.387,0.164
		s-0.283-0.056-0.381-0.168s-0.146-0.272-0.146-0.48V7.359c0-0.211,0.049-0.37,0.146-0.477s0.225-0.16,0.381-0.16
		s0.285,0.053,0.387,0.16S23.2,7.138,23.2,7.328z"/>
	<path fill="#FFFFFF" d="M27.849,8.968v1.418c0,0.224-0.051,0.392-0.152,0.504s-0.235,0.168-0.402,0.168
		c-0.161,0-0.292-0.056-0.393-0.168s-0.15-0.28-0.15-0.504V8.687c0-0.268-0.009-0.477-0.027-0.625s-0.067-0.27-0.148-0.365
		s-0.208-0.143-0.383-0.143c-0.349,0-0.579,0.12-0.689,0.359s-0.166,0.583-0.166,1.031v1.441c0,0.221-0.05,0.389-0.15,0.502
		s-0.232,0.17-0.396,0.17c-0.161,0-0.294-0.057-0.396-0.17s-0.154-0.281-0.154-0.502V7.335c0-0.201,0.046-0.353,0.139-0.457
		s0.214-0.156,0.365-0.156c0.146,0,0.268,0.049,0.365,0.146s0.146,0.232,0.146,0.404v0.102c0.185-0.221,0.383-0.384,0.594-0.488
		s0.445-0.156,0.703-0.156c0.269,0,0.499,0.053,0.691,0.16s0.352,0.268,0.477,0.484c0.18-0.219,0.372-0.381,0.578-0.486
		s0.434-0.158,0.684-0.158c0.292,0,0.543,0.057,0.754,0.172s0.368,0.279,0.473,0.492c0.091,0.193,0.137,0.496,0.137,0.91v2.082
		c0,0.224-0.051,0.392-0.152,0.504s-0.235,0.168-0.402,0.168c-0.161,0-0.294-0.057-0.396-0.17s-0.154-0.281-0.154-0.502V8.593
		c0-0.229-0.01-0.413-0.029-0.551s-0.072-0.254-0.158-0.348s-0.216-0.141-0.391-0.141c-0.141,0-0.274,0.042-0.4,0.125
		s-0.225,0.195-0.295,0.336C27.888,8.195,27.849,8.513,27.849,8.968z"/>
	<path fill="#FFFFFF" d="M31.919,6.226c-0.148,0-0.275-0.045-0.381-0.137c-0.105-0.091-0.158-0.22-0.158-0.387
		c0-0.151,0.054-0.275,0.162-0.373s0.233-0.146,0.377-0.146c0.138,0,0.261,0.044,0.367,0.133c0.106,0.089,0.16,0.218,0.16,0.387
		c0,0.164-0.052,0.292-0.156,0.385S32.063,6.226,31.919,6.226z M32.446,7.328v3.082c0,0.213-0.051,0.375-0.152,0.484
		s-0.23,0.164-0.387,0.164s-0.283-0.056-0.381-0.168s-0.146-0.272-0.146-0.48V7.359c0-0.211,0.049-0.37,0.146-0.477
		s0.225-0.16,0.381-0.16s0.285,0.053,0.387,0.16S32.446,7.138,32.446,7.328z"/>
	<path fill="#FFFFFF" d="M37.372,9.738c0,0.133-0.04,0.275-0.119,0.426s-0.2,0.295-0.363,0.432s-0.368,0.247-0.615,0.33
		s-0.526,0.125-0.836,0.125c-0.659,0-1.173-0.192-1.543-0.576s-0.555-0.899-0.555-1.545c0-0.438,0.085-0.824,0.254-1.16
		s0.414-0.596,0.734-0.779s0.703-0.275,1.148-0.275c0.276,0,0.529,0.041,0.76,0.121s0.426,0.185,0.586,0.313
		s0.282,0.264,0.367,0.408s0.127,0.279,0.127,0.404c0,0.127-0.048,0.236-0.143,0.324s-0.21,0.133-0.346,0.133
		c-0.089,0-0.162-0.023-0.221-0.068s-0.124-0.119-0.197-0.221c-0.13-0.198-0.267-0.346-0.408-0.445s-0.322-0.148-0.541-0.148
		c-0.315,0-0.569,0.123-0.762,0.369s-0.289,0.583-0.289,1.01c0,0.201,0.024,0.385,0.074,0.553s0.121,0.311,0.215,0.43
		s0.207,0.208,0.34,0.27s0.278,0.092,0.438,0.092c0.214,0,0.396-0.049,0.549-0.148s0.287-0.25,0.404-0.453
		c0.065-0.12,0.136-0.213,0.211-0.281s0.168-0.102,0.277-0.102c0.13,0,0.238,0.049,0.324,0.148S37.372,9.626,37.372,9.738z"/>
	<path fill="#FFFFFF" d="M40.997,10.457c-0.258,0.201-0.507,0.351-0.748,0.451s-0.511,0.15-0.811,0.15
		c-0.273,0-0.514-0.054-0.721-0.162s-0.366-0.254-0.479-0.439s-0.168-0.385-0.168-0.602c0-0.292,0.093-0.541,0.277-0.746
		s0.438-0.344,0.762-0.414c0.067-0.016,0.235-0.051,0.504-0.105s0.498-0.105,0.689-0.15s0.399-0.101,0.623-0.166
		c-0.013-0.281-0.069-0.488-0.17-0.619s-0.308-0.197-0.623-0.197c-0.271,0-0.475,0.038-0.611,0.113s-0.254,0.189-0.352,0.34
		s-0.167,0.25-0.207,0.299s-0.127,0.072-0.26,0.072c-0.12,0-0.224-0.039-0.311-0.115s-0.131-0.175-0.131-0.295
		c0-0.188,0.066-0.37,0.199-0.547s0.34-0.323,0.621-0.438s0.632-0.172,1.051-0.172c0.469,0,0.837,0.055,1.105,0.166
		s0.458,0.286,0.568,0.525s0.166,0.557,0.166,0.953c0,0.25-0.001,0.462-0.002,0.637s-0.003,0.369-0.006,0.582
		c0,0.201,0.033,0.41,0.1,0.627s0.1,0.357,0.1,0.42c0,0.109-0.052,0.209-0.154,0.299s-0.22,0.135-0.35,0.135
		c-0.109,0-0.218-0.051-0.324-0.154S41.117,10.652,40.997,10.457z M40.927,8.914c-0.156,0.057-0.384,0.118-0.682,0.182
		s-0.505,0.111-0.619,0.141s-0.224,0.088-0.328,0.176s-0.156,0.209-0.156,0.365c0,0.162,0.062,0.299,0.184,0.412
		s0.282,0.17,0.48,0.17c0.211,0,0.405-0.046,0.584-0.139s0.31-0.211,0.393-0.357c0.097-0.162,0.145-0.427,0.145-0.797V8.914z"/>
</g>
<g>
	<path fill="#FFFFFF" d="M11.678,1.386V3.47h1.176c0.094,0,0.166,0.023,0.216,0.068s0.075,0.103,0.075,0.172
		c0,0.07-0.025,0.127-0.074,0.171s-0.122,0.065-0.217,0.065h-1.4c-0.126,0-0.217-0.028-0.272-0.084s-0.083-0.146-0.083-0.271V1.386
		c0-0.117,0.026-0.205,0.079-0.264s0.122-0.088,0.208-0.088c0.087,0,0.158,0.029,0.212,0.087S11.678,1.267,11.678,1.386z"/>
	<path fill="#FFFFFF" d="M13.758,1.579c-0.074,0-0.138-0.023-0.19-0.068s-0.079-0.11-0.079-0.193c0-0.076,0.027-0.138,0.081-0.187
		s0.117-0.073,0.188-0.073c0.069,0,0.13,0.022,0.184,0.066s0.08,0.109,0.08,0.193c0,0.082-0.026,0.146-0.078,0.192
		S13.83,1.579,13.758,1.579z M14.021,2.13v1.541c0,0.107-0.025,0.188-0.076,0.242s-0.115,0.082-0.193,0.082s-0.142-0.028-0.19-0.084
		s-0.073-0.136-0.073-0.24V2.146c0-0.105,0.024-0.185,0.073-0.238s0.112-0.08,0.19-0.08s0.143,0.027,0.193,0.08
		S14.021,2.035,14.021,2.13z"/>
	<path fill="#FFFFFF" d="M16.484,3.335c0,0.066-0.02,0.137-0.06,0.213s-0.1,0.147-0.182,0.216s-0.184,0.124-0.308,0.165
		s-0.263,0.063-0.418,0.063c-0.33,0-0.586-0.096-0.771-0.288s-0.277-0.45-0.277-0.772c0-0.219,0.042-0.412,0.127-0.58
		s0.207-0.298,0.367-0.39s0.352-0.138,0.574-0.138c0.138,0,0.265,0.02,0.38,0.061S16.13,1.976,16.21,2.04s0.141,0.132,0.184,0.204
		s0.063,0.14,0.063,0.202c0,0.064-0.024,0.118-0.071,0.162s-0.105,0.066-0.173,0.066c-0.044,0-0.081-0.011-0.11-0.034
		s-0.062-0.06-0.099-0.11c-0.065-0.099-0.133-0.173-0.204-0.223s-0.161-0.074-0.271-0.074c-0.158,0-0.285,0.062-0.381,0.185
		s-0.145,0.292-0.145,0.505c0,0.1,0.012,0.192,0.037,0.276s0.061,0.156,0.107,0.215s0.104,0.104,0.17,0.135s0.139,0.046,0.219,0.046
		c0.107,0,0.198-0.025,0.274-0.074s0.144-0.125,0.202-0.227c0.033-0.06,0.068-0.107,0.105-0.141s0.084-0.051,0.139-0.051
		c0.065,0,0.119,0.025,0.162,0.074S16.484,3.279,16.484,3.335z"/>
	<path fill="#FFFFFF" d="M18.438,3.042h-1.043c0.001,0.121,0.026,0.228,0.073,0.32s0.111,0.162,0.189,0.209s0.166,0.07,0.261,0.07
		c0.064,0,0.122-0.007,0.175-0.022s0.104-0.039,0.153-0.07s0.095-0.066,0.137-0.103s0.096-0.086,0.162-0.148
		c0.027-0.023,0.066-0.035,0.117-0.035c0.055,0,0.099,0.015,0.133,0.045s0.051,0.072,0.051,0.127c0,0.048-0.019,0.104-0.057,0.169
		s-0.095,0.126-0.171,0.186s-0.172,0.108-0.287,0.147s-0.248,0.059-0.397,0.059c-0.342,0-0.609-0.098-0.799-0.293
		s-0.285-0.46-0.285-0.795c0-0.158,0.023-0.304,0.07-0.438s0.115-0.25,0.205-0.347s0.201-0.17,0.332-0.222s0.277-0.077,0.438-0.077
		c0.208,0,0.387,0.044,0.536,0.132s0.261,0.202,0.335,0.341s0.111,0.281,0.111,0.426c0,0.134-0.039,0.221-0.115,0.261
		S18.577,3.042,18.438,3.042z M17.395,2.739h0.967c-0.013-0.182-0.062-0.319-0.147-0.409s-0.198-0.136-0.337-0.136
		c-0.133,0-0.242,0.046-0.327,0.138S17.413,2.56,17.395,2.739z"/>
	<path fill="#FFFFFF" d="M19.811,2.122v0.064c0.094-0.124,0.196-0.214,0.308-0.272s0.239-0.087,0.384-0.087
		c0.141,0,0.266,0.031,0.377,0.092s0.193,0.148,0.248,0.26c0.035,0.065,0.058,0.135,0.068,0.211s0.016,0.172,0.016,0.289v0.992
		c0,0.107-0.024,0.188-0.073,0.242s-0.112,0.082-0.19,0.082c-0.08,0-0.144-0.028-0.193-0.084s-0.074-0.136-0.074-0.24V2.782
		c0-0.176-0.024-0.31-0.073-0.403s-0.146-0.14-0.292-0.14c-0.095,0-0.182,0.028-0.26,0.085s-0.135,0.134-0.172,0.233
		c-0.026,0.08-0.039,0.228-0.039,0.445v0.668c0,0.108-0.025,0.189-0.075,0.243s-0.115,0.081-0.194,0.081
		c-0.077,0-0.14-0.028-0.189-0.084s-0.074-0.136-0.074-0.24V2.13c0-0.102,0.022-0.177,0.066-0.228s0.105-0.075,0.182-0.075
		c0.047,0,0.089,0.011,0.127,0.033s0.068,0.055,0.091,0.1S19.811,2.058,19.811,2.122z"/>
	<path fill="#FFFFFF" d="M23.654,3.335c0,0.066-0.02,0.137-0.06,0.213s-0.101,0.147-0.182,0.216s-0.184,0.124-0.308,0.165
		s-0.263,0.063-0.418,0.063c-0.33,0-0.586-0.096-0.771-0.288c-0.185-0.192-0.277-0.45-0.277-0.772c0-0.219,0.042-0.412,0.127-0.58
		c0.084-0.168,0.207-0.298,0.367-0.39s0.352-0.138,0.574-0.138c0.138,0,0.265,0.02,0.38,0.061S23.3,1.976,23.38,2.04
		s0.142,0.132,0.184,0.204s0.063,0.14,0.063,0.202c0,0.064-0.023,0.118-0.071,0.162s-0.105,0.066-0.173,0.066
		c-0.044,0-0.081-0.011-0.11-0.034s-0.063-0.06-0.099-0.11c-0.065-0.099-0.133-0.173-0.204-0.223s-0.161-0.074-0.271-0.074
		c-0.157,0-0.285,0.062-0.381,0.185s-0.145,0.292-0.145,0.505c0,0.1,0.012,0.192,0.037,0.276s0.061,0.156,0.107,0.215
		s0.104,0.104,0.17,0.135s0.14,0.046,0.219,0.046c0.106,0,0.198-0.025,0.274-0.074s0.144-0.125,0.202-0.227
		c0.032-0.06,0.067-0.107,0.105-0.141s0.084-0.051,0.139-0.051c0.065,0,0.119,0.025,0.162,0.074S23.654,3.279,23.654,3.335z"/>
	<path fill="#FFFFFF" d="M24.389,1.579c-0.074,0-0.138-0.023-0.19-0.068s-0.079-0.11-0.079-0.193c0-0.076,0.027-0.138,0.081-0.187
		s0.117-0.073,0.188-0.073c0.069,0,0.13,0.022,0.184,0.066s0.08,0.109,0.08,0.193c0,0.082-0.026,0.146-0.078,0.192
		S24.46,1.579,24.389,1.579z M24.652,2.13v1.541c0,0.107-0.025,0.188-0.076,0.242s-0.115,0.082-0.193,0.082s-0.142-0.028-0.19-0.084
		s-0.073-0.136-0.073-0.24V2.146c0-0.105,0.024-0.185,0.073-0.238s0.112-0.08,0.19-0.08s0.143,0.027,0.193,0.08
		S24.652,2.035,24.652,2.13z"/>
	<path fill="#FFFFFF" d="M26.551,3.694c-0.129,0.1-0.254,0.175-0.374,0.226s-0.256,0.075-0.405,0.075
		c-0.137,0-0.257-0.027-0.36-0.081s-0.184-0.127-0.239-0.22s-0.084-0.193-0.084-0.301c0-0.146,0.046-0.27,0.139-0.373
		s0.22-0.172,0.381-0.207c0.034-0.008,0.118-0.025,0.252-0.053s0.249-0.052,0.345-0.075s0.199-0.05,0.312-0.083
		c-0.007-0.141-0.035-0.244-0.085-0.31s-0.154-0.099-0.312-0.099c-0.136,0-0.237,0.019-0.306,0.057s-0.127,0.094-0.176,0.17
		s-0.083,0.125-0.104,0.149s-0.063,0.036-0.13,0.036c-0.06,0-0.111-0.019-0.155-0.058s-0.065-0.087-0.065-0.147
		c0-0.094,0.033-0.185,0.1-0.273s0.17-0.162,0.311-0.219s0.315-0.086,0.525-0.086c0.234,0,0.419,0.028,0.553,0.083
		s0.229,0.143,0.284,0.263s0.083,0.279,0.083,0.477c0,0.125,0,0.231-0.001,0.318s-0.002,0.184-0.003,0.291
		c0,0.1,0.017,0.205,0.05,0.313s0.05,0.179,0.05,0.21c0,0.055-0.025,0.104-0.077,0.149s-0.109,0.067-0.175,0.067
		c-0.055,0-0.108-0.026-0.162-0.077S26.61,3.792,26.551,3.694z M26.516,2.923c-0.078,0.029-0.191,0.059-0.341,0.091
		s-0.252,0.055-0.31,0.07s-0.112,0.044-0.164,0.088s-0.078,0.104-0.078,0.183c0,0.081,0.03,0.149,0.092,0.206
		s0.142,0.085,0.24,0.085c0.105,0,0.203-0.023,0.292-0.069s0.154-0.106,0.196-0.179c0.048-0.081,0.072-0.213,0.072-0.398V2.923z"/>
	<path fill="#FFFFFF" d="M27.51,1.874h0.059v-0.32c0-0.086,0.002-0.153,0.007-0.202s0.018-0.091,0.038-0.126
		c0.021-0.037,0.051-0.066,0.09-0.089s0.083-0.034,0.131-0.034c0.067,0,0.129,0.025,0.184,0.076c0.036,0.034,0.06,0.075,0.069,0.124
		s0.015,0.118,0.015,0.208v0.363h0.195c0.075,0,0.133,0.018,0.173,0.054s0.06,0.082,0.06,0.138c0,0.072-0.028,0.122-0.085,0.15
		s-0.138,0.043-0.243,0.043h-0.1v0.98c0,0.083,0.003,0.147,0.009,0.192s0.021,0.082,0.047,0.109s0.066,0.042,0.124,0.042
		c0.031,0,0.073-0.005,0.127-0.017s0.095-0.017,0.125-0.017c0.043,0,0.082,0.017,0.116,0.052s0.052,0.077,0.052,0.128
		c0,0.086-0.047,0.152-0.141,0.197s-0.229,0.068-0.404,0.068c-0.167,0-0.293-0.028-0.379-0.084s-0.143-0.133-0.169-0.232
		s-0.04-0.231-0.04-0.396V2.259h-0.07c-0.077,0-0.136-0.018-0.176-0.055s-0.061-0.083-0.061-0.139s0.021-0.102,0.063-0.138
		S27.429,1.874,27.51,1.874z"/>
	<path fill="#FFFFFF" d="M30.281,3.694V3.626c-0.063,0.081-0.131,0.148-0.201,0.203s-0.147,0.095-0.23,0.122s-0.179,0.04-0.285,0.04
		c-0.129,0-0.244-0.027-0.347-0.08S29.036,3.784,28.98,3.69c-0.066-0.113-0.1-0.276-0.1-0.488V2.146
		c0-0.107,0.024-0.187,0.072-0.239s0.112-0.079,0.191-0.079c0.081,0,0.146,0.027,0.195,0.08s0.074,0.133,0.074,0.238v0.854
		c0,0.124,0.011,0.228,0.031,0.312s0.059,0.15,0.112,0.197s0.127,0.071,0.22,0.071c0.09,0,0.175-0.027,0.254-0.08
		s0.138-0.123,0.174-0.209c0.03-0.076,0.045-0.241,0.045-0.496V2.146c0-0.105,0.024-0.185,0.074-0.238s0.114-0.08,0.193-0.08
		s0.144,0.026,0.191,0.079s0.072,0.132,0.072,0.239V3.69c0,0.102-0.023,0.178-0.069,0.229s-0.105,0.076-0.179,0.076
		S30.4,3.969,30.353,3.916S30.281,3.79,30.281,3.694z"/>
	<path fill="#FFFFFF" d="M31.842,3.226v0.445c0,0.108-0.025,0.189-0.076,0.243s-0.115,0.081-0.193,0.081
		c-0.077,0-0.14-0.027-0.189-0.082s-0.074-0.135-0.074-0.242V2.187c0-0.24,0.087-0.359,0.26-0.359c0.089,0,0.152,0.028,0.191,0.084
		s0.061,0.139,0.064,0.248c0.063-0.109,0.129-0.192,0.196-0.248s0.156-0.084,0.269-0.084s0.221,0.028,0.326,0.084
		s0.158,0.13,0.158,0.223c0,0.065-0.022,0.119-0.067,0.161s-0.094,0.063-0.146,0.063c-0.02,0-0.066-0.012-0.142-0.036
		s-0.141-0.036-0.198-0.036c-0.078,0-0.142,0.021-0.191,0.062S31.941,2.45,31.914,2.53s-0.046,0.177-0.057,0.288
		S31.842,3.065,31.842,3.226z"/>
	<path fill="#FFFFFF" d="M34.313,3.694c-0.129,0.1-0.254,0.175-0.374,0.226s-0.256,0.075-0.405,0.075
		c-0.137,0-0.257-0.027-0.36-0.081s-0.184-0.127-0.239-0.22S32.85,3.501,32.85,3.394c0-0.146,0.046-0.27,0.139-0.373
		s0.22-0.172,0.381-0.207c0.034-0.008,0.118-0.025,0.252-0.053s0.249-0.052,0.345-0.075s0.199-0.05,0.312-0.083
		c-0.007-0.141-0.035-0.244-0.085-0.31s-0.154-0.099-0.312-0.099c-0.136,0-0.237,0.019-0.306,0.057s-0.127,0.094-0.176,0.17
		s-0.083,0.125-0.104,0.149s-0.063,0.036-0.13,0.036c-0.06,0-0.111-0.019-0.155-0.058s-0.065-0.087-0.065-0.147
		c0-0.094,0.033-0.185,0.1-0.273s0.17-0.162,0.311-0.219s0.315-0.086,0.525-0.086c0.234,0,0.419,0.028,0.553,0.083
		s0.229,0.143,0.284,0.263s0.083,0.279,0.083,0.477c0,0.125,0,0.231-0.001,0.318s-0.002,0.184-0.003,0.291
		c0,0.1,0.017,0.205,0.05,0.313s0.05,0.179,0.05,0.21c0,0.055-0.025,0.104-0.077,0.149s-0.109,0.067-0.175,0.067
		c-0.055,0-0.108-0.026-0.162-0.077S34.372,3.792,34.313,3.694z M34.277,2.923c-0.078,0.029-0.191,0.059-0.341,0.091
		s-0.252,0.055-0.31,0.07s-0.112,0.044-0.164,0.088s-0.078,0.104-0.078,0.183c0,0.081,0.03,0.149,0.092,0.206
		s0.142,0.085,0.24,0.085c0.105,0,0.203-0.023,0.292-0.069s0.154-0.106,0.196-0.179c0.048-0.081,0.072-0.213,0.072-0.398V2.923z"/>
	<path fill="#FFFFFF" d="M37.83,3.042h-1.043c0.001,0.121,0.025,0.228,0.073,0.32s0.11,0.162,0.189,0.209s0.166,0.07,0.261,0.07
		c0.063,0,0.122-0.007,0.175-0.022s0.104-0.039,0.153-0.07s0.095-0.066,0.137-0.103s0.096-0.086,0.162-0.148
		c0.027-0.023,0.066-0.035,0.117-0.035c0.055,0,0.099,0.015,0.133,0.045s0.051,0.072,0.051,0.127c0,0.048-0.019,0.104-0.057,0.169
		s-0.095,0.126-0.171,0.186s-0.172,0.108-0.287,0.147s-0.248,0.059-0.397,0.059c-0.343,0-0.608-0.098-0.799-0.293
		s-0.285-0.46-0.285-0.795c0-0.158,0.023-0.304,0.07-0.438s0.115-0.25,0.205-0.347s0.2-0.17,0.332-0.222s0.277-0.077,0.438-0.077
		c0.208,0,0.387,0.044,0.536,0.132s0.261,0.202,0.335,0.341s0.111,0.281,0.111,0.426c0,0.134-0.038,0.221-0.115,0.261
		S37.97,3.042,37.83,3.042z M36.787,2.739h0.967c-0.013-0.182-0.063-0.319-0.147-0.409s-0.197-0.136-0.337-0.136
		c-0.133,0-0.242,0.046-0.327,0.138S36.806,2.56,36.787,2.739z"/>
	<path fill="#FFFFFF" d="M40.492,2.95v0.709c0,0.112-0.025,0.196-0.076,0.252s-0.118,0.084-0.201,0.084
		c-0.081,0-0.146-0.028-0.196-0.084s-0.075-0.14-0.075-0.252V2.81c0-0.134-0.005-0.238-0.014-0.313s-0.034-0.135-0.074-0.183
		s-0.104-0.071-0.191-0.071c-0.175,0-0.289,0.06-0.345,0.18s-0.083,0.292-0.083,0.516v0.721c0,0.111-0.025,0.194-0.075,0.251
		s-0.116,0.085-0.198,0.085c-0.081,0-0.146-0.028-0.198-0.085s-0.077-0.14-0.077-0.251V2.134c0-0.1,0.023-0.176,0.069-0.229
		s0.107-0.078,0.183-0.078c0.073,0,0.134,0.024,0.183,0.073s0.073,0.116,0.073,0.202v0.051c0.093-0.111,0.191-0.192,0.297-0.244
		s0.223-0.078,0.352-0.078c0.134,0,0.249,0.027,0.346,0.08s0.176,0.134,0.238,0.242c0.09-0.109,0.187-0.19,0.289-0.243
		s0.217-0.079,0.342-0.079c0.146,0,0.271,0.029,0.377,0.086s0.185,0.139,0.236,0.246c0.046,0.096,0.068,0.248,0.068,0.455v1.041
		c0,0.112-0.025,0.196-0.076,0.252s-0.118,0.084-0.201,0.084c-0.081,0-0.146-0.028-0.198-0.085s-0.077-0.14-0.077-0.251V2.763
		c0-0.115-0.005-0.207-0.015-0.275s-0.036-0.127-0.079-0.174s-0.108-0.07-0.195-0.07c-0.07,0-0.137,0.021-0.2,0.063
		s-0.112,0.098-0.147,0.168C40.512,2.563,40.492,2.722,40.492,2.95z"/>
</g>
<path fill-rule="evenodd" clip-rule="evenodd" fill="#FFFFFF" d="M3.317,8.992C3.185,8.307,4.281,8.214,4.343,8.846
	C4.401,9.445,3.432,9.592,3.317,8.992L3.317,8.992z M2.633,6.79C1.794,7.06,2.297,8.252,3.116,7.955
	c0.257-0.093,0.538-0.432,0.379-0.833C3.381,6.833,3.013,6.667,2.633,6.79L2.633,6.79z M0.938,7.617
	c-0.001,0.855,0.349,1.76,0.951,2.226c0.15,0.117,0.237,0.207,0.412,0.333c0.947,0.681,2.323,0.78,3.375,0.301
	c1.758-0.8,2.398-2.83,1.421-4.354C6.99,5.959,6.959,5.828,6.75,5.859C5.273,6.08,4.157,6.293,2.635,6.044
	C2.318,5.993,1.882,5.85,1.613,5.826c-0.061,0.116-0.149,0.207-0.24,0.351C1.105,6.603,0.938,7.078,0.938,7.617L0.938,7.617z
	 M2.796,3.212C2.795,3.534,2.908,4.144,2.635,4.276c-0.327,0.16-0.517,0.238-0.786,0.443C0.097,6.049-0.097,8.222,1.18,9.772
	c0.812,0.985,2.193,1.507,3.519,1.361c2.821-0.312,4.448-3.304,2.678-5.698C7.113,5.078,6.5,4.585,6.01,4.346
	C5.468,4.083,5.348,4.214,5.35,3.79c0.002-0.41,0.002-0.819,0.002-1.229c0-0.776-0.096-0.904,0.227-0.99
	c0.307-0.082,0.644-0.255,0.633-0.608C6.189,0.254,4.96,0.387,4.301,0.387c-0.674,0-1.811-0.137-2.223,0.249
	c-0.297,0.28-0.151,0.622,0.125,0.789C2.64,1.689,2.793,1.404,2.795,2.026c0.21,0.057,0.64,0.024,0.876,0.022
	C3.973,2.046,4.282,2.163,4.01,2.384C3.75,2.519,3.136,2.375,2.796,2.435l0.009,0.396c0.229,0.028,0.669-0.073,0.818,0.076
	C4.046,3.287,2.913,3.212,2.796,3.212L2.796,3.212z M5.723,1.934c0.345-0.155,0.609-0.278,0.768-0.567
	C6.691,0.999,6.546,0.581,6.334,0.38C5.816-0.109,4.891,0.015,4.041,0.015c-0.88,0-1.755-0.133-2.265,0.393
	c-0.219,0.227-0.34,0.621-0.128,0.979C1.822,1.682,2.03,1.751,2.422,1.929l0.001,1.971C2.396,4.012,2.258,4.033,2.124,4.102
	c-0.227,0.117-0.619,0.395-0.777,0.56C1.036,4.987,0.781,5.185,0.508,5.645C0.037,6.437-0.144,7.558,0.125,8.597
	c0.249,0.961,0.921,1.679,1.528,2.114c0.794,0.569,1.585,0.822,2.797,0.809c3.626-0.041,5.642-4.608,2.432-7.079
	C6.504,4.149,6.216,4.034,5.722,3.817L5.723,1.934z"/>
</svg>
